<svg width="40" height="22" viewBox="0 0 40 22" fill="none" xmlns="http://www.w3.org/2000/svg">
<path d="M38.3294 11.7714C37.9829 11.2251 37.6327 10.6826 37.2824 10.1388C36.8366 9.44678 36.3899 8.75512 35.9423 8.0639C35.5032 7.38788 35.0633 6.70975 34.6225 6.0295C34.2968 5.52249 33.9698 5.01844 33.6415 4.51734C33.0603 3.61485 32.4055 2.72758 31.507 2.09381C30.5548 1.4423 29.4723 1.00507 28.3344 0.812336C27.8594 0.727885 27.3788 0.678739 26.8965 0.665302C25.667 0.639361 24.4549 0.95958 23.399 1.58933C22.3838 2.20409 21.5551 3.07488 20.6604 3.84935C20.6091 3.90198 20.547 3.94284 20.4783 3.96911C20.4096 3.99538 20.336 4.00642 20.2626 4.00148C20.1892 3.99653 20.1178 3.97572 20.0533 3.94048C19.9887 3.90524 19.9326 3.85641 19.8888 3.79738C19.1795 2.96081 18.4142 2.14958 17.4942 1.5323C16.5638 0.938024 15.5021 0.579905 14.4015 0.489115L14.3253 0.48151C13.1764 0.385216 12.0195 0.496859 10.9103 0.811069C10.7403 0.857967 10.5715 0.912471 10.4027 0.973313C9.31768 1.37385 8.46741 2.11916 7.71741 2.98109C6.99912 3.80879 6.3976 4.72775 5.77322 5.62643L3.09046 9.48607C2.21101 10.7498 1.31252 11.9894 0.892464 13.5016C0.638654 14.418 0.542207 15.4029 0.746524 16.3346C1.02698 17.6173 1.64374 18.8329 2.61202 19.7328C3.63995 20.6911 5.04479 21.1613 6.42805 21.2754C7.95852 21.4022 9.6527 20.9927 10.8405 19.985C11.0867 19.7759 11.4433 19.5097 11.5004 19.1713C11.5639 18.791 11.4383 18.3816 11.3202 18.0305C10.8888 16.7364 10.8126 16.4879 10.8126 16.4879C10.8126 16.4879 10.64 15.9049 10.1781 16.3802C9.61463 16.9569 9.21615 17.6211 8.47503 18.0014C7.9345 18.2748 7.32923 18.395 6.72508 18.3487C6.12093 18.3025 5.54107 18.0916 5.0486 17.739C3.5765 16.6755 3.45213 14.868 4.16026 13.3178C4.33285 12.9376 4.54098 12.5776 4.74656 12.2176C5.26687 11.3227 5.85698 10.4709 6.43186 9.61155C7.33288 8.2629 8.20853 6.86861 9.20092 5.5884C9.87733 4.71887 10.6743 3.85315 11.7238 3.445C12.3143 3.22021 12.9458 3.1234 13.5766 3.16099C14.2074 3.19857 14.8229 3.3697 15.3825 3.66302C16.7099 4.35763 17.7086 5.47306 18.5767 6.66961C19.2315 7.57083 19.9053 8.45556 20.5856 9.34157C22.0111 11.2006 23.4367 13.0597 24.8622 14.9187C27.1085 17.8467 29.3915 22.2159 33.7456 21.6975C34.8877 21.5606 35.9816 21.1056 36.9652 20.5136C37.0134 20.4845 37.0616 20.4578 37.106 20.4262C40.3929 18.0419 39.6137 13.783 38.3294 11.7714ZM36.2672 17.0723C35.9622 17.5812 35.5277 18.0004 35.0079 18.2872C34.4881 18.5739 33.9015 18.718 33.3078 18.7048C31.0819 18.6541 29.8115 16.6907 28.6123 15.0924C27.9435 14.195 27.2684 13.2988 26.5894 12.4128L26.1656 11.8538L25.7354 11.2936L25.3128 10.746L24.9041 10.206C24.7747 10.037 24.6444 9.86802 24.5133 9.69901L24.144 9.21862L23.8013 8.77245L23.4891 8.36684L23.2138 8.00686C23.1338 7.90545 23.0551 7.80278 22.9764 7.70011L22.7848 7.44661L22.6427 7.26155L22.5158 7.10818C22.4186 6.99763 22.3405 6.87169 22.2848 6.73552C22.1693 6.41864 22.3267 6.19048 22.5488 5.975C23.7582 4.80887 25.1313 3.36135 26.9295 3.36135C27.8724 3.36135 28.8737 3.57936 29.658 4.12187C30.3623 4.6086 30.8661 5.42616 31.3458 6.12203C31.8611 6.86861 32.342 7.64307 32.8496 8.39092C33.8116 9.81436 34.7532 11.2543 35.6162 12.7386C36.3801 14.0467 37.1263 15.6007 36.2723 17.0723H36.2672Z" fill="white"/>
<path d="M24.4347 19.0318C23.1517 20.3855 21.7138 21.4008 19.7963 21.5301C18.4027 21.6172 17.0189 21.2457 15.8567 20.4727C14.6945 19.6996 13.8179 18.5676 13.361 17.2497C12.8876 15.8801 12.9245 14.386 13.465 13.0415C14.0462 11.6193 15.0691 10.3885 16.0437 9.21857V9.21224L16.2975 8.90549C16.6859 8.43143 16.9778 8.89535 16.9778 8.89535C16.9778 8.89535 17.8204 9.85488 18.1986 10.3403C18.5539 10.7967 18.2417 11.201 17.9016 11.5445C16.5831 12.8779 15.3635 15.0201 16.4244 16.8542C17.2074 18.1914 18.9828 18.7631 20.4359 18.3182C21.3585 18.0305 21.8534 17.4157 22.4664 16.7287C22.9207 16.2217 23.2278 16.7718 23.2278 16.7718C23.2278 16.7718 23.8433 17.4512 24.3293 18.0393C24.8154 18.6275 24.4347 19.0318 24.4347 19.0318Z" fill="white"/>
</svg>
