<svg width="29" height="36" viewBox="0 0 29 36" fill="none" xmlns="http://www.w3.org/2000/svg">
<path d="M27.8257 20.6922L27.8253 20.6916C27.5191 20.1131 27.1381 19.5701 26.6906 19.0737C26.4687 18.826 26.2294 18.5915 25.9739 18.3719C25.8478 18.2608 25.7193 18.156 25.5897 18.0527L25.5305 18.0055H25.5255C25.4113 17.9187 25.2941 17.8345 25.1783 17.7532L25.1222 17.7139H25.1174C24.4807 17.2839 23.7825 16.9342 23.0424 16.6741C23.0303 16.6696 23.0179 16.6657 23.0051 16.6627C22.9054 16.6262 22.8064 16.5947 22.7125 16.5647L22.7071 16.563L22.705 16.5623C22.5888 16.5265 22.4729 16.4935 22.3567 16.4631L11.559 13.4177L11.5302 13.4096H11.5003H11.4974H11.4633L7.93584 12.4149L7.9418 12.3987L7.7157 12.3349L5.35638 11.6693V7.95751H19.8546C20.5441 7.95747 21.2225 8.10956 21.8302 8.39954L21.9233 8.20337L21.8302 8.39954C22.4378 8.68948 22.9553 9.10791 23.3391 9.61649C23.7227 10.1249 23.9613 10.7083 24.0365 11.3155C24.1114 11.9227 24.0209 12.5377 23.7719 13.1077L23.7536 13.1493V13.1948V13.1975V13.362L23.9114 13.4067L27.9165 14.5381L27.9454 14.5462H27.9753H27.9783H28.1259L28.1799 14.4085C28.6161 13.297 28.7747 12.1114 28.6445 10.937C28.5145 9.7626 28.0986 8.62999 27.4283 7.6199L27.3639 7.52298H27.3618C26.6628 6.50234 25.7193 5.63825 24.6017 4.99397C23.5055 4.36208 22.2702 3.95759 20.9842 3.80764V0.217265V0H20.7675H16.5769H16.3602V0.217265V3.74259H12.3397V0.217265V0H12.1229H7.93235H7.71564V0.217265V3.74259H0.949077H0.732361V3.95985V14.6125V14.777L0.890349 14.8216L5.08094 16.0044H5.08096L14.0697 18.5399L14.0697 18.5399L21.0915 20.5201L21.0936 20.5215L21.1265 20.5305C21.2177 20.5554 21.3061 20.582 21.3907 20.6125C21.3939 20.6139 21.3971 20.6153 21.4005 20.6166C21.4082 20.6198 21.4163 20.6226 21.4247 20.6249L21.4387 20.63H21.4435L21.5066 20.6477L21.5052 20.6515L21.6928 20.7334C22.5522 21.1085 23.2403 21.7335 23.6488 22.5013C24.0571 23.2682 24.1637 24.1353 23.9539 24.962L24.1476 25.0116L23.9539 24.962C23.7437 25.7894 23.2275 26.5329 22.4833 27.0678C21.739 27.6031 20.8121 27.8964 19.8546 27.8966H5.35638V19.7673V19.6027L5.19827 19.5582L1.00768 18.3781L0.732361 18.3006V18.5873V31.8943V32.1116H0.949077H7.71564V35.6315V35.8488H7.93235H12.1229H12.3397V35.6315V32.1116H16.3602V35.6315V35.8488H16.5769H20.7675H20.9842V35.6315V32.0438C22.3116 31.8878 23.5846 31.4611 24.7052 30.7934C25.8809 30.0932 26.8564 29.1479 27.5477 28.0346C28.2392 26.9213 28.6263 25.6731 28.6748 24.3943C28.7234 23.1159 28.4317 21.8462 27.8257 20.6922Z" fill="black"/>
</svg>
