<svg width="140" height="37" viewBox="0 0 140 37" fill="none" xmlns="http://www.w3.org/2000/svg">
<path d="M41.8605 13.9049H46.9628C49.1785 13.9049 50.5204 12.325 50.5204 10.6511C50.5204 9.86899 50.0991 8.91476 49.7091 8.50804V8.47676C50.1616 8.03875 50.5204 7.24095 50.5204 6.41187C50.5204 4.69113 49.1785 3.50225 46.9628 3.50225H41.8605V13.9049ZM43.7329 7.66331V5.19171H46.9628C48.0239 5.19171 48.6168 5.64536 48.6168 6.41187C48.6168 7.22531 48.0707 7.66331 47.0721 7.66331H43.7329ZM43.7329 12.2155V9.38406H47.0721C48.0707 9.38406 48.6168 9.82206 48.6168 10.6511C48.6168 11.4333 48.0239 12.2155 46.9628 12.2155H43.7329ZM53.2667 3.03296V13.9049H55.0143V3.03296H53.2667ZM61.4904 14.0926C63.9089 14.0926 65.7345 12.497 65.7345 10.1819C65.7345 7.88232 63.9089 6.28672 61.4904 6.28672C59.0718 6.28672 57.2774 7.88232 57.2774 10.1819C57.2774 12.497 59.0718 14.0926 61.4904 14.0926ZM61.4904 12.4814C60.0393 12.4814 59.0718 11.5584 59.0718 10.1819C59.0718 8.80526 60.0393 7.86668 61.4904 7.86668C62.9415 7.86668 63.9245 8.80526 63.9245 10.1819C63.9245 11.5584 62.9259 12.4814 61.4904 12.4814ZM71.6849 14.0926C72.9176 14.0926 74.0566 13.592 74.9929 12.7317L73.7758 11.5428C73.136 12.1998 72.4183 12.4814 71.7005 12.4814C70.2182 12.4814 69.2508 11.5428 69.2508 10.1819C69.2508 8.80526 70.2338 7.86668 71.6849 7.86668C72.4651 7.86668 73.1984 8.22647 73.6978 8.77397L74.946 7.60074C74.041 6.74037 72.8708 6.28672 71.6849 6.28672C69.2664 6.28672 67.4563 7.89796 67.4563 10.1819C67.4563 12.4814 69.2508 14.0926 71.6849 14.0926ZM80.1381 10.8858L82.6659 13.9049H84.866L81.3708 9.77513L84.8972 6.4588H82.4318L78.9835 9.71256V3.03296H77.2359V13.9049H78.9835V11.9652L80.1381 10.8858ZM89.8026 14.0926C91.0352 14.0926 92.1743 13.592 93.1105 12.7317L91.8934 11.5428C91.2537 12.1998 90.5359 12.4814 89.8182 12.4814C88.3358 12.4814 87.3684 11.5428 87.3684 10.1819C87.3684 8.80526 88.3514 7.86668 89.8026 7.86668C90.5827 7.86668 91.3161 8.22647 91.8154 8.77397L93.0637 7.60074C92.1587 6.74037 90.9884 6.28672 89.8026 6.28672C87.384 6.28672 85.574 7.89796 85.574 10.1819C85.574 12.4814 87.3684 14.0926 89.8026 14.0926ZM99.3636 6.28672C98.4742 6.28672 97.6784 6.41187 97.1011 6.81859V3.03296H95.3535V13.9049H97.1011V9.57177C97.1011 8.46111 98.1466 7.86668 99.1608 7.86668C100.269 7.86668 100.955 8.47676 100.955 9.5092V13.9049H102.703V9.38406C102.703 7.50688 101.283 6.28672 99.3636 6.28672ZM113.353 6.4588H111.605V6.92809C111.013 6.50573 110.186 6.28672 109.265 6.28672C106.956 6.28672 105.114 7.86667 105.114 10.1819C105.114 12.497 106.971 14.0926 109.218 14.0926C110.217 14.0926 111.059 13.9518 111.668 13.4982V13.9049H113.353V6.4588ZM109.312 12.4814C107.876 12.4814 106.909 11.5584 106.909 10.1819C106.909 8.80526 107.876 7.86668 109.312 7.86668C110.747 7.86668 111.715 8.78962 111.715 10.1819C111.715 11.5741 110.747 12.4814 109.312 12.4814ZM117.215 5.88C117.808 5.88 118.323 5.42635 118.323 4.84756C118.323 4.26876 117.808 3.83076 117.215 3.83076C116.591 3.83076 116.108 4.26876 116.108 4.84756C116.108 5.42635 116.591 5.88 117.215 5.88ZM118.074 13.9049V6.4588H116.326V13.9049H118.074ZM125.116 6.28672C124.226 6.28672 123.43 6.41187 122.853 6.81859V6.4588H121.105V13.9049H122.853V9.57177C122.853 8.46111 123.898 7.86668 124.913 7.86668C126.021 7.86668 126.707 8.47676 126.707 9.5092V13.9049H128.455V9.38406C128.455 7.50688 127.035 6.28672 125.116 6.28672ZM45.9174 32.7774C48.648 32.7774 50.3644 31.4947 50.3644 29.6175C50.3644 27.1772 47.6026 26.8018 46.1046 26.5671C44.045 26.2855 43.4208 25.9414 43.4208 25.2062C43.4208 24.2832 44.3258 23.7201 46.0734 23.7201C47.1501 23.7201 48.1487 23.986 49.2566 24.5961L50.4112 23.2664C49.1473 22.5625 47.5402 21.9993 46.1046 21.9993C43.9982 21.9993 41.5016 22.7346 41.5016 25.3C41.5016 26.8643 42.4846 27.7091 45.7614 28.2566C45.8082 28.2722 45.855 28.2722 45.9018 28.2879L46.0578 28.3035C47.2281 28.4912 48.4296 28.6946 48.4296 29.6488C48.4296 30.5718 47.3841 31.0567 45.933 31.0567C44.6067 31.0567 43.2336 30.6969 42.1569 29.9617L41.0647 31.307C42.0321 31.9796 43.9982 32.7774 45.9174 32.7774ZM56.7094 32.7774C59.128 32.7774 60.9536 31.1818 60.9536 28.8667C60.9536 26.5671 59.128 24.9715 56.7094 24.9715C54.2909 24.9715 52.4965 26.5671 52.4965 28.8667C52.4965 31.1818 54.2909 32.7774 56.7094 32.7774ZM56.7094 31.1662C55.2583 31.1662 54.2909 30.2433 54.2909 28.8667C54.2909 27.4901 55.2583 26.5515 56.7094 26.5515C58.1605 26.5515 59.1436 27.4901 59.1436 28.8667C59.1436 30.2433 58.1449 31.1662 56.7094 31.1662ZM67.0598 32.7774C68.2924 32.7774 69.4315 32.2769 70.3677 31.4165L69.1506 30.2276C68.5109 30.8846 67.7931 31.1662 67.0754 31.1662C65.593 31.1662 64.6256 30.2276 64.6256 28.8667C64.6256 27.4901 65.6086 26.5515 67.0598 26.5515C67.8399 26.5515 68.5733 26.9113 69.0726 27.4588L70.3209 26.2855C69.4159 25.4252 68.2456 24.9715 67.0598 24.9715C64.6412 24.9715 62.8312 26.5828 62.8312 28.8667C62.8312 31.1662 64.6256 32.7774 67.0598 32.7774ZM73.7985 24.5648C74.3915 24.5648 74.9064 24.1112 74.9064 23.5324C74.9064 22.9536 74.3915 22.5156 73.7985 22.5156C73.1744 22.5156 72.6907 22.9536 72.6907 23.5324C72.6907 24.1112 73.1744 24.5648 73.7985 24.5648ZM74.6567 32.5897V25.1436H72.9091V32.5897H74.6567ZM85.1352 28.3974C85.1352 26.661 83.8557 24.9715 81.2967 24.9715C78.8625 24.9715 77.1773 26.5515 77.1773 28.8354C77.1773 31.1975 78.9562 32.7774 81.4059 32.7774C82.6542 32.7774 83.8713 32.2612 84.8075 31.4165L83.6996 30.2276C82.9975 30.8533 82.2017 31.1975 81.3903 31.1975C80.1888 31.1975 79.315 30.5874 79.0342 29.5706H84.9635C85.0883 29.07 85.1352 28.6007 85.1352 28.3974ZM81.2811 26.5358C82.4669 26.5358 83.1691 27.1928 83.2939 28.0219H79.0498C79.315 27.0677 80.1264 26.5358 81.2811 26.5358ZM92.7841 32.2769L92.0508 30.9159C91.5047 31.1506 91.1458 31.1662 90.8025 31.1662C90.0067 31.1662 89.6166 30.8064 89.6166 30.0555V26.6923H92.8466V25.1436H89.6166V23.0318H87.869V25.1436H86.2931V26.6923H87.869V30.0555C87.869 31.8232 88.9145 32.7774 90.8181 32.7774C91.5047 32.7774 92.082 32.621 92.5033 32.402L92.7841 32.2769ZM102.868 25.1436H100.917L98.6392 30.2589L96.205 25.1436H94.2546L97.7341 32.2925L96.0022 36.1876H97.7966L102.868 25.1436ZM111.068 32.5897V22.1871H109.195V32.5897H111.068ZM116.481 32.5897V22.1871H114.608V32.5897H116.481ZM128.166 23.8765V22.1871H118.882V23.8765H122.58V32.5897H124.468V23.8765H128.166ZM136.11 28.0219C138.076 27.8811 139.199 26.6766 139.199 25.1123C139.199 23.3916 137.857 22.2027 135.641 22.2027H130.539V32.6054H132.396L132.411 28.0376H133.894L137.249 32.5897H139.636L136.11 28.0219ZM132.411 23.8765H135.641C136.702 23.8765 137.295 24.3302 137.295 25.0967C137.295 25.8475 136.702 26.3481 135.641 26.3481H132.411V23.8765Z" fill="black"/>
<path d="M27.8257 20.6922L27.8253 20.6916C27.5191 20.1131 27.1381 19.5701 26.6906 19.0737C26.4687 18.826 26.2294 18.5915 25.9739 18.3719C25.8478 18.2608 25.7193 18.156 25.5897 18.0527L25.5305 18.0055H25.5255C25.4113 17.9187 25.2941 17.8345 25.1783 17.7532L25.1222 17.7139H25.1174C24.4807 17.2839 23.7825 16.9342 23.0424 16.6741C23.0303 16.6696 23.0179 16.6657 23.0051 16.6627C22.9054 16.6262 22.8064 16.5947 22.7125 16.5647L22.7071 16.563L22.705 16.5623C22.5888 16.5265 22.4729 16.4935 22.3567 16.4631L11.559 13.4177L11.5302 13.4096H11.5003H11.4974H11.4633L7.93584 12.4149L7.9418 12.3987L7.7157 12.3349L5.35638 11.6693V7.95751H19.8546C20.5441 7.95747 21.2225 8.10956 21.8302 8.39954L21.9233 8.20337L21.8302 8.39954C22.4378 8.68948 22.9553 9.10791 23.3391 9.61649C23.7227 10.1249 23.9613 10.7083 24.0365 11.3155C24.1114 11.9227 24.0209 12.5377 23.7719 13.1077L23.7536 13.1493V13.1948V13.1975V13.362L23.9114 13.4067L27.9165 14.5381L27.9454 14.5462H27.9753H27.9783H28.1259L28.1799 14.4085C28.6161 13.297 28.7747 12.1114 28.6445 10.937C28.5145 9.7626 28.0986 8.62999 27.4283 7.6199L27.3639 7.52298H27.3618C26.6628 6.50234 25.7193 5.63825 24.6017 4.99397C23.5055 4.36208 22.2702 3.95759 20.9842 3.80764V0.217265V0H20.7675H16.5769H16.3602V0.217265V3.74259H12.3397V0.217265V0H12.1229H7.93235H7.71564V0.217265V3.74259H0.949077H0.732361V3.95985V14.6125V14.777L0.890349 14.8216L5.08094 16.0044H5.08096L14.0697 18.5399L14.0697 18.5399L21.0915 20.5201L21.0936 20.5215L21.1265 20.5305C21.2177 20.5554 21.3061 20.582 21.3907 20.6125C21.3939 20.6139 21.3971 20.6153 21.4005 20.6166C21.4082 20.6198 21.4163 20.6226 21.4247 20.6249L21.4387 20.63H21.4435L21.5066 20.6477L21.5052 20.6515L21.6928 20.7334C22.5522 21.1085 23.2403 21.7335 23.6488 22.5013C24.0571 23.2682 24.1637 24.1353 23.9539 24.962L24.1476 25.0116L23.9539 24.962C23.7437 25.7894 23.2275 26.5329 22.4833 27.0678C21.739 27.6031 20.8121 27.8964 19.8546 27.8966H5.35638V19.7673V19.6027L5.19827 19.5582L1.00768 18.3781L0.732361 18.3006V18.5873V31.8943V32.1116H0.949077H7.71564V35.6315V35.8488H7.93235H12.1229H12.3397V35.6315V32.1116H16.3602V35.6315V35.8488H16.5769H20.7675H20.9842V35.6315V32.0438C22.3116 31.8878 23.5846 31.4611 24.7052 30.7934C25.8809 30.0932 26.8564 29.1479 27.5477 28.0346C28.2392 26.9213 28.6263 25.6731 28.6748 24.3943C28.7234 23.1159 28.4317 21.8462 27.8257 20.6922Z" fill="black"/>
</svg>
