<svg width="2293" height="454" viewBox="0 0 2293 454" fill="none" xmlns="http://www.w3.org/2000/svg">
<g filter="url(#filter0_d_859_119)">
<path d="M703.4 333.5C684.733 333.5 670.617 328.25 661.05 317.75C651.483 307.017 646.7 291.733 646.7 271.9V257.9H683.1V274.7C683.1 290.567 689.75 298.5 703.05 298.5C709.583 298.5 714.483 296.633 717.75 292.9C721.25 288.933 723 282.633 723 274C723 263.733 720.667 254.75 716 247.05C711.333 239.117 702.7 229.667 690.1 218.7C674.233 204.7 663.15 192.1 656.85 180.9C650.55 169.467 647.4 156.633 647.4 142.4C647.4 123.033 652.3 108.1 662.1 97.6C671.9 86.8667 686.133 81.5 704.8 81.5C723.233 81.5 737.117 86.8667 746.45 97.6C756.017 108.1 760.8 123.267 760.8 143.1V153.25H724.4V140.65C724.4 132.25 722.767 126.183 719.5 122.45C716.233 118.483 711.45 116.5 705.15 116.5C692.317 116.5 685.9 124.317 685.9 139.95C685.9 148.817 688.233 157.1 692.9 164.8C697.8 172.5 706.55 181.833 719.15 192.8C735.25 206.8 746.333 219.517 752.4 230.95C758.467 242.383 761.5 255.8 761.5 271.2C761.5 291.267 756.483 306.667 746.45 317.4C736.65 328.133 722.3 333.5 703.4 333.5ZM799.675 120H759.425V85H878.425V120H838.175V330H799.675V120ZM896.75 85H948.9L988.8 330H950.3L943.3 281.35V282.05H899.55L892.55 330H856.85L896.75 85ZM938.75 248.8L921.6 127.7H920.9L904.1 248.8H938.75ZM1047.05 333.5C1028.61 333.5 1014.5 328.25 1004.7 317.75C995.129 307.25 990.345 292.433 990.345 273.3V141.7C990.345 122.567 995.129 107.75 1004.7 97.25C1014.5 86.75 1028.61 81.5 1047.05 81.5C1065.48 81.5 1079.48 86.75 1089.05 97.25C1098.85 107.75 1103.75 122.567 1103.75 141.7V167.6H1067.35V139.25C1067.35 124.083 1060.93 116.5 1048.1 116.5C1035.26 116.5 1028.85 124.083 1028.85 139.25V276.1C1028.85 291.033 1035.26 298.5 1048.1 298.5C1060.93 298.5 1067.35 291.033 1067.35 276.1V238.65H1103.75V273.3C1103.75 292.433 1098.85 307.25 1089.05 317.75C1079.48 328.25 1065.48 333.5 1047.05 333.5ZM1112.78 85H1151.28V188.25L1200.28 85H1238.78L1192.93 174.95L1239.48 330H1199.23L1166.68 220.8L1151.28 251.95V330H1112.78V85Z" fill="white"/>
</g>
<g filter="url(#filter1_d_859_119)">
<path d="M1754.35 84H1813.15C1832.28 84 1846.63 89.1333 1856.2 99.4C1865.77 109.667 1870.55 124.717 1870.55 144.55V268.45C1870.55 288.283 1865.77 303.333 1856.2 313.6C1846.63 323.867 1832.28 329 1813.15 329H1754.35V84ZM1812.45 294C1818.75 294 1823.53 292.133 1826.8 288.4C1830.3 284.667 1832.05 278.6 1832.05 270.2V142.8C1832.05 134.4 1830.3 128.333 1826.8 124.6C1823.53 120.867 1818.75 119 1812.45 119H1792.85V294H1812.45ZM1903.54 84H2008.54V119H1942.04V183.75H1994.89V218.75H1942.04V294H2008.54V329H1903.54V84ZM2037.69 84H2142.69V119H2076.19V183.75H2129.04V218.75H2076.19V294H2142.69V329H2037.69V84ZM2171.83 84H2228.53C2247.67 84 2262.02 89.1333 2271.58 99.4C2281.15 109.667 2285.93 124.717 2285.93 144.55V168.7C2285.93 188.533 2281.15 203.583 2271.58 213.85C2262.02 224.117 2247.67 229.25 2228.53 229.25H2210.33V329H2171.83V84ZM2228.53 194.25C2234.83 194.25 2239.5 192.5 2242.53 189C2245.8 185.5 2247.43 179.55 2247.43 171.15V142.1C2247.43 133.7 2245.8 127.75 2242.53 124.25C2239.5 120.75 2234.83 119 2228.53 119H2210.33V194.25H2228.53Z" fill="white"/>
</g>
<g filter="url(#filter2_d_859_119)">
<path d="M1333.45 117H1293.2V82H1412.2V117H1371.95V327H1333.45V117ZM1471.12 330.5C1452.22 330.5 1437.76 325.133 1427.72 314.4C1417.69 303.667 1412.67 288.5 1412.67 268.9V140.1C1412.67 120.5 1417.69 105.333 1427.72 94.6C1437.76 83.8667 1452.22 78.5 1471.12 78.5C1490.02 78.5 1504.49 83.8667 1514.52 94.6C1524.56 105.333 1529.57 120.5 1529.57 140.1V268.9C1529.57 288.5 1524.56 303.667 1514.52 314.4C1504.49 325.133 1490.02 330.5 1471.12 330.5ZM1471.12 295.5C1484.42 295.5 1491.07 287.45 1491.07 271.35V137.65C1491.07 121.55 1484.42 113.5 1471.12 113.5C1457.82 113.5 1451.17 121.55 1451.17 137.65V271.35C1451.17 287.45 1457.82 295.5 1471.12 295.5ZM1597.26 330.5C1578.36 330.5 1563.89 325.133 1553.86 314.4C1543.83 303.667 1538.81 288.5 1538.81 268.9V140.1C1538.81 120.5 1543.83 105.333 1553.86 94.6C1563.89 83.8667 1578.36 78.5 1597.26 78.5C1616.16 78.5 1630.63 83.8667 1640.66 94.6C1650.69 105.333 1655.71 120.5 1655.71 140.1V268.9C1655.71 288.5 1650.69 303.667 1640.66 314.4C1630.63 325.133 1616.16 330.5 1597.26 330.5ZM1597.26 295.5C1610.56 295.5 1617.21 287.45 1617.21 271.35V137.65C1617.21 121.55 1610.56 113.5 1597.26 113.5C1583.96 113.5 1577.31 121.55 1577.31 137.65V271.35C1577.31 287.45 1583.96 295.5 1597.26 295.5Z" fill="white"/>
</g>
<g filter="url(#filter3_d_859_119)">
<g filter="url(#filter4_d_859_119)">
<path d="M446.287 114.163V142.869C440.905 138.702 434.573 136.586 428.312 136.586C423.985 136.586 419.729 137.611 415.859 139.694V110.955C419.729 108.872 423.985 107.847 428.312 107.847C434.573 107.88 440.905 109.996 446.287 114.163Z" fill="#001D9F"/>
</g>
<g filter="url(#filter5_d_859_119)">
<mask id="mask0_859_119" style="mask-type:luminance" maskUnits="userSpaceOnUse" x="415" y="107" width="32" height="36">
<path d="M446.294 114.164V142.87C440.913 138.703 434.581 136.586 428.319 136.586C423.993 136.586 419.737 137.611 415.867 139.695V110.956C419.737 108.872 423.993 107.847 428.319 107.847C434.581 107.88 440.913 109.997 446.294 114.164Z" fill="white"/>
</mask>
<g mask="url(#mask0_859_119)">
<path d="M446.294 114.164V142.87C440.913 138.703 434.581 136.586 428.319 136.586C423.993 136.586 419.737 137.611 415.867 139.695V110.956C419.737 108.872 423.993 107.847 428.319 107.847C434.581 107.88 440.913 109.997 446.294 114.164Z" fill="#001D9F"/>
</g>
</g>
<path d="M415.863 110.957V139.695L367.602 165.491V136.752L415.863 110.957Z" fill="#001D9F"/>
<path d="M503.478 158.611V187.317L446.281 142.869V114.164L503.478 158.611Z" fill="#001D9F"/>
<path d="M510.164 168.994V197.7C510.164 194.36 507.983 190.788 503.516 187.316V158.61C507.983 162.082 510.164 165.654 510.164 168.994Z" fill="#001D9F"/>
<mask id="mask1_859_119" style="mask-type:luminance" maskUnits="userSpaceOnUse" x="503" y="158" width="8" height="40">
<path d="M510.172 168.995V197.701C510.172 194.361 507.991 190.789 503.523 187.317V158.611C507.991 162.083 510.172 165.655 510.172 168.995Z" fill="white"/>
</mask>
<g mask="url(#mask1_859_119)">
<path d="M510.172 168.995V197.701C510.172 194.361 507.991 190.789 503.523 187.317V158.611C507.991 162.083 510.172 165.655 510.172 168.995Z" fill="#001D9F"/>
</g>
<path d="M553.993 170.714V199.42C553.993 210.796 546.536 221.677 531.656 229.647V200.908C546.536 192.971 553.993 182.057 553.993 170.714Z" fill="#001D9F"/>
<mask id="mask2_859_119" style="mask-type:luminance" maskUnits="userSpaceOnUse" x="531" y="170" width="23" height="60">
<path d="M554.001 170.713V199.419C554.001 210.796 546.544 221.676 531.664 229.646V200.907C546.544 192.97 554.001 182.057 554.001 170.713Z" fill="white"/>
</mask>
<g mask="url(#mask2_859_119)">
<path d="M553.996 170.713V199.419C553.996 201.403 553.785 203.388 553.328 205.339V176.633C553.785 174.649 553.996 172.698 553.996 170.713Z" fill="#001D9F"/>
<path d="M553.329 176.601V205.307C552.837 207.324 552.133 209.342 551.148 211.293V182.587C552.133 180.636 552.837 178.651 553.329 176.601Z" fill="#001D9F"/>
<path d="M551.151 182.585V211.291C550.025 213.573 548.548 215.789 546.719 217.939V189.233C548.548 187.116 550.025 184.867 551.151 182.585Z" fill="#001D9F"/>
<path d="M546.719 189.232V217.938C543.061 222.237 538.066 226.206 531.664 229.612V200.906C538.066 197.5 543.096 193.531 546.719 189.232Z" fill="#001D9F"/>
</g>
<path d="M260.939 208.382V237.087C257.843 234.673 254.326 233.483 250.914 233.483C248.627 233.483 246.376 234.012 244.336 235.103V206.397C246.376 205.306 248.627 204.777 250.914 204.777C254.361 204.777 257.879 205.967 260.939 208.382Z" fill="#001D9F"/>
<mask id="mask3_859_119" style="mask-type:luminance" maskUnits="userSpaceOnUse" x="244" y="204" width="17" height="34">
<path d="M260.939 208.381V237.087C257.843 234.673 254.326 233.482 250.914 233.482C248.627 233.482 246.376 234.011 244.336 235.103V206.397C246.376 205.305 248.627 204.776 250.914 204.776C254.361 204.776 257.879 205.967 260.939 208.381Z" fill="white"/>
</mask>
<g mask="url(#mask3_859_119)">
<path d="M260.939 208.381V237.087C257.843 234.673 254.326 233.482 250.914 233.482C248.627 233.482 246.376 234.011 244.336 235.103V206.397C246.376 205.305 248.627 204.776 250.914 204.776C254.361 204.776 257.879 205.967 260.939 208.381Z" fill="#001D9F"/>
</g>
<path d="M267.981 213.807V242.546L260.945 237.09V208.384L267.981 213.807Z" fill="#001D9F"/>
<path d="M270.552 217.809V246.515C270.552 245.159 269.743 243.902 267.984 242.513V213.807C269.743 215.196 270.552 216.453 270.552 217.809Z" fill="#001D9F"/>
<mask id="mask4_859_119" style="mask-type:luminance" maskUnits="userSpaceOnUse" x="267" y="213" width="4" height="34">
<path d="M270.544 217.809V246.515C270.544 245.159 269.735 243.902 267.977 242.513V213.808C269.735 215.197 270.544 216.453 270.544 217.809Z" fill="white"/>
</mask>
<g mask="url(#mask4_859_119)">
<path d="M270.544 217.809V246.515C270.544 245.159 269.735 243.902 267.977 242.513V213.808C269.735 215.197 270.544 216.453 270.544 217.809Z" fill="#001D9F"/>
</g>
<path d="M244.382 206.398V235.104L203.789 256.798V228.093L244.382 206.398Z" fill="#001D9F"/>
<path d="M315.724 218.535V247.241C315.724 250.647 314.704 254.12 312.453 257.493V228.787C314.669 225.414 315.724 221.941 315.724 218.535Z" fill="#001D9F"/>
<mask id="mask5_859_119" style="mask-type:luminance" maskUnits="userSpaceOnUse" x="312" y="218" width="4" height="40">
<path d="M315.724 218.536V247.241C315.724 250.648 314.704 254.12 312.453 257.494V228.788C314.669 225.414 315.724 221.942 315.724 218.536Z" fill="white"/>
</mask>
<g mask="url(#mask5_859_119)">
<path d="M315.731 218.536V247.241C315.731 248.531 315.59 249.821 315.273 251.111V222.405C315.555 221.115 315.731 219.825 315.731 218.536Z" fill="#001D9F"/>
<path d="M315.266 222.405V251.111C314.95 252.466 314.457 253.822 313.789 255.145V226.439C314.457 225.084 314.95 223.761 315.266 222.405Z" fill="#001D9F"/>
<path d="M313.79 226.438V255.144C313.403 255.938 312.946 256.699 312.453 257.459V228.753C312.946 227.993 313.403 227.232 313.79 226.438Z" fill="#001D9F"/>
</g>
<path d="M203.779 228.095V256.801C197.201 260.306 193.648 263.051 186.859 271.286V242.58C193.648 234.345 197.201 231.6 203.779 228.095Z" fill="#001D9F"/>
<mask id="mask6_859_119" style="mask-type:luminance" maskUnits="userSpaceOnUse" x="186" y="228" width="18" height="44">
<path d="M203.779 228.095V256.801C197.201 260.306 193.648 263.051 186.859 271.286V242.58C193.648 234.345 197.201 231.6 203.779 228.095Z" fill="white"/>
</mask>
<g mask="url(#mask6_859_119)">
<path d="M203.782 228.095V256.801C197.591 260.108 194.074 262.72 188.023 269.93V241.224C194.074 234.014 197.591 231.402 203.782 228.095Z" fill="#001D9F"/>
<path d="M188.024 241.224V269.929C187.672 270.359 187.285 270.822 186.898 271.285V242.58C187.285 242.117 187.637 241.654 188.024 241.224Z" fill="#001D9F"/>
</g>
<path d="M186.866 242.577V271.283L153.836 255.111V226.405L186.866 242.577Z" fill="#001D9F"/>
<path d="M450.511 244.299V273.005L306.008 160.761V132.056L450.511 244.299Z" fill="#001D9F"/>
<path d="M531.667 200.907V229.646L450.516 273.002V244.297L531.667 200.907Z" fill="#001D9F"/>
<path d="M312.436 228.753V257.492L279.758 306.9V278.194L312.436 228.753Z" fill="#001D9F"/>
<path d="M278.562 310.869V282.163C278.562 280.873 278.949 279.55 279.758 278.228V306.933C278.949 308.256 278.562 309.546 278.562 310.869Z" fill="#001D9F"/>
<mask id="mask7_859_119" style="mask-type:luminance" maskUnits="userSpaceOnUse" x="278" y="278" width="2" height="33">
<path d="M278.57 310.868V282.163C278.57 280.873 278.957 279.55 279.766 278.227V306.933C278.957 308.256 278.57 309.545 278.57 310.868Z" fill="white"/>
</mask>
<g mask="url(#mask7_859_119)">
<path d="M279.766 278.195V306.901C279.625 307.132 279.52 307.364 279.414 307.562V278.856C279.52 278.625 279.625 278.426 279.766 278.195Z" fill="#001D9F"/>
<path d="M279.407 278.857V307.563C279.125 308.158 278.879 308.753 278.773 309.349V280.643C278.879 280.047 279.09 279.452 279.407 278.857Z" fill="#001D9F"/>
<path d="M278.746 280.643V309.349C278.641 309.845 278.57 310.341 278.57 310.87V282.164C278.57 281.635 278.641 281.139 278.746 280.643Z" fill="#001D9F"/>
</g>
<path d="M115.955 268.836V297.542L56.7188 329.224V300.486L115.955 268.836Z" fill="#001D9F"/>
<path d="M235.398 309.316V280.61C235.398 290.102 240.604 299.56 249.75 306.704V335.409C240.604 328.266 235.398 318.808 235.398 309.316Z" fill="#001D9F"/>
<mask id="mask8_859_119" style="mask-type:luminance" maskUnits="userSpaceOnUse" x="235" y="280" width="15" height="56">
<path d="M235.398 309.316V280.61C235.398 290.101 240.604 299.56 249.75 306.703V335.409C240.604 328.265 235.398 318.807 235.398 309.316Z" fill="white"/>
</mask>
<g mask="url(#mask8_859_119)">
<path d="M249.789 306.671V335.377C240.644 328.266 235.438 318.808 235.438 309.283V280.578C235.403 290.102 240.609 299.56 249.789 306.671Z" fill="#001D9F"/>
</g>
<path d="M50.2812 336.765V308.059C50.2812 305.38 52.4622 302.801 56.7185 300.486V329.192C52.427 331.507 50.2812 334.086 50.2812 336.765Z" fill="#001D9F"/>
<mask id="mask9_859_119" style="mask-type:luminance" maskUnits="userSpaceOnUse" x="50" y="300" width="7" height="37">
<path d="M50.2812 336.766V308.06C50.2812 305.381 52.4622 302.802 56.7185 300.487V329.193C52.427 331.508 50.2812 334.087 50.2812 336.766Z" fill="white"/>
</mask>
<g mask="url(#mask9_859_119)">
<path d="M56.7098 300.487V329.193C54.564 330.35 52.9459 331.574 51.8906 332.83V304.125C52.9459 302.868 54.564 301.644 56.7098 300.487Z" fill="#001D9F"/>
<path d="M51.8639 304.124V332.829C51.4417 333.325 51.09 333.855 50.8438 334.384V305.678C51.1252 305.149 51.4417 304.653 51.8639 304.124Z" fill="#001D9F"/>
<path d="M50.8401 305.68V334.386C50.629 334.783 50.4883 335.213 50.3828 335.61V306.904C50.4883 306.507 50.629 306.077 50.8401 305.68Z" fill="#001D9F"/>
<path d="M50.3829 306.904V335.61C50.2774 335.974 50.2422 336.371 50.2422 336.768V308.062C50.2774 307.665 50.3125 307.301 50.3829 306.904Z" fill="#001D9F"/>
</g>
<path d="M4.05469 335.87V307.165C4.05469 314.606 8.62755 322.113 17.914 329.322V358.028C8.62755 350.818 4.05469 343.344 4.05469 335.87Z" fill="#001D9F"/>
<mask id="mask10_859_119" style="mask-type:luminance" maskUnits="userSpaceOnUse" x="4" y="307" width="14" height="52">
<path d="M4.04688 335.87V307.164C4.04688 314.605 8.61974 322.112 17.9062 329.322V358.028C8.61974 350.818 4.04688 343.344 4.04688 335.87Z" fill="white"/>
</mask>
<g mask="url(#mask10_859_119)">
<path d="M17.9062 329.322V358.028C8.61974 350.785 4.04688 343.311 4.04688 335.87V307.164C4.04687 314.605 8.61974 322.112 17.9062 329.322Z" fill="#001D9F"/>
</g>
<path d="M284.058 333.293V361.999L249.797 335.41V306.671L284.058 333.293Z" fill="#001D9F"/>
<path d="M401.621 270.458V299.163L284.062 361.998V333.293L401.621 270.458Z" fill="#001D9F"/>
<path d="M32.5825 340.733V369.439L17.9141 358.062V329.323L32.5825 340.733Z" fill="#001D9F"/>
<g filter="url(#filter6_d_859_119)">
<path d="M165.121 342.189V370.895C162.412 368.778 159.247 367.885 155.272 367.885C154.111 367.885 152.88 367.952 151.578 368.117V339.411C152.88 339.279 154.111 339.18 155.272 339.18C159.247 339.18 162.412 340.073 165.121 342.189Z" fill="#001D9F"/>
</g>
<mask id="mask11_859_119" style="mask-type:luminance" maskUnits="userSpaceOnUse" x="151" y="339" width="15" height="32">
<path d="M165.113 342.189V370.894C162.405 368.778 159.239 367.885 155.264 367.885C154.103 367.885 152.872 367.951 151.57 368.116V339.411C152.872 339.278 154.103 339.179 155.264 339.179C159.239 339.179 162.405 340.072 165.113 342.189Z" fill="white"/>
</mask>
<g mask="url(#mask11_859_119)">
<path d="M165.113 342.189V370.894C162.405 368.778 159.239 367.885 155.264 367.885C154.103 367.885 152.872 367.951 151.57 368.116V339.411C152.872 339.278 154.103 339.179 155.264 339.179C159.239 339.179 162.405 340.072 165.113 342.189Z" fill="#001D9F"/>
</g>
<g filter="url(#filter7_d_859_119)">
<path d="M170.296 346.191V374.897L165.125 370.895V342.189L170.296 346.191Z" fill="#001D9F"/>
</g>
<g filter="url(#filter8_d_859_119)">
<path d="M151.588 339.377V368.116L72.1953 378.07V349.364L151.588 339.377Z" fill="#001D9F"/>
</g>
<g filter="url(#filter9_d_859_119)">
<path d="M72.1941 349.364V378.069C67.973 378.632 64.174 378.929 60.6916 378.929C48.591 378.929 40.4654 375.556 32.5859 369.471V340.765C40.4654 346.883 48.591 350.223 60.6916 350.223C64.1388 350.19 67.973 349.926 72.1941 349.364Z" fill="#001D9F"/>
</g>
<g filter="url(#filter10_d_859_119)">
<mask id="mask12_859_119" style="mask-type:luminance" maskUnits="userSpaceOnUse" x="32" y="340" width="41" height="39">
<path d="M72.1941 349.363V378.069C67.973 378.631 64.174 378.929 60.6916 378.929C48.591 378.929 40.4654 375.556 32.5859 369.47V340.765C40.4654 346.883 48.591 350.223 60.6916 350.223C64.1388 350.19 67.973 349.925 72.1941 349.363Z" fill="white"/>
</mask>
<g mask="url(#mask12_859_119)">
<path d="M72.1941 349.363V378.069C67.973 378.631 64.174 378.929 60.6916 378.929C48.591 378.929 40.4654 375.556 32.5859 369.47V340.765C40.4654 346.883 48.591 350.223 60.6916 350.223C64.1388 350.19 67.973 349.925 72.1941 349.363Z" fill="#001D9F"/>
</g>
</g>
<g filter="url(#filter11_d_859_119)">
<path d="M174.42 352.474V381.18C174.42 379.163 173.084 377.046 170.305 374.897V346.191C173.084 348.341 174.42 350.424 174.42 352.474Z" fill="#001D9F"/>
</g>
<mask id="mask13_859_119" style="mask-type:luminance" maskUnits="userSpaceOnUse" x="170" y="346" width="5" height="36">
<path d="M174.428 352.475V381.181C174.428 379.164 173.091 377.047 170.312 374.898V346.192C173.091 348.342 174.428 350.425 174.428 352.475Z" fill="white"/>
</mask>
<g mask="url(#mask13_859_119)">
<path d="M174.428 352.475V381.181C174.428 379.164 173.091 377.047 170.312 374.898V346.192C173.091 348.342 174.428 350.425 174.428 352.475Z" fill="#001D9F"/>
</g>
<g filter="url(#filter12_d_859_119)">
<path d="M220.597 353.5V382.206C220.597 392.755 211.416 403.239 193.547 412.797V384.091C211.416 374.533 220.597 364.05 220.597 353.5Z" fill="#001D9F"/>
</g>
<g filter="url(#filter13_d_859_119)">
<mask id="mask14_859_119" style="mask-type:luminance" maskUnits="userSpaceOnUse" x="193" y="353" width="28" height="60">
<path d="M220.589 353.5V382.206C220.589 392.756 211.408 403.24 193.539 412.797V384.091C211.408 374.534 220.589 364.05 220.589 353.5Z" fill="white"/>
</mask>
<g mask="url(#mask14_859_119)">
<path d="M220.586 353.5V382.206C220.586 383.628 220.41 385.05 220.094 386.472V357.767C220.41 356.345 220.586 354.923 220.586 353.5Z" fill="#001D9F"/>
<path d="M220.106 357.767V386.472C219.719 388.06 219.157 389.647 218.383 391.235V362.529C219.157 360.941 219.719 359.354 220.106 357.767Z" fill="#001D9F"/>
<path d="M218.381 362.495V391.2C217.361 393.218 216.024 395.235 214.336 397.252V368.547C216.024 366.562 217.361 364.545 218.381 362.495Z" fill="#001D9F"/>
<path d="M214.332 368.547V397.253C209.794 402.611 202.865 407.836 193.578 412.797V384.091C202.865 379.13 209.794 373.905 214.332 368.547Z" fill="#001D9F"/>
</g>
</g>
<g filter="url(#filter14_d_859_119)">
<path d="M193.547 384.091V412.797L131.461 446V417.261L193.547 384.091Z" fill="#001D9F"/>
</g>
<g filter="url(#filter15_d_859_119)">
<path d="M131.473 417.258V445.997L102.594 423.542V394.803L131.473 417.258Z" fill="#001D9F"/>
</g>
<path d="M446.287 87.7048V116.411C440.905 112.244 434.573 110.127 428.312 110.127C423.985 110.127 419.729 111.152 415.859 113.236V84.4969C419.729 82.4134 423.985 81.3882 428.312 81.3882C434.573 81.4213 440.905 83.5378 446.287 87.7048Z" fill="#0055D5"/>
<mask id="mask15_859_119" style="mask-type:luminance" maskUnits="userSpaceOnUse" x="415" y="81" width="32" height="36">
<path d="M446.294 87.7043V116.41C440.913 112.243 434.581 110.127 428.319 110.127C423.993 110.127 419.737 111.152 415.867 113.235V84.4964C419.737 82.4129 423.993 81.3877 428.319 81.3877C434.581 81.4208 440.913 83.5373 446.294 87.7043Z" fill="white"/>
</mask>
<g mask="url(#mask15_859_119)">
<path d="M446.294 87.7043V116.41C440.913 112.243 434.581 110.127 428.319 110.127C423.993 110.127 419.737 111.152 415.867 113.235V84.4964C419.737 82.4129 423.993 81.3877 428.319 81.3877C434.581 81.4208 440.913 83.5373 446.294 87.7043Z" fill="#0055D5"/>
</g>
<path d="M415.863 84.498V113.237L367.602 139.032V110.294L415.863 84.498Z" fill="#0055D5"/>
<path d="M503.478 132.153V160.859L446.281 116.411V87.7056L503.478 132.153Z" fill="#0055D5"/>
<path d="M510.164 142.536V171.242C510.164 167.901 507.983 164.33 503.516 160.857V132.151C507.983 135.624 510.164 139.196 510.164 142.536Z" fill="#0055D5"/>
<mask id="mask16_859_119" style="mask-type:luminance" maskUnits="userSpaceOnUse" x="503" y="132" width="8" height="40">
<path d="M510.172 142.536V171.242C510.172 167.901 507.991 164.33 503.523 160.857V132.151C507.991 135.624 510.172 139.196 510.172 142.536Z" fill="white"/>
</mask>
<g mask="url(#mask16_859_119)">
<path d="M510.172 142.536V171.242C510.172 167.901 507.991 164.33 503.523 160.857V132.151C507.991 135.624 510.172 139.196 510.172 142.536Z" fill="#0055D5"/>
</g>
<path d="M553.993 144.256V172.962C553.993 184.339 546.536 195.219 531.656 203.189V174.45C546.536 166.513 553.993 155.6 553.993 144.256Z" fill="#0055D5"/>
<mask id="mask17_859_119" style="mask-type:luminance" maskUnits="userSpaceOnUse" x="531" y="144" width="23" height="60">
<path d="M554.001 144.256V172.962C554.001 184.338 546.544 195.219 531.664 203.189V174.45C546.544 166.513 554.001 155.599 554.001 144.256Z" fill="white"/>
</mask>
<g mask="url(#mask17_859_119)">
<path d="M553.996 144.256V172.962C553.996 174.946 553.785 176.93 553.328 178.881V150.176C553.785 148.191 553.996 146.24 553.996 144.256Z" fill="#0055D5"/>
<path d="M553.329 150.144V178.849C552.837 180.867 552.133 182.884 551.148 184.835V156.129C552.133 154.178 552.837 152.194 553.329 150.144Z" fill="#0055D5"/>
<path d="M551.151 156.128V184.834C550.025 187.116 548.548 189.331 546.719 191.481V162.775C548.548 160.659 550.025 158.41 551.151 156.128Z" fill="#0055D5"/>
<path d="M546.719 162.774V191.48C543.061 195.779 538.066 199.748 531.664 203.154V174.449C538.066 171.042 543.096 167.074 546.719 162.774Z" fill="#0055D5"/>
</g>
<path d="M260.939 181.923V210.628C257.843 208.214 254.326 207.024 250.914 207.024C248.627 207.024 246.376 207.553 244.336 208.644V179.938C246.376 178.847 248.627 178.318 250.914 178.318C254.361 178.318 257.879 179.508 260.939 181.923Z" fill="#0055D5"/>
<mask id="mask18_859_119" style="mask-type:luminance" maskUnits="userSpaceOnUse" x="244" y="178" width="17" height="33">
<path d="M260.939 181.922V210.627C257.843 208.213 254.326 207.023 250.914 207.023C248.627 207.023 246.376 207.552 244.336 208.643V179.937C246.376 178.846 248.627 178.317 250.914 178.317C254.361 178.317 257.879 179.507 260.939 181.922Z" fill="white"/>
</mask>
<g mask="url(#mask18_859_119)">
<path d="M260.939 181.922V210.627C257.843 208.213 254.326 207.023 250.914 207.023C248.627 207.023 246.376 207.552 244.336 208.643V179.937C246.376 178.846 248.627 178.317 250.914 178.317C254.361 178.317 257.879 179.507 260.939 181.922Z" fill="#0055D5"/>
</g>
<path d="M267.981 187.349V216.088L260.945 210.632V181.926L267.981 187.349Z" fill="#0055D5"/>
<path d="M270.552 191.35V220.056C270.552 218.7 269.743 217.443 267.984 216.054V187.348C269.743 188.737 270.552 189.994 270.552 191.35Z" fill="#0055D5"/>
<mask id="mask19_859_119" style="mask-type:luminance" maskUnits="userSpaceOnUse" x="267" y="187" width="4" height="34">
<path d="M270.544 191.35V220.056C270.544 218.7 269.735 217.443 267.977 216.054V187.348C269.735 188.737 270.544 189.994 270.544 191.35Z" fill="white"/>
</mask>
<g mask="url(#mask19_859_119)">
<path d="M270.544 191.35V220.056C270.544 218.7 269.735 217.443 267.977 216.054V187.348C269.735 188.737 270.544 189.994 270.544 191.35Z" fill="#0055D5"/>
</g>
<path d="M244.382 179.939V208.645L203.789 230.34V201.634L244.382 179.939Z" fill="#0055D5"/>
<path d="M315.724 192.077V220.782C315.724 224.189 314.704 227.661 312.453 231.035V202.329C314.669 198.955 315.724 195.483 315.724 192.077Z" fill="#0055D5"/>
<mask id="mask20_859_119" style="mask-type:luminance" maskUnits="userSpaceOnUse" x="312" y="192" width="4" height="40">
<path d="M315.724 192.076V220.782C315.724 224.188 314.704 227.661 312.453 231.034V202.328C314.669 198.955 315.724 195.483 315.724 192.076Z" fill="white"/>
</mask>
<g mask="url(#mask20_859_119)">
<path d="M315.731 192.076V220.782C315.731 222.072 315.59 223.362 315.273 224.651V195.946C315.555 194.656 315.731 193.366 315.731 192.076Z" fill="#0055D5"/>
<path d="M315.266 195.945V224.651C314.95 226.007 314.457 227.363 313.789 228.686V199.98C314.457 198.624 314.95 197.301 315.266 195.945Z" fill="#0055D5"/>
<path d="M313.79 199.979V228.685C313.403 229.478 312.946 230.239 312.453 231V202.294C312.946 201.533 313.403 200.773 313.79 199.979Z" fill="#0055D5"/>
</g>
<path d="M203.779 201.636V230.342C197.201 233.848 193.648 236.592 186.859 244.827V216.121C193.648 207.887 197.201 205.142 203.779 201.636Z" fill="#0055D5"/>
<mask id="mask21_859_119" style="mask-type:luminance" maskUnits="userSpaceOnUse" x="186" y="201" width="18" height="44">
<path d="M203.779 201.636V230.342C197.201 233.847 193.648 236.592 186.859 244.827V216.121C193.648 207.886 197.201 205.141 203.779 201.636Z" fill="white"/>
</mask>
<g mask="url(#mask21_859_119)">
<path d="M203.782 201.636V230.342C197.591 233.649 194.074 236.261 188.023 243.471V214.765C194.074 207.555 197.591 204.943 203.782 201.636Z" fill="#0055D5"/>
<path d="M188.024 214.764V243.47C187.672 243.9 187.285 244.363 186.898 244.826V216.12C187.285 215.657 187.637 215.194 188.024 214.764Z" fill="#0055D5"/>
</g>
<path d="M186.866 216.119V244.824L153.836 228.653V199.947L186.866 216.119Z" fill="#0055D5"/>
<path d="M450.511 217.841V246.547L306.008 134.303V105.598L450.511 217.841Z" fill="#0055D5"/>
<path d="M531.667 174.45V203.189L450.516 246.545V217.839L531.667 174.45Z" fill="#0055D5"/>
<path d="M312.436 202.295V231.034L279.758 280.442V251.736L312.436 202.295Z" fill="#0055D5"/>
<path d="M278.562 284.411V255.705C278.562 254.415 278.949 253.092 279.758 251.77V280.475C278.949 281.798 278.562 283.088 278.562 284.411Z" fill="#0055D5"/>
<mask id="mask22_859_119" style="mask-type:luminance" maskUnits="userSpaceOnUse" x="278" y="251" width="2" height="34">
<path d="M278.57 284.411V255.705C278.57 254.416 278.957 253.093 279.766 251.77V280.476C278.957 281.799 278.57 283.088 278.57 284.411Z" fill="white"/>
</mask>
<g mask="url(#mask22_859_119)">
<path d="M279.766 251.737V280.443C279.625 280.675 279.52 280.906 279.414 281.105V252.399C279.52 252.167 279.625 251.969 279.766 251.737Z" fill="#0055D5"/>
<path d="M279.407 252.399V281.105C279.125 281.7 278.879 282.296 278.773 282.891V254.185C278.879 253.59 279.09 252.995 279.407 252.399Z" fill="#0055D5"/>
<path d="M278.746 254.186V282.891C278.641 283.387 278.57 283.883 278.57 284.413V255.707C278.57 255.178 278.641 254.682 278.746 254.186Z" fill="#0055D5"/>
</g>
<path d="M115.955 242.377V271.083L56.7188 302.765V274.027L115.955 242.377Z" fill="#0055D5"/>
<path d="M235.398 282.859V254.153C235.398 263.644 240.604 273.103 249.75 280.246V308.952C240.604 301.808 235.398 292.35 235.398 282.859Z" fill="#0055D5"/>
<mask id="mask23_859_119" style="mask-type:luminance" maskUnits="userSpaceOnUse" x="235" y="254" width="15" height="55">
<path d="M235.398 282.859V254.153C235.398 263.644 240.604 273.103 249.75 280.246V308.952C240.604 301.808 235.398 292.35 235.398 282.859Z" fill="white"/>
</mask>
<g mask="url(#mask23_859_119)">
<path d="M249.789 280.213V308.919C240.644 301.808 235.438 292.35 235.438 282.826V254.153C235.403 263.644 240.609 273.103 249.789 280.213Z" fill="#0055D5"/>
</g>
<path d="M50.2812 310.307V281.601C50.2812 278.922 52.4622 276.343 56.7185 274.028V302.734C52.427 305.049 50.2812 307.628 50.2812 310.307Z" fill="#0055D5"/>
<mask id="mask24_859_119" style="mask-type:luminance" maskUnits="userSpaceOnUse" x="50" y="274" width="7" height="37">
<path d="M50.2812 310.307V281.602C50.2812 278.923 52.4622 276.343 56.7185 274.028V302.734C52.427 305.049 50.2812 307.629 50.2812 310.307Z" fill="white"/>
</mask>
<g mask="url(#mask24_859_119)">
<path d="M56.7098 274.028V302.734C54.564 303.892 52.9459 305.115 51.8906 306.372V277.666C52.9459 276.409 54.564 275.186 56.7098 274.028Z" fill="#0055D5"/>
<path d="M51.8639 277.665V306.371C51.4417 306.867 51.09 307.396 50.8438 307.925V279.219C51.1252 278.69 51.4417 278.194 51.8639 277.665Z" fill="#0055D5"/>
<path d="M50.8401 279.222V307.927C50.629 308.324 50.4883 308.754 50.3828 309.151V280.445C50.4883 280.048 50.629 279.619 50.8401 279.222Z" fill="#0055D5"/>
<path d="M50.3829 280.446V309.152C50.2774 309.515 50.2422 309.912 50.2422 310.309V281.603C50.2774 281.206 50.3125 280.843 50.3829 280.446Z" fill="#0055D5"/>
</g>
<path d="M4.05469 309.412V280.707C4.05469 288.148 8.62755 295.655 17.914 302.864V331.57C8.62755 324.36 4.05469 316.886 4.05469 309.412Z" fill="#0055D5"/>
<mask id="mask25_859_119" style="mask-type:luminance" maskUnits="userSpaceOnUse" x="4" y="280" width="14" height="52">
<path d="M4.04688 309.412V280.707C4.04688 288.148 8.61974 295.655 17.9062 302.864V331.57C8.61974 324.36 4.04688 316.886 4.04688 309.412Z" fill="white"/>
</mask>
<g mask="url(#mask25_859_119)">
<path d="M17.9062 302.864V331.57C8.61974 324.327 4.04688 316.853 4.04688 309.412V280.707C4.04687 288.148 8.61974 295.655 17.9062 302.864Z" fill="#0055D5"/>
</g>
<path d="M284.058 306.835V335.54L249.797 308.951V280.212L284.058 306.835Z" fill="#0055D5"/>
<path d="M401.621 243.999V272.705L284.062 335.54V306.834L401.621 243.999Z" fill="#0055D5"/>
<path d="M32.5825 314.274V342.98L17.9141 331.604V302.865L32.5825 314.274Z" fill="#0055D5"/>
<path d="M165.121 315.731V344.437C162.412 342.32 159.247 341.427 155.272 341.427C154.111 341.427 152.88 341.494 151.578 341.659V312.953C152.88 312.821 154.111 312.722 155.272 312.722C159.247 312.722 162.412 313.615 165.121 315.731Z" fill="#0055D5"/>
<mask id="mask26_859_119" style="mask-type:luminance" maskUnits="userSpaceOnUse" x="151" y="312" width="15" height="33">
<path d="M165.113 315.731V344.437C162.405 342.32 159.239 341.427 155.264 341.427C154.103 341.427 152.872 341.494 151.57 341.659V312.953C152.872 312.821 154.103 312.722 155.264 312.722C159.239 312.722 162.405 313.615 165.113 315.731Z" fill="white"/>
</mask>
<g mask="url(#mask26_859_119)">
<path d="M165.113 315.731V344.437C162.405 342.32 159.239 341.427 155.264 341.427C154.103 341.427 152.872 341.494 151.57 341.659V312.953C152.872 312.821 154.103 312.722 155.264 312.722C159.239 312.722 162.405 313.615 165.113 315.731Z" fill="#0055D5"/>
</g>
<path d="M170.296 319.734V348.439L165.125 344.438V315.732L170.296 319.734Z" fill="#0055D5"/>
<path d="M151.588 312.919V341.658L72.1953 351.612V322.906L151.588 312.919Z" fill="#0055D5"/>
<path d="M72.1941 322.906V351.612C67.973 352.174 64.174 352.472 60.6916 352.472C48.591 352.472 40.4654 349.098 32.5859 343.013V314.308C40.4654 320.426 48.591 323.766 60.6916 323.766C64.1388 323.733 67.973 323.468 72.1941 322.906Z" fill="#0055D5"/>
<mask id="mask27_859_119" style="mask-type:luminance" maskUnits="userSpaceOnUse" x="32" y="314" width="41" height="39">
<path d="M72.1941 322.906V351.611C67.973 352.174 64.174 352.471 60.6916 352.471C48.591 352.471 40.4654 349.098 32.5859 343.013V314.307C40.4654 320.425 48.591 323.765 60.6916 323.765C64.1388 323.732 67.973 323.468 72.1941 322.906Z" fill="white"/>
</mask>
<g mask="url(#mask27_859_119)">
<path d="M72.1941 322.906V351.611C67.973 352.174 64.174 352.471 60.6916 352.471C48.591 352.471 40.4654 349.098 32.5859 343.013V314.307C40.4654 320.425 48.591 323.765 60.6916 323.765C64.1388 323.732 67.973 323.468 72.1941 322.906Z" fill="#0055D5"/>
</g>
<path d="M174.42 326.017V354.723C174.42 352.705 173.084 350.589 170.305 348.439V319.733C173.084 321.883 174.42 323.966 174.42 326.017Z" fill="#0055D5"/>
<mask id="mask28_859_119" style="mask-type:luminance" maskUnits="userSpaceOnUse" x="170" y="319" width="5" height="36">
<path d="M174.428 326.017V354.723C174.428 352.705 173.091 350.589 170.312 348.439V319.733C173.091 321.883 174.428 323.966 174.428 326.017Z" fill="white"/>
</mask>
<g mask="url(#mask28_859_119)">
<path d="M174.428 326.017V354.723C174.428 352.705 173.091 350.589 170.312 348.439V319.733C173.091 321.883 174.428 323.966 174.428 326.017Z" fill="#0055D5"/>
</g>
<path d="M220.597 327.042V355.747C220.597 366.297 211.416 376.781 193.547 386.338V357.632C211.416 348.075 220.597 337.591 220.597 327.042Z" fill="#0055D5"/>
<mask id="mask29_859_119" style="mask-type:luminance" maskUnits="userSpaceOnUse" x="193" y="327" width="28" height="60">
<path d="M220.589 327.041V355.747C220.589 366.296 211.408 376.78 193.539 386.338V357.632C211.408 348.074 220.589 337.591 220.589 327.041Z" fill="white"/>
</mask>
<g mask="url(#mask29_859_119)">
<path d="M220.586 327.041V355.747C220.586 357.169 220.41 358.591 220.094 360.013V331.307C220.41 329.885 220.586 328.463 220.586 327.041Z" fill="#0055D5"/>
<path d="M220.106 331.307V360.013C219.719 361.6 219.157 363.188 218.383 364.775V336.069C219.157 334.482 219.719 332.895 220.106 331.307Z" fill="#0055D5"/>
<path d="M218.381 336.035V364.741C217.361 366.758 216.024 368.776 214.336 370.793V342.087C216.024 340.103 217.361 338.086 218.381 336.035Z" fill="#0055D5"/>
<path d="M214.332 342.088V370.794C209.794 376.151 202.865 381.376 193.578 386.337V357.631C202.865 352.671 209.794 347.445 214.332 342.088Z" fill="#0055D5"/>
</g>
<path d="M193.547 357.633V386.339L131.461 419.542V390.803L193.547 357.633Z" fill="#0055D5"/>
<path d="M131.473 390.801V419.539L102.594 397.084V368.345L131.473 390.801Z" fill="#0055D5"/>
<path d="M446.287 61.2502V89.956C440.905 85.789 434.573 83.6724 428.312 83.6724C423.985 83.6724 419.729 84.6977 415.859 86.7811V58.0423C419.729 55.9588 423.985 54.9336 428.312 54.9336C434.573 54.9667 440.905 57.0832 446.287 61.2502Z" fill="#00B3FE"/>
<mask id="mask30_859_119" style="mask-type:luminance" maskUnits="userSpaceOnUse" x="415" y="54" width="32" height="36">
<path d="M446.294 61.2507V89.9565C440.913 85.7895 434.581 83.6729 428.319 83.6729C423.993 83.6729 419.737 84.6981 415.867 86.7816V58.0428C419.737 55.9593 423.993 54.9341 428.319 54.9341C434.581 54.9672 440.913 57.0837 446.294 61.2507Z" fill="white"/>
</mask>
<g mask="url(#mask30_859_119)">
<path d="M446.294 61.2507V89.9565C440.913 85.7895 434.581 83.6729 428.319 83.6729C423.993 83.6729 419.737 84.6981 415.867 86.7816V58.0428C419.737 55.9593 423.993 54.9341 428.319 54.9341C434.581 54.9672 440.913 57.0837 446.294 61.2507Z" fill="#00B3FE"/>
</g>
<path d="M415.863 58.0435V86.7823L367.602 112.578V83.839L415.863 58.0435Z" fill="#00B3FE"/>
<path d="M503.478 105.698V134.404L446.281 89.9563V61.2505L503.478 105.698Z" fill="#00B3FE"/>
<path d="M510.164 116.081V144.786C510.164 141.446 507.983 137.875 503.516 134.402V105.696C507.983 109.169 510.164 112.74 510.164 116.081Z" fill="#00B3FE"/>
<mask id="mask31_859_119" style="mask-type:luminance" maskUnits="userSpaceOnUse" x="503" y="105" width="8" height="40">
<path d="M510.172 116.08V144.785C510.172 141.445 507.991 137.874 503.523 134.401V105.695C507.991 109.168 510.172 112.739 510.172 116.08Z" fill="white"/>
</mask>
<g mask="url(#mask31_859_119)">
<path d="M510.172 116.08V144.785C510.172 141.445 507.991 137.874 503.523 134.401V105.695C507.991 109.168 510.172 112.739 510.172 116.08Z" fill="#00B3FE"/>
</g>
<path d="M553.993 117.801V146.507C553.993 157.883 546.536 168.763 531.656 176.734V147.995C546.536 140.058 553.993 129.144 553.993 117.801Z" fill="#00B3FE"/>
<mask id="mask32_859_119" style="mask-type:luminance" maskUnits="userSpaceOnUse" x="531" y="117" width="23" height="60">
<path d="M554.001 117.8V146.506C554.001 157.883 546.544 168.763 531.664 176.733V147.994C546.544 140.057 554.001 129.144 554.001 117.8Z" fill="white"/>
</mask>
<g mask="url(#mask32_859_119)">
<path d="M553.996 117.8V146.506C553.996 148.49 553.785 150.475 553.328 152.426V123.72C553.785 121.736 553.996 119.785 553.996 117.8Z" fill="#00B3FE"/>
<path d="M553.329 123.688V152.394C552.837 154.411 552.133 156.428 551.148 158.38V129.674C552.133 127.723 552.837 125.738 553.329 123.688Z" fill="#00B3FE"/>
<path d="M551.151 129.672V158.378C550.025 160.66 548.548 162.876 546.719 165.025V136.32C548.548 134.203 550.025 131.954 551.151 129.672Z" fill="#00B3FE"/>
<path d="M546.719 136.319V165.025C543.061 169.324 538.066 173.292 531.664 176.699V147.993C538.066 144.587 543.096 140.618 546.719 136.319Z" fill="#00B3FE"/>
</g>
<path d="M260.939 155.469V184.174C257.843 181.76 254.326 180.57 250.914 180.57C248.627 180.57 246.376 181.099 244.336 182.19V153.484C246.376 152.393 248.627 151.864 250.914 151.864C254.361 151.864 257.879 153.054 260.939 155.469Z" fill="#00B3FE"/>
<mask id="mask33_859_119" style="mask-type:luminance" maskUnits="userSpaceOnUse" x="244" y="151" width="17" height="34">
<path d="M260.939 155.468V184.174C257.843 181.76 254.326 180.569 250.914 180.569C248.627 180.569 246.376 181.098 244.336 182.19V153.484C246.376 152.392 248.627 151.863 250.914 151.863C254.361 151.863 257.879 153.054 260.939 155.468Z" fill="white"/>
</mask>
<g mask="url(#mask33_859_119)">
<path d="M260.939 155.468V184.174C257.843 181.76 254.326 180.569 250.914 180.569C248.627 180.569 246.376 181.098 244.336 182.19V153.484C246.376 152.392 248.627 151.863 250.914 151.863C254.361 151.863 257.879 153.054 260.939 155.468Z" fill="#00B3FE"/>
</g>
<path d="M267.981 160.894V189.633L260.945 184.176V155.471L267.981 160.894Z" fill="#00B3FE"/>
<path d="M270.552 164.896V193.601C270.552 192.246 269.743 190.989 267.984 189.6V160.894C269.743 162.283 270.552 163.54 270.552 164.896Z" fill="#00B3FE"/>
<mask id="mask34_859_119" style="mask-type:luminance" maskUnits="userSpaceOnUse" x="267" y="160" width="4" height="34">
<path d="M270.544 164.896V193.602C270.544 192.246 269.735 190.989 267.977 189.6V160.895C269.735 162.284 270.544 163.54 270.544 164.896Z" fill="white"/>
</mask>
<g mask="url(#mask34_859_119)">
<path d="M270.544 164.896V193.602C270.544 192.246 269.735 190.989 267.977 189.6V160.895C269.735 162.284 270.544 163.54 270.544 164.896Z" fill="#00B3FE"/>
</g>
<path d="M244.382 153.485V182.191L203.789 203.885V175.18L244.382 153.485Z" fill="#00B3FE"/>
<path d="M315.724 165.622V194.327C315.724 197.734 314.704 201.206 312.453 204.579V175.874C314.669 172.5 315.724 169.028 315.724 165.622Z" fill="#00B3FE"/>
<mask id="mask35_859_119" style="mask-type:luminance" maskUnits="userSpaceOnUse" x="312" y="165" width="4" height="40">
<path d="M315.724 165.622V194.328C315.724 197.734 314.704 201.207 312.453 204.58V175.874C314.669 172.501 315.724 169.028 315.724 165.622Z" fill="white"/>
</mask>
<g mask="url(#mask35_859_119)">
<path d="M315.731 165.622V194.328C315.731 195.618 315.59 196.907 315.273 198.197V169.491C315.555 168.202 315.731 166.912 315.731 165.622Z" fill="#00B3FE"/>
<path d="M315.266 169.491V198.197C314.95 199.553 314.457 200.909 313.789 202.232V173.526C314.457 172.17 314.95 170.847 315.266 169.491Z" fill="#00B3FE"/>
<path d="M313.79 173.525V202.231C313.403 203.024 312.946 203.785 312.453 204.546V175.84C312.946 175.079 313.403 174.319 313.79 173.525Z" fill="#00B3FE"/>
</g>
<path d="M203.779 175.182V203.887C197.201 207.393 193.648 210.138 186.859 218.373V189.667C193.648 181.432 197.201 178.687 203.779 175.182Z" fill="#00B3FE"/>
<mask id="mask36_859_119" style="mask-type:luminance" maskUnits="userSpaceOnUse" x="186" y="175" width="18" height="44">
<path d="M203.779 175.182V203.887C197.201 207.393 193.648 210.138 186.859 218.373V189.667C193.648 181.432 197.201 178.687 203.779 175.182Z" fill="white"/>
</mask>
<g mask="url(#mask36_859_119)">
<path d="M203.782 175.182V203.887C197.591 207.195 194.074 209.807 188.023 217.017V188.311C194.074 181.101 197.591 178.489 203.782 175.182Z" fill="#00B3FE"/>
<path d="M188.024 188.31V217.016C187.672 217.446 187.285 217.909 186.898 218.372V189.666C187.285 189.203 187.637 188.74 188.024 188.31Z" fill="#00B3FE"/>
</g>
<path d="M186.866 189.664V218.37L153.836 202.198V173.492L186.866 189.664Z" fill="#00B3FE"/>
<path d="M450.511 191.386V220.092L306.008 107.848V79.1426L450.511 191.386Z" fill="#00B3FE"/>
<path d="M531.667 147.994V176.733L450.516 220.089V191.384L531.667 147.994Z" fill="#00B3FE"/>
<path d="M312.436 175.84V204.579L279.758 253.987V225.282L312.436 175.84Z" fill="#00B3FE"/>
<path d="M278.562 257.955V229.249C278.562 227.96 278.949 226.637 279.758 225.314V254.02C278.949 255.343 278.562 256.632 278.562 257.955Z" fill="#00B3FE"/>
<mask id="mask37_859_119" style="mask-type:luminance" maskUnits="userSpaceOnUse" x="278" y="225" width="2" height="33">
<path d="M278.57 257.955V229.249C278.57 227.96 278.957 226.637 279.766 225.314V254.02C278.957 255.343 278.57 256.632 278.57 257.955Z" fill="white"/>
</mask>
<g mask="url(#mask37_859_119)">
<path d="M279.766 225.282V253.988C279.625 254.22 279.52 254.451 279.414 254.649V225.944C279.52 225.712 279.625 225.514 279.766 225.282Z" fill="#00B3FE"/>
<path d="M279.407 225.944V254.65C279.125 255.245 278.879 255.841 278.773 256.436V227.73C278.879 227.135 279.09 226.54 279.407 225.944Z" fill="#00B3FE"/>
<path d="M278.746 227.73V256.436C278.641 256.932 278.57 257.428 278.57 257.958V229.252C278.57 228.723 278.641 228.227 278.746 227.73Z" fill="#00B3FE"/>
</g>
<path d="M115.955 215.923V244.629L56.7188 276.311V247.572L115.955 215.923Z" fill="#00B3FE"/>
<path d="M235.398 256.404V227.698C235.398 237.189 240.604 246.648 249.75 253.791V282.497C240.604 275.353 235.398 265.895 235.398 256.404Z" fill="#00B3FE"/>
<mask id="mask38_859_119" style="mask-type:luminance" maskUnits="userSpaceOnUse" x="235" y="227" width="15" height="56">
<path d="M235.398 256.403V227.697C235.398 237.188 240.604 246.647 249.75 253.79V282.496C240.604 275.352 235.398 265.894 235.398 256.403Z" fill="white"/>
</mask>
<g mask="url(#mask38_859_119)">
<path d="M249.789 253.757V282.463C240.644 275.352 235.438 265.894 235.438 256.369V227.697C235.403 237.188 240.609 246.647 249.789 253.757Z" fill="#00B3FE"/>
</g>
<path d="M50.2812 283.852V255.146C50.2812 252.467 52.4622 249.888 56.7185 247.573V276.279C52.427 278.593 50.2812 281.173 50.2812 283.852Z" fill="#00B3FE"/>
<mask id="mask39_859_119" style="mask-type:luminance" maskUnits="userSpaceOnUse" x="50" y="247" width="7" height="37">
<path d="M50.2812 283.853V255.147C50.2812 252.468 52.4622 249.889 56.7185 247.574V276.279C52.427 278.594 50.2812 281.174 50.2812 283.853Z" fill="white"/>
</mask>
<g mask="url(#mask39_859_119)">
<path d="M56.7098 247.574V276.279C54.564 277.437 52.9459 278.661 51.8906 279.917V251.212C52.9459 249.955 54.564 248.731 56.7098 247.574Z" fill="#00B3FE"/>
<path d="M51.8639 251.21V279.916C51.4417 280.412 51.09 280.941 50.8438 281.471V252.765C51.1252 252.236 51.4417 251.74 51.8639 251.21Z" fill="#00B3FE"/>
<path d="M50.8401 252.767V281.473C50.629 281.87 50.4883 282.3 50.3828 282.696V253.991C50.4883 253.594 50.629 253.164 50.8401 252.767Z" fill="#00B3FE"/>
<path d="M50.3829 253.991V282.697C50.2774 283.061 50.2422 283.458 50.2422 283.854V255.149C50.2774 254.752 50.3125 254.388 50.3829 253.991Z" fill="#00B3FE"/>
</g>
<path d="M4.05469 282.957V254.251C4.05469 261.692 8.62755 269.2 17.914 276.409V305.115C8.62755 297.905 4.05469 290.431 4.05469 282.957Z" fill="#00B3FE"/>
<mask id="mask40_859_119" style="mask-type:luminance" maskUnits="userSpaceOnUse" x="4" y="254" width="14" height="52">
<path d="M4.04688 282.957V254.251C4.04688 261.692 8.61974 269.199 17.9062 276.409V305.114C8.61974 297.905 4.04688 290.431 4.04688 282.957Z" fill="white"/>
</mask>
<g mask="url(#mask40_859_119)">
<path d="M17.9062 276.409V305.114C8.61974 297.872 4.04688 290.398 4.04688 282.957V254.251C4.04687 261.692 8.61974 269.199 17.9062 276.409Z" fill="#00B3FE"/>
</g>
<path d="M284.058 280.38V309.086L249.797 282.497V253.758L284.058 280.38Z" fill="#00B3FE"/>
<path d="M401.621 217.543V246.249L284.062 309.084V280.379L401.621 217.543Z" fill="#00B3FE"/>
<path d="M32.5825 287.819V316.525L17.9141 305.149V276.41L32.5825 287.819Z" fill="#00B3FE"/>
<path d="M165.121 289.276V317.982C162.412 315.865 159.247 314.972 155.272 314.972C154.111 314.972 152.88 315.039 151.578 315.204V286.498C152.88 286.366 154.111 286.267 155.272 286.267C159.247 286.267 162.412 287.16 165.121 289.276Z" fill="#00B3FE"/>
<mask id="mask41_859_119" style="mask-type:luminance" maskUnits="userSpaceOnUse" x="151" y="286" width="15" height="32">
<path d="M165.113 289.276V317.981C162.405 315.865 159.239 314.972 155.264 314.972C154.103 314.972 152.872 315.038 151.57 315.203V286.498C152.872 286.365 154.103 286.266 155.264 286.266C159.239 286.266 162.405 287.159 165.113 289.276Z" fill="white"/>
</mask>
<g mask="url(#mask41_859_119)">
<path d="M165.113 289.276V317.981C162.405 315.865 159.239 314.972 155.264 314.972C154.103 314.972 152.872 315.038 151.57 315.203V286.498C152.872 286.365 154.103 286.266 155.264 286.266C159.239 286.266 162.405 287.159 165.113 289.276Z" fill="#00B3FE"/>
</g>
<path d="M170.296 293.278V321.984L165.125 317.982V289.276L170.296 293.278Z" fill="#00B3FE"/>
<path d="M151.588 286.463V315.202L72.1953 325.157V296.451L151.588 286.463Z" fill="#00B3FE"/>
<path d="M72.1941 296.451V325.157C67.973 325.719 64.174 326.017 60.6916 326.017C48.591 326.017 40.4654 322.643 32.5859 316.558V287.853C40.4654 293.971 48.591 297.311 60.6916 297.311C64.1388 297.278 67.973 297.013 72.1941 296.451Z" fill="#00B3FE"/>
<mask id="mask42_859_119" style="mask-type:luminance" maskUnits="userSpaceOnUse" x="32" y="287" width="41" height="40">
<path d="M72.1941 296.452V325.157C67.973 325.72 64.174 326.017 60.6916 326.017C48.591 326.017 40.4654 322.644 32.5859 316.559V287.853C40.4654 293.971 48.591 297.311 60.6916 297.311C64.1388 297.278 67.973 297.014 72.1941 296.452Z" fill="white"/>
</mask>
<g mask="url(#mask42_859_119)">
<path d="M72.1941 296.452V325.157C67.973 325.72 64.174 326.017 60.6916 326.017C48.591 326.017 40.4654 322.644 32.5859 316.559V287.853C40.4654 293.971 48.591 297.311 60.6916 297.311C64.1388 297.278 67.973 297.014 72.1941 296.452Z" fill="#00B3FE"/>
</g>
<path d="M174.42 299.562V328.268C174.42 326.251 173.084 324.134 170.305 321.985V293.279C173.084 295.428 174.42 297.512 174.42 299.562Z" fill="#00B3FE"/>
<mask id="mask43_859_119" style="mask-type:luminance" maskUnits="userSpaceOnUse" x="170" y="293" width="5" height="36">
<path d="M174.428 299.563V328.269C174.428 326.252 173.091 324.135 170.312 321.986V293.28C173.091 295.429 174.428 297.513 174.428 299.563Z" fill="white"/>
</mask>
<g mask="url(#mask43_859_119)">
<path d="M174.428 299.563V328.269C174.428 326.252 173.091 324.135 170.312 321.986V293.28C173.091 295.429 174.428 297.513 174.428 299.563Z" fill="#00B3FE"/>
</g>
<path d="M220.597 300.587V329.293C220.597 339.842 211.416 350.326 193.547 359.883V331.178C211.416 321.62 220.597 311.137 220.597 300.587Z" fill="#00B3FE"/>
<mask id="mask44_859_119" style="mask-type:luminance" maskUnits="userSpaceOnUse" x="193" y="300" width="28" height="60">
<path d="M220.589 300.587V329.293C220.589 339.843 211.408 350.326 193.539 359.884V331.178C211.408 321.621 220.589 311.137 220.589 300.587Z" fill="white"/>
</mask>
<g mask="url(#mask44_859_119)">
<path d="M220.586 300.587V329.293C220.586 330.715 220.41 332.137 220.094 333.559V304.854C220.41 303.432 220.586 302.009 220.586 300.587Z" fill="#00B3FE"/>
<path d="M220.106 304.854V333.559C219.719 335.147 219.157 336.734 218.383 338.322V309.616C219.157 308.028 219.719 306.441 220.106 304.854Z" fill="#00B3FE"/>
<path d="M218.381 309.582V338.287C217.361 340.305 216.024 342.322 214.336 344.339V315.634C216.024 313.649 217.361 311.632 218.381 309.582Z" fill="#00B3FE"/>
<path d="M214.332 315.634V344.34C209.794 349.698 202.865 354.923 193.578 359.883V331.178C202.865 326.217 209.794 320.992 214.332 315.634Z" fill="#00B3FE"/>
</g>
<path d="M193.547 331.178V359.883L131.461 393.087V364.348L193.547 331.178Z" fill="#00B3FE"/>
<path d="M131.473 364.345V393.084L102.594 370.628V341.89L131.473 364.345Z" fill="#00B3FE"/>
<path d="M446.287 34.7917V63.4975C440.905 59.3305 434.573 57.2139 428.312 57.2139C423.985 57.2139 419.729 58.2392 415.859 60.3226V31.5838C419.729 29.5003 423.985 28.4751 428.312 28.4751C434.573 28.5082 440.905 30.6247 446.287 34.7917Z" fill="#7AE7FF"/>
<mask id="mask45_859_119" style="mask-type:luminance" maskUnits="userSpaceOnUse" x="415" y="28" width="32" height="36">
<path d="M446.294 34.7912V63.497C440.913 59.33 434.581 57.2135 428.319 57.2135C423.993 57.2135 419.737 58.2387 415.867 60.3221V31.5833C419.737 29.4998 423.993 28.4746 428.319 28.4746C434.581 28.5077 440.913 30.6242 446.294 34.7912Z" fill="white"/>
</mask>
<g mask="url(#mask45_859_119)">
<path d="M446.294 34.7912V63.497C440.913 59.33 434.581 57.2135 428.319 57.2135C423.993 57.2135 419.737 58.2387 415.867 60.3221V31.5833C419.737 29.4998 423.993 28.4746 428.319 28.4746C434.581 28.5077 440.913 30.6242 446.294 34.7912Z" fill="#7AE7FF"/>
</g>
<path d="M415.863 31.585V60.3238L367.602 86.1193V57.3805L415.863 31.585Z" fill="#7AE7FF"/>
<path d="M503.478 79.2401V107.946L446.281 63.4983V34.7925L503.478 79.2401Z" fill="#7AE7FF"/>
<path d="M510.164 89.6222V118.328C510.164 114.988 507.983 111.416 503.516 107.944V79.2378C507.983 82.7103 510.164 86.282 510.164 89.6222Z" fill="#7AE7FF"/>
<mask id="mask46_859_119" style="mask-type:luminance" maskUnits="userSpaceOnUse" x="503" y="79" width="8" height="40">
<path d="M510.172 89.6222V118.328C510.172 114.988 507.991 111.416 503.523 107.944V79.2378C507.991 82.7103 510.172 86.282 510.172 89.6222Z" fill="white"/>
</mask>
<g mask="url(#mask46_859_119)">
<path d="M510.172 89.6222V118.328C510.172 114.988 507.991 111.416 503.523 107.944V79.2378C507.991 82.7103 510.172 86.282 510.172 89.6222Z" fill="#7AE7FF"/>
</g>
<path d="M553.993 91.3428V120.049C553.993 131.425 546.536 142.305 531.656 150.276V121.537C546.536 113.6 553.993 102.686 553.993 91.3428Z" fill="#7AE7FF"/>
<mask id="mask47_859_119" style="mask-type:luminance" maskUnits="userSpaceOnUse" x="531" y="91" width="23" height="60">
<path d="M554.001 91.3423V120.048C554.001 131.425 546.544 142.305 531.664 150.275V121.536C546.544 113.599 554.001 102.686 554.001 91.3423Z" fill="white"/>
</mask>
<g mask="url(#mask47_859_119)">
<path d="M553.996 91.3423V120.048C553.996 122.032 553.785 124.017 553.328 125.968V97.262C553.785 95.2778 553.996 93.3266 553.996 91.3423Z" fill="#7AE7FF"/>
<path d="M553.329 97.23V125.936C552.837 127.953 552.133 129.97 551.148 131.922V103.216C552.133 101.265 552.837 99.2804 553.329 97.23Z" fill="#7AE7FF"/>
<path d="M551.151 103.214V131.92C550.025 134.202 548.548 136.418 546.719 138.567V109.862C548.548 107.745 550.025 105.496 551.151 103.214Z" fill="#7AE7FF"/>
<path d="M546.719 109.861V138.567C543.061 142.866 538.066 146.834 531.664 150.241V121.535C538.066 118.129 543.096 114.16 546.719 109.861Z" fill="#7AE7FF"/>
</g>
<path d="M260.939 129.01V157.715C257.843 155.301 254.326 154.111 250.914 154.111C248.627 154.111 246.376 154.64 244.336 155.731V127.025C246.376 125.934 248.627 125.405 250.914 125.405C254.361 125.405 257.879 126.595 260.939 129.01Z" fill="#7AE7FF"/>
<mask id="mask48_859_119" style="mask-type:luminance" maskUnits="userSpaceOnUse" x="244" y="125" width="17" height="33">
<path d="M260.939 129.009V157.714C257.843 155.3 254.326 154.11 250.914 154.11C248.627 154.11 246.376 154.639 244.336 155.73V127.024C246.376 125.933 248.627 125.404 250.914 125.404C254.361 125.404 257.879 126.594 260.939 129.009Z" fill="white"/>
</mask>
<g mask="url(#mask48_859_119)">
<path d="M260.939 129.009V157.714C257.843 155.3 254.326 154.11 250.914 154.11C248.627 154.11 246.376 154.639 244.336 155.73V127.024C246.376 125.933 248.627 125.404 250.914 125.404C254.361 125.404 257.879 126.594 260.939 129.009Z" fill="#7AE7FF"/>
</g>
<path d="M267.981 134.436V163.175L260.945 157.718V129.013L267.981 134.436Z" fill="#7AE7FF"/>
<path d="M270.552 138.437V167.142C270.552 165.787 269.743 164.53 267.984 163.141V134.435C269.743 135.824 270.552 137.081 270.552 138.437Z" fill="#7AE7FF"/>
<mask id="mask49_859_119" style="mask-type:luminance" maskUnits="userSpaceOnUse" x="267" y="134" width="4" height="34">
<path d="M270.544 138.437V167.142C270.544 165.787 269.735 164.53 267.977 163.141V134.435C269.735 135.824 270.544 137.081 270.544 138.437Z" fill="white"/>
</mask>
<g mask="url(#mask49_859_119)">
<path d="M270.544 138.437V167.142C270.544 165.787 269.735 164.53 267.977 163.141V134.435C269.735 135.824 270.544 137.081 270.544 138.437Z" fill="#7AE7FF"/>
</g>
<path d="M244.382 127.026V155.732L203.789 177.427V148.721L244.382 127.026Z" fill="#7AE7FF"/>
<path d="M315.724 139.164V167.869C315.724 171.276 314.704 174.748 312.453 178.121V149.416C314.669 146.042 315.724 142.57 315.724 139.164Z" fill="#7AE7FF"/>
<mask id="mask50_859_119" style="mask-type:luminance" maskUnits="userSpaceOnUse" x="312" y="139" width="4" height="40">
<path d="M315.724 139.163V167.869C315.724 171.275 314.704 174.748 312.453 178.121V149.415C314.669 146.042 315.724 142.569 315.724 139.163Z" fill="white"/>
</mask>
<g mask="url(#mask50_859_119)">
<path d="M315.731 139.163V167.869C315.731 169.159 315.59 170.448 315.273 171.738V143.032C315.555 141.743 315.731 140.453 315.731 139.163Z" fill="#7AE7FF"/>
<path d="M315.266 143.032V171.738C314.95 173.094 314.457 174.45 313.789 175.773V147.067C314.457 145.711 314.95 144.388 315.266 143.032Z" fill="#7AE7FF"/>
<path d="M313.79 147.066V175.772C313.403 176.565 312.946 177.326 312.453 178.087V149.381C312.946 148.62 313.403 147.86 313.79 147.066Z" fill="#7AE7FF"/>
</g>
<path d="M203.779 148.723V177.429C197.201 180.934 193.648 183.679 186.859 191.914V163.208C193.648 154.974 197.201 152.229 203.779 148.723Z" fill="#7AE7FF"/>
<mask id="mask51_859_119" style="mask-type:luminance" maskUnits="userSpaceOnUse" x="186" y="148" width="18" height="44">
<path d="M203.779 148.723V177.428C197.201 180.934 193.648 183.679 186.859 191.914V163.208C193.648 154.973 197.201 152.228 203.779 148.723Z" fill="white"/>
</mask>
<g mask="url(#mask51_859_119)">
<path d="M203.782 148.723V177.428C197.591 180.736 194.074 183.348 188.023 190.558V161.852C194.074 154.642 197.591 152.03 203.782 148.723Z" fill="#7AE7FF"/>
<path d="M188.024 161.851V190.557C187.672 190.987 187.285 191.45 186.898 191.913V163.207C187.285 162.744 187.637 162.281 188.024 161.851Z" fill="#7AE7FF"/>
</g>
<path d="M186.866 163.205V191.911L153.836 175.739V147.034L186.866 163.205Z" fill="#7AE7FF"/>
<path d="M450.511 164.928V193.633L306.008 81.3899V52.6841L450.511 164.928Z" fill="#7AE7FF"/>
<path d="M531.667 121.537V150.275L450.516 193.632V164.926L531.667 121.537Z" fill="#7AE7FF"/>
<path d="M312.436 149.382V178.121L279.758 227.529V198.823L312.436 149.382Z" fill="#7AE7FF"/>
<path d="M278.562 231.498V202.792C278.562 201.502 278.949 200.179 279.758 198.856V227.562C278.949 228.885 278.562 230.175 278.562 231.498Z" fill="#7AE7FF"/>
<mask id="mask52_859_119" style="mask-type:luminance" maskUnits="userSpaceOnUse" x="278" y="198" width="2" height="34">
<path d="M278.57 231.498V202.792C278.57 201.503 278.957 200.18 279.766 198.857V227.563C278.957 228.886 278.57 230.175 278.57 231.498Z" fill="white"/>
</mask>
<g mask="url(#mask52_859_119)">
<path d="M279.766 198.824V227.53C279.625 227.761 279.52 227.993 279.414 228.191V199.486C279.52 199.254 279.625 199.056 279.766 198.824Z" fill="#7AE7FF"/>
<path d="M279.407 199.486V228.192C279.125 228.787 278.879 229.383 278.773 229.978V201.272C278.879 200.677 279.09 200.082 279.407 199.486Z" fill="#7AE7FF"/>
<path d="M278.746 201.272V229.978C278.641 230.474 278.57 230.97 278.57 231.5V202.794C278.57 202.265 278.641 201.769 278.746 201.272Z" fill="#7AE7FF"/>
</g>
<path d="M115.955 189.465V218.171L56.7188 249.853V221.114L115.955 189.465Z" fill="#7AE7FF"/>
<path d="M235.398 229.946V201.24C235.398 210.731 240.604 220.19 249.75 227.333V256.039C240.604 248.895 235.398 239.437 235.398 229.946Z" fill="#7AE7FF"/>
<mask id="mask53_859_119" style="mask-type:luminance" maskUnits="userSpaceOnUse" x="235" y="201" width="15" height="56">
<path d="M235.398 229.946V201.24C235.398 210.731 240.604 220.19 249.75 227.333V256.039C240.604 248.895 235.398 239.437 235.398 229.946Z" fill="white"/>
</mask>
<g mask="url(#mask53_859_119)">
<path d="M249.789 227.3V256.006C240.644 248.895 235.438 239.437 235.438 229.912V201.24C235.403 210.731 240.609 220.19 249.789 227.3Z" fill="#7AE7FF"/>
</g>
<path d="M50.2812 257.394V228.688C50.2812 226.009 52.4622 223.43 56.7185 221.115V249.82C52.427 252.135 50.2812 254.715 50.2812 257.394Z" fill="#7AE7FF"/>
<mask id="mask54_859_119" style="mask-type:luminance" maskUnits="userSpaceOnUse" x="50" y="221" width="7" height="37">
<path d="M50.2812 257.394V228.689C50.2812 226.01 52.4622 223.43 56.7185 221.115V249.821C52.427 252.136 50.2812 254.716 50.2812 257.394Z" fill="white"/>
</mask>
<g mask="url(#mask54_859_119)">
<path d="M56.7098 221.115V249.821C54.564 250.978 52.9459 252.202 51.8906 253.459V224.753C52.9459 223.496 54.564 222.273 56.7098 221.115Z" fill="#7AE7FF"/>
<path d="M51.8639 224.752V253.458C51.4417 253.954 51.09 254.483 50.8438 255.012V226.306C51.1252 225.777 51.4417 225.281 51.8639 224.752Z" fill="#7AE7FF"/>
<path d="M50.8401 226.309V255.014C50.629 255.411 50.4883 255.841 50.3828 256.238V227.532C50.4883 227.135 50.629 226.705 50.8401 226.309Z" fill="#7AE7FF"/>
<path d="M50.3829 227.533V256.238C50.2774 256.602 50.2422 256.999 50.2422 257.396V228.69C50.2774 228.293 50.3125 227.93 50.3829 227.533Z" fill="#7AE7FF"/>
</g>
<path d="M4.05469 256.5V227.794C4.05469 235.235 8.62755 242.742 17.914 249.952V278.657C8.62755 271.448 4.05469 263.974 4.05469 256.5Z" fill="#7AE7FF"/>
<mask id="mask55_859_119" style="mask-type:luminance" maskUnits="userSpaceOnUse" x="4" y="227" width="14" height="52">
<path d="M4.04688 256.5V227.794C4.04688 235.235 8.61974 242.743 17.9062 249.952V278.658C8.61974 271.448 4.04688 263.974 4.04688 256.5Z" fill="white"/>
</mask>
<g mask="url(#mask55_859_119)">
<path d="M17.9062 249.952V278.658C8.61974 271.415 4.04688 263.941 4.04688 256.5V227.794C4.04687 235.235 8.61974 242.743 17.9062 249.952Z" fill="#7AE7FF"/>
</g>
<path d="M284.058 253.922V282.627L249.797 256.038V227.299L284.058 253.922Z" fill="#7AE7FF"/>
<path d="M401.621 191.086V219.792L284.062 282.627V253.921L401.621 191.086Z" fill="#7AE7FF"/>
<path d="M32.5825 261.361V290.067L17.9141 278.691V249.952L32.5825 261.361Z" fill="#7AE7FF"/>
<path d="M165.121 262.819V291.524C162.412 289.408 159.247 288.515 155.272 288.515C154.111 288.515 152.88 288.581 151.578 288.746V260.041C152.88 259.908 154.111 259.809 155.272 259.809C159.247 259.809 162.412 260.702 165.121 262.819Z" fill="#7AE7FF"/>
<mask id="mask56_859_119" style="mask-type:luminance" maskUnits="userSpaceOnUse" x="151" y="259" width="15" height="33">
<path d="M165.113 262.819V291.524C162.405 289.408 159.239 288.515 155.264 288.515C154.103 288.515 152.872 288.581 151.57 288.746V260.041C152.872 259.908 154.103 259.809 155.264 259.809C159.239 259.809 162.405 260.702 165.113 262.819Z" fill="white"/>
</mask>
<g mask="url(#mask56_859_119)">
<path d="M165.113 262.819V291.524C162.405 289.408 159.239 288.515 155.264 288.515C154.103 288.515 152.872 288.581 151.57 288.746V260.041C152.872 259.908 154.103 259.809 155.264 259.809C159.239 259.809 162.405 260.702 165.113 262.819Z" fill="#7AE7FF"/>
</g>
<path d="M170.296 266.82V295.526L165.125 291.525V262.819L170.296 266.82Z" fill="#7AE7FF"/>
<path d="M151.588 260.006V288.745L72.1953 298.699V269.993L151.588 260.006Z" fill="#7AE7FF"/>
<path d="M72.1941 269.993V298.699C67.973 299.261 64.174 299.559 60.6916 299.559C48.591 299.559 40.4654 296.185 32.5859 290.1V261.395C40.4654 267.513 48.591 270.853 60.6916 270.853C64.1388 270.82 67.973 270.555 72.1941 269.993Z" fill="#7AE7FF"/>
<mask id="mask57_859_119" style="mask-type:luminance" maskUnits="userSpaceOnUse" x="32" y="261" width="41" height="39">
<path d="M72.1941 269.993V298.698C67.973 299.261 64.174 299.558 60.6916 299.558C48.591 299.558 40.4654 296.185 32.5859 290.1V261.394C40.4654 267.512 48.591 270.852 60.6916 270.852C64.1388 270.819 67.973 270.555 72.1941 269.993Z" fill="white"/>
</mask>
<g mask="url(#mask57_859_119)">
<path d="M72.1941 269.993V298.698C67.973 299.261 64.174 299.558 60.6916 299.558C48.591 299.558 40.4654 296.185 32.5859 290.1V261.394C40.4654 267.512 48.591 270.852 60.6916 270.852C64.1388 270.819 67.973 270.555 72.1941 269.993Z" fill="#7AE7FF"/>
</g>
<path d="M174.42 273.104V301.81C174.42 299.792 173.084 297.676 170.305 295.526V266.82C173.084 268.97 174.42 271.053 174.42 273.104Z" fill="#7AE7FF"/>
<mask id="mask58_859_119" style="mask-type:luminance" maskUnits="userSpaceOnUse" x="170" y="266" width="5" height="36">
<path d="M174.428 273.104V301.81C174.428 299.792 173.091 297.676 170.312 295.526V266.82C173.091 268.97 174.428 271.053 174.428 273.104Z" fill="white"/>
</mask>
<g mask="url(#mask58_859_119)">
<path d="M174.428 273.104V301.81C174.428 299.792 173.091 297.676 170.312 295.526V266.82C173.091 268.97 174.428 271.053 174.428 273.104Z" fill="#7AE7FF"/>
</g>
<path d="M220.597 274.128V302.834C220.597 313.384 211.416 323.867 193.547 333.425V304.719C211.416 295.162 220.597 284.678 220.597 274.128Z" fill="#7AE7FF"/>
<mask id="mask59_859_119" style="mask-type:luminance" maskUnits="userSpaceOnUse" x="193" y="274" width="28" height="60">
<path d="M220.589 274.128V302.834C220.589 313.383 211.408 323.867 193.539 333.425V304.719C211.408 295.161 220.589 284.678 220.589 274.128Z" fill="white"/>
</mask>
<g mask="url(#mask59_859_119)">
<path d="M220.586 274.128V302.834C220.586 304.256 220.41 305.678 220.094 307.1V278.394C220.41 276.972 220.586 275.55 220.586 274.128Z" fill="#7AE7FF"/>
<path d="M220.106 278.394V307.1C219.719 308.687 219.157 310.275 218.383 311.862V283.156C219.157 281.569 219.719 279.981 220.106 278.394Z" fill="#7AE7FF"/>
<path d="M218.381 283.122V311.828C217.361 313.845 216.024 315.863 214.336 317.88V289.174C216.024 287.19 217.361 285.172 218.381 283.122Z" fill="#7AE7FF"/>
<path d="M214.332 289.175V317.881C209.794 323.238 202.865 328.463 193.578 333.424V304.718C202.865 299.758 209.794 294.532 214.332 289.175Z" fill="#7AE7FF"/>
</g>
<path d="M193.547 304.72V333.426L131.461 366.629V337.89L193.547 304.72Z" fill="#7AE7FF"/>
<path d="M131.473 337.887V366.626L102.594 344.171V315.432L131.473 337.887Z" fill="#7AE7FF"/>
<path d="M536.395 61.6447C561.37 81.0574 559.752 106.555 531.682 121.57L450.495 164.959L305.992 52.6824L387.143 9.293C398.857 3.04255 412.505 0 426.189 0C445.324 0 464.601 5.91974 479.164 17.2301L536.395 61.6447ZM502.802 99.1143C512.229 94.0875 512.792 86.448 503.541 79.2385L446.345 34.7909C440.963 30.6239 434.631 28.5074 428.37 28.5074C424.043 28.5074 419.787 29.5326 415.917 31.616L367.656 57.4116L454.576 124.91L502.802 99.1143Z" fill="url(#paint0_linear_859_119)"/>
<path d="M248.03 96.501C264.14 96.501 280.567 101.627 292.844 111.152L304.628 120.312C315.181 128.481 319.12 139.361 312.472 149.415L279.794 198.823C277.437 202.792 278.562 206.496 283.135 210.034L288.06 213.871L372.729 168.629L401.643 191.085L284.05 253.92L249.788 227.297C235.964 216.549 231.145 200.444 239.658 186.951L269.593 141.18C271.211 138.7 270.859 136.716 267.974 134.467L260.939 129.01C257.844 126.596 254.326 125.405 250.914 125.405C248.628 125.405 246.376 125.934 244.336 127.026L203.743 148.72C197.165 152.226 193.612 154.971 186.823 163.206L153.758 147.034C159.738 137.608 165.19 131.424 174.828 126.265L216.758 103.876C226.15 98.8821 237.055 96.501 248.03 96.501Z" fill="url(#paint1_linear_859_119)"/>
<path d="M87.2701 167.174L115.939 189.464L56.7022 221.113C49.0338 225.214 48.1544 230.274 54.3454 235.102L58.2499 238.145C61.1344 240.393 63.8429 241.419 67.8178 241.419C69.26 241.419 70.8429 241.286 72.6721 241.022L151.396 231.133C155.652 230.505 159.487 230.207 163.004 230.207C174.964 230.207 183.16 233.68 191.004 239.732L206.693 251.935C229.17 269.397 223.999 288.413 193.537 304.684L131.451 337.854L102.537 315.399L167.683 280.575C175.386 276.474 176.688 271.712 170.25 266.784L165.08 262.783C162.371 260.666 159.205 259.773 155.23 259.773C154.069 259.773 152.838 259.839 151.537 260.005L72.1444 269.959C67.9233 270.521 64.1243 270.819 60.6419 270.819C48.5413 270.819 40.4156 267.446 32.5362 261.361L17.8678 249.951C-4.60966 232.489 0.561204 213.473 31.0236 197.202L87.2701 167.174Z" fill="url(#paint2_linear_859_119)"/>
</g>
<defs>
<filter id="filter0_d_859_119" x="640.703" y="81.5" width="604.773" height="264" filterUnits="userSpaceOnUse" color-interpolation-filters="sRGB">
<feFlood flood-opacity="0" result="BackgroundImageFix"/>
<feColorMatrix in="SourceAlpha" type="matrix" values="0 0 0 0 0 0 0 0 0 0 0 0 0 0 0 0 0 0 127 0" result="hardAlpha"/>
<feOffset dy="6"/>
<feGaussianBlur stdDeviation="3"/>
<feComposite in2="hardAlpha" operator="out"/>
<feColorMatrix type="matrix" values="0 0 0 0 0 0 0 0 0 0 0 0 0 0 0 0 0 0 0.25 0"/>
<feBlend mode="normal" in2="BackgroundImageFix" result="effect1_dropShadow_859_119"/>
<feBlend mode="normal" in="SourceGraphic" in2="effect1_dropShadow_859_119" result="shape"/>
</filter>
<filter id="filter1_d_859_119" x="1748.35" y="84" width="543.586" height="257" filterUnits="userSpaceOnUse" color-interpolation-filters="sRGB">
<feFlood flood-opacity="0" result="BackgroundImageFix"/>
<feColorMatrix in="SourceAlpha" type="matrix" values="0 0 0 0 0 0 0 0 0 0 0 0 0 0 0 0 0 0 127 0" result="hardAlpha"/>
<feOffset dy="6"/>
<feGaussianBlur stdDeviation="3"/>
<feComposite in2="hardAlpha" operator="out"/>
<feColorMatrix type="matrix" values="0 0 0 0 0 0 0 0 0 0 0 0 0 0 0 0 0 0 0.25 0"/>
<feBlend mode="normal" in2="BackgroundImageFix" result="effect1_dropShadow_859_119"/>
<feBlend mode="normal" in="SourceGraphic" in2="effect1_dropShadow_859_119" result="shape"/>
</filter>
<filter id="filter2_d_859_119" x="1287.2" y="78.5" width="374.508" height="264" filterUnits="userSpaceOnUse" color-interpolation-filters="sRGB">
<feFlood flood-opacity="0" result="BackgroundImageFix"/>
<feColorMatrix in="SourceAlpha" type="matrix" values="0 0 0 0 0 0 0 0 0 0 0 0 0 0 0 0 0 0 127 0" result="hardAlpha"/>
<feOffset dy="6"/>
<feGaussianBlur stdDeviation="3"/>
<feComposite in2="hardAlpha" operator="out"/>
<feColorMatrix type="matrix" values="0 0 0 0 0 0 0 0 0 0 0 0 0 0 0 0 0 0 0.25 0"/>
<feBlend mode="normal" in2="BackgroundImageFix" result="effect1_dropShadow_859_119"/>
<feBlend mode="normal" in="SourceGraphic" in2="effect1_dropShadow_859_119" result="shape"/>
</filter>
<filter id="filter3_d_859_119" x="0" y="0" width="558" height="454" filterUnits="userSpaceOnUse" color-interpolation-filters="sRGB">
<feFlood flood-opacity="0" result="BackgroundImageFix"/>
<feColorMatrix in="SourceAlpha" type="matrix" values="0 0 0 0 0 0 0 0 0 0 0 0 0 0 0 0 0 0 127 0" result="hardAlpha"/>
<feOffset dy="4"/>
<feGaussianBlur stdDeviation="2"/>
<feComposite in2="hardAlpha" operator="out"/>
<feColorMatrix type="matrix" values="0 0 0 0 0 0 0 0 0 0 0 0 0 0 0 0 0 0 0.25 0"/>
<feBlend mode="normal" in2="BackgroundImageFix" result="effect1_dropShadow_859_119"/>
<feBlend mode="normal" in="SourceGraphic" in2="effect1_dropShadow_859_119" result="shape"/>
</filter>
<filter id="filter4_d_859_119" x="411.859" y="107.847" width="38.4297" height="43.0225" filterUnits="userSpaceOnUse" color-interpolation-filters="sRGB">
<feFlood flood-opacity="0" result="BackgroundImageFix"/>
<feColorMatrix in="SourceAlpha" type="matrix" values="0 0 0 0 0 0 0 0 0 0 0 0 0 0 0 0 0 0 127 0" result="hardAlpha"/>
<feOffset dy="4"/>
<feGaussianBlur stdDeviation="2"/>
<feComposite in2="hardAlpha" operator="out"/>
<feColorMatrix type="matrix" values="0 0 0 0 0 0 0 0 0 0 0 0 0 0 0 0 0 0 0.25 0"/>
<feBlend mode="normal" in2="BackgroundImageFix" result="effect1_dropShadow_859_119"/>
<feBlend mode="normal" in="SourceGraphic" in2="effect1_dropShadow_859_119" result="shape"/>
</filter>
<filter id="filter5_d_859_119" x="411.867" y="107.847" width="38.4297" height="43.0225" filterUnits="userSpaceOnUse" color-interpolation-filters="sRGB">
<feFlood flood-opacity="0" result="BackgroundImageFix"/>
<feColorMatrix in="SourceAlpha" type="matrix" values="0 0 0 0 0 0 0 0 0 0 0 0 0 0 0 0 0 0 127 0" result="hardAlpha"/>
<feOffset dy="4"/>
<feGaussianBlur stdDeviation="2"/>
<feComposite in2="hardAlpha" operator="out"/>
<feColorMatrix type="matrix" values="0 0 0 0 0 0 0 0 0 0 0 0 0 0 0 0 0 0 0.25 0"/>
<feBlend mode="normal" in2="BackgroundImageFix" result="effect1_dropShadow_859_119"/>
<feBlend mode="normal" in="SourceGraphic" in2="effect1_dropShadow_859_119" result="shape"/>
</filter>
<filter id="filter6_d_859_119" x="147.578" y="339.18" width="21.5391" height="39.7153" filterUnits="userSpaceOnUse" color-interpolation-filters="sRGB">
<feFlood flood-opacity="0" result="BackgroundImageFix"/>
<feColorMatrix in="SourceAlpha" type="matrix" values="0 0 0 0 0 0 0 0 0 0 0 0 0 0 0 0 0 0 127 0" result="hardAlpha"/>
<feOffset dy="4"/>
<feGaussianBlur stdDeviation="2"/>
<feComposite in2="hardAlpha" operator="out"/>
<feColorMatrix type="matrix" values="0 0 0 0 0 0 0 0 0 0 0 0 0 0 0 0 0 0 0.25 0"/>
<feBlend mode="normal" in2="BackgroundImageFix" result="effect1_dropShadow_859_119"/>
<feBlend mode="normal" in="SourceGraphic" in2="effect1_dropShadow_859_119" result="shape"/>
</filter>
<filter id="filter7_d_859_119" x="161.125" y="342.189" width="13.1719" height="40.7075" filterUnits="userSpaceOnUse" color-interpolation-filters="sRGB">
<feFlood flood-opacity="0" result="BackgroundImageFix"/>
<feColorMatrix in="SourceAlpha" type="matrix" values="0 0 0 0 0 0 0 0 0 0 0 0 0 0 0 0 0 0 127 0" result="hardAlpha"/>
<feOffset dy="4"/>
<feGaussianBlur stdDeviation="2"/>
<feComposite in2="hardAlpha" operator="out"/>
<feColorMatrix type="matrix" values="0 0 0 0 0 0 0 0 0 0 0 0 0 0 0 0 0 0 0.25 0"/>
<feBlend mode="normal" in2="BackgroundImageFix" result="effect1_dropShadow_859_119"/>
<feBlend mode="normal" in="SourceGraphic" in2="effect1_dropShadow_859_119" result="shape"/>
</filter>
<filter id="filter8_d_859_119" x="68.1953" y="339.377" width="87.3906" height="46.6934" filterUnits="userSpaceOnUse" color-interpolation-filters="sRGB">
<feFlood flood-opacity="0" result="BackgroundImageFix"/>
<feColorMatrix in="SourceAlpha" type="matrix" values="0 0 0 0 0 0 0 0 0 0 0 0 0 0 0 0 0 0 127 0" result="hardAlpha"/>
<feOffset dy="4"/>
<feGaussianBlur stdDeviation="2"/>
<feComposite in2="hardAlpha" operator="out"/>
<feColorMatrix type="matrix" values="0 0 0 0 0 0 0 0 0 0 0 0 0 0 0 0 0 0 0.25 0"/>
<feBlend mode="normal" in2="BackgroundImageFix" result="effect1_dropShadow_859_119"/>
<feBlend mode="normal" in="SourceGraphic" in2="effect1_dropShadow_859_119" result="shape"/>
</filter>
<filter id="filter9_d_859_119" x="28.5859" y="340.765" width="47.6094" height="46.1641" filterUnits="userSpaceOnUse" color-interpolation-filters="sRGB">
<feFlood flood-opacity="0" result="BackgroundImageFix"/>
<feColorMatrix in="SourceAlpha" type="matrix" values="0 0 0 0 0 0 0 0 0 0 0 0 0 0 0 0 0 0 127 0" result="hardAlpha"/>
<feOffset dy="4"/>
<feGaussianBlur stdDeviation="2"/>
<feComposite in2="hardAlpha" operator="out"/>
<feColorMatrix type="matrix" values="0 0 0 0 0 0 0 0 0 0 0 0 0 0 0 0 0 0 0.25 0"/>
<feBlend mode="normal" in2="BackgroundImageFix" result="effect1_dropShadow_859_119"/>
<feBlend mode="normal" in="SourceGraphic" in2="effect1_dropShadow_859_119" result="shape"/>
</filter>
<filter id="filter10_d_859_119" x="28.5859" y="340.765" width="47.6094" height="46.1641" filterUnits="userSpaceOnUse" color-interpolation-filters="sRGB">
<feFlood flood-opacity="0" result="BackgroundImageFix"/>
<feColorMatrix in="SourceAlpha" type="matrix" values="0 0 0 0 0 0 0 0 0 0 0 0 0 0 0 0 0 0 127 0" result="hardAlpha"/>
<feOffset dy="4"/>
<feGaussianBlur stdDeviation="2"/>
<feComposite in2="hardAlpha" operator="out"/>
<feColorMatrix type="matrix" values="0 0 0 0 0 0 0 0 0 0 0 0 0 0 0 0 0 0 0.25 0"/>
<feBlend mode="normal" in2="BackgroundImageFix" result="effect1_dropShadow_859_119"/>
<feBlend mode="normal" in="SourceGraphic" in2="effect1_dropShadow_859_119" result="shape"/>
</filter>
<filter id="filter11_d_859_119" x="166.305" y="346.191" width="12.1172" height="42.9893" filterUnits="userSpaceOnUse" color-interpolation-filters="sRGB">
<feFlood flood-opacity="0" result="BackgroundImageFix"/>
<feColorMatrix in="SourceAlpha" type="matrix" values="0 0 0 0 0 0 0 0 0 0 0 0 0 0 0 0 0 0 127 0" result="hardAlpha"/>
<feOffset dy="4"/>
<feGaussianBlur stdDeviation="2"/>
<feComposite in2="hardAlpha" operator="out"/>
<feColorMatrix type="matrix" values="0 0 0 0 0 0 0 0 0 0 0 0 0 0 0 0 0 0 0.25 0"/>
<feBlend mode="normal" in2="BackgroundImageFix" result="effect1_dropShadow_859_119"/>
<feBlend mode="normal" in="SourceGraphic" in2="effect1_dropShadow_859_119" result="shape"/>
</filter>
<filter id="filter12_d_859_119" x="189.547" y="353.5" width="35.0469" height="67.2964" filterUnits="userSpaceOnUse" color-interpolation-filters="sRGB">
<feFlood flood-opacity="0" result="BackgroundImageFix"/>
<feColorMatrix in="SourceAlpha" type="matrix" values="0 0 0 0 0 0 0 0 0 0 0 0 0 0 0 0 0 0 127 0" result="hardAlpha"/>
<feOffset dy="4"/>
<feGaussianBlur stdDeviation="2"/>
<feComposite in2="hardAlpha" operator="out"/>
<feColorMatrix type="matrix" values="0 0 0 0 0 0 0 0 0 0 0 0 0 0 0 0 0 0 0.25 0"/>
<feBlend mode="normal" in2="BackgroundImageFix" result="effect1_dropShadow_859_119"/>
<feBlend mode="normal" in="SourceGraphic" in2="effect1_dropShadow_859_119" result="shape"/>
</filter>
<filter id="filter13_d_859_119" x="189.578" y="353.5" width="35.0078" height="67.2959" filterUnits="userSpaceOnUse" color-interpolation-filters="sRGB">
<feFlood flood-opacity="0" result="BackgroundImageFix"/>
<feColorMatrix in="SourceAlpha" type="matrix" values="0 0 0 0 0 0 0 0 0 0 0 0 0 0 0 0 0 0 127 0" result="hardAlpha"/>
<feOffset dy="4"/>
<feGaussianBlur stdDeviation="2"/>
<feComposite in2="hardAlpha" operator="out"/>
<feColorMatrix type="matrix" values="0 0 0 0 0 0 0 0 0 0 0 0 0 0 0 0 0 0 0.25 0"/>
<feBlend mode="normal" in2="BackgroundImageFix" result="effect1_dropShadow_859_119"/>
<feBlend mode="normal" in="SourceGraphic" in2="effect1_dropShadow_859_119" result="shape"/>
</filter>
<filter id="filter14_d_859_119" x="127.461" y="384.091" width="70.0859" height="69.9092" filterUnits="userSpaceOnUse" color-interpolation-filters="sRGB">
<feFlood flood-opacity="0" result="BackgroundImageFix"/>
<feColorMatrix in="SourceAlpha" type="matrix" values="0 0 0 0 0 0 0 0 0 0 0 0 0 0 0 0 0 0 127 0" result="hardAlpha"/>
<feOffset dy="4"/>
<feGaussianBlur stdDeviation="2"/>
<feComposite in2="hardAlpha" operator="out"/>
<feColorMatrix type="matrix" values="0 0 0 0 0 0 0 0 0 0 0 0 0 0 0 0 0 0 0.25 0"/>
<feBlend mode="normal" in2="BackgroundImageFix" result="effect1_dropShadow_859_119"/>
<feBlend mode="normal" in="SourceGraphic" in2="effect1_dropShadow_859_119" result="shape"/>
</filter>
<filter id="filter15_d_859_119" x="98.5938" y="394.803" width="36.8828" height="59.1943" filterUnits="userSpaceOnUse" color-interpolation-filters="sRGB">
<feFlood flood-opacity="0" result="BackgroundImageFix"/>
<feColorMatrix in="SourceAlpha" type="matrix" values="0 0 0 0 0 0 0 0 0 0 0 0 0 0 0 0 0 0 127 0" result="hardAlpha"/>
<feOffset dy="4"/>
<feGaussianBlur stdDeviation="2"/>
<feComposite in2="hardAlpha" operator="out"/>
<feColorMatrix type="matrix" values="0 0 0 0 0 0 0 0 0 0 0 0 0 0 0 0 0 0 0.25 0"/>
<feBlend mode="normal" in2="BackgroundImageFix" result="effect1_dropShadow_859_119"/>
<feBlend mode="normal" in="SourceGraphic" in2="effect1_dropShadow_859_119" result="shape"/>
</filter>
<linearGradient id="paint0_linear_859_119" x1="298.253" y1="95.995" x2="600.328" y2="83.3765" gradientUnits="userSpaceOnUse">
<stop offset="0.127437" stop-color="#B9FCFF"/>
<stop offset="0.932836" stop-color="white"/>
<stop offset="1" stop-color="white" stop-opacity="0"/>
</linearGradient>
<linearGradient id="paint1_linear_859_119" x1="146.023" y1="188.108" x2="447.896" y2="174.901" gradientUnits="userSpaceOnUse">
<stop offset="0.127437" stop-color="#B9FCFF"/>
<stop offset="0.932836" stop-color="white"/>
<stop offset="1" stop-color="white" stop-opacity="0"/>
</linearGradient>
<linearGradient id="paint2_linear_859_119" x1="-2.75745" y1="266.498" x2="261.145" y2="257.195" gradientUnits="userSpaceOnUse">
<stop offset="0.127437" stop-color="#B9FCFF"/>
<stop offset="0.932836" stop-color="white"/>
<stop offset="1" stop-color="white" stop-opacity="0"/>
</linearGradient>
</defs>
</svg>
