<svg width="576" height="497" viewBox="0 0 576 497" fill="none" xmlns="http://www.w3.org/2000/svg">
<path d="M463.207 127.17V159.146C457.57 154.504 450.939 152.147 444.382 152.147C439.851 152.147 435.393 153.289 431.341 155.61V123.597C435.393 121.276 439.851 120.134 444.382 120.134C450.939 120.171 457.57 122.528 463.207 127.17Z" fill="#001D9F"/>
<path d="M463.209 127.17V159.147C457.573 154.505 450.942 152.147 444.385 152.147C439.853 152.147 435.396 153.289 431.344 155.61V123.597C435.396 121.276 439.853 120.134 444.385 120.134C450.942 120.171 457.573 122.529 463.209 127.17Z" fill="black"/>
<path d="M463.209 127.17V159.147C457.573 154.505 450.942 152.147 444.385 152.147C439.853 152.147 435.396 153.289 431.344 155.61V123.597C435.396 121.276 439.853 120.134 444.385 120.134C450.942 120.171 457.573 122.529 463.209 127.17Z" fill="#001D9F"/>
<path d="M431.345 123.598V155.611L380.802 184.346V152.333L431.345 123.598Z" fill="#001D9F"/>
<path d="M523.101 176.682V208.658L463.201 159.147V127.17L523.101 176.682Z" fill="#001D9F"/>
<path d="M530.099 188.248V220.225C530.099 216.504 527.815 212.525 523.136 208.657V176.681C527.815 180.549 530.099 184.528 530.099 188.248Z" fill="#001D9F"/>
<path d="M530.095 188.248V220.225C530.095 216.504 527.811 212.525 523.133 208.657V176.681C527.811 180.549 530.095 184.528 530.095 188.248Z" fill="black"/>
<path d="M530.095 188.248V220.225C530.095 216.504 527.811 212.525 523.133 208.657V176.681C527.811 180.549 530.095 184.528 530.095 188.248Z" fill="#001D9F"/>
<path d="M576 190.164V222.14C576 234.813 568.19 246.933 552.607 255.811V223.798C568.19 214.957 576 202.8 576 190.164Z" fill="#001D9F"/>
<path d="M576.003 190.164V222.14C576.003 234.813 568.194 246.933 552.611 255.811V223.798C568.194 214.957 576.003 202.8 576.003 190.164Z" fill="black"/>
<path d="M576.005 190.164V222.14C576.005 224.351 575.784 226.561 575.305 228.734V196.758C575.784 194.548 576.005 192.374 576.005 190.164Z" fill="#001D9F"/>
<path d="M575.299 196.722V228.699C574.784 230.946 574.047 233.193 573.015 235.366V203.39C574.047 201.217 574.784 199.006 575.299 196.722Z" fill="#001D9F"/>
<path d="M573.024 203.389V235.365C571.846 237.907 570.298 240.375 568.383 242.77V210.794C570.298 208.436 571.846 205.931 573.024 203.389Z" fill="#001D9F"/>
<path d="M568.378 210.792V242.768C564.547 247.557 559.315 251.978 552.611 255.773V223.796C559.315 220.002 564.583 215.581 568.378 210.792Z" fill="#001D9F"/>
<path d="M269.093 232.123V264.099C265.851 261.41 262.167 260.084 258.594 260.084C256.199 260.084 253.842 260.673 251.705 261.889V229.913C253.842 228.697 256.199 228.107 258.594 228.107C262.204 228.107 265.888 229.434 269.093 232.123Z" fill="#001D9F"/>
<path d="M269.097 232.123V264.099C265.855 261.41 262.171 260.084 258.598 260.084C256.203 260.084 253.845 260.673 251.709 261.889V229.912C253.845 228.697 256.203 228.107 258.598 228.107C262.208 228.107 265.892 229.434 269.097 232.123Z" fill="black"/>
<path d="M269.097 232.123V264.099C265.855 261.41 262.171 260.084 258.598 260.084C256.203 260.084 253.845 260.673 251.709 261.889V229.912C253.845 228.697 256.203 228.107 258.598 228.107C262.208 228.107 265.892 229.434 269.097 232.123Z" fill="#001D9F"/>
<path d="M276.474 238.167V270.181L269.106 264.102V232.126L276.474 238.167Z" fill="#001D9F"/>
<path d="M279.165 242.623V274.6C279.165 273.089 278.318 271.689 276.476 270.142V238.166C278.318 239.713 279.165 241.113 279.165 242.623Z" fill="#001D9F"/>
<path d="M279.163 242.624V274.6C279.163 273.09 278.316 271.69 276.474 270.143V238.166C278.316 239.714 279.163 241.113 279.163 242.624Z" fill="black"/>
<path d="M279.163 242.624V274.6C279.163 273.09 278.316 271.69 276.474 270.143V238.166C278.316 239.714 279.163 241.113 279.163 242.624Z" fill="#001D9F"/>
<path d="M251.754 229.913V261.89L209.242 286.056V254.08L251.754 229.913Z" fill="#001D9F"/>
<path d="M326.469 243.433V275.409C326.469 279.204 325.4 283.072 323.043 286.829V254.853C325.363 251.096 326.469 247.227 326.469 243.433Z" fill="#001D9F"/>
<path d="M326.468 243.434V275.41C326.468 279.204 325.4 283.072 323.042 286.83V254.854C325.363 251.096 326.468 247.228 326.468 243.434Z" fill="black"/>
<path d="M326.471 243.434V275.41C326.471 276.847 326.323 278.283 325.992 279.72V247.744C326.286 246.307 326.471 244.87 326.471 243.434Z" fill="#001D9F"/>
<path d="M325.984 247.743V279.719C325.653 281.23 325.137 282.74 324.437 284.214V252.237C325.137 250.727 325.653 249.254 325.984 247.743Z" fill="#001D9F"/>
<path d="M324.442 252.237V284.214C324.036 285.098 323.558 285.945 323.042 286.792V254.816C323.558 253.969 324.036 253.121 324.442 252.237Z" fill="#001D9F"/>
<path d="M209.233 254.082V286.058C202.345 289.963 198.624 293.02 191.514 302.193V270.217C198.624 261.044 202.345 257.987 209.233 254.082Z" fill="#001D9F"/>
<path d="M209.227 254.083V286.06C202.338 289.965 198.618 293.022 191.508 302.195V270.219C198.618 261.046 202.338 257.988 209.227 254.083Z" fill="black"/>
<path d="M209.232 254.083V286.06C202.749 289.744 199.065 292.654 192.728 300.685V268.708C199.065 260.678 202.749 257.767 209.232 254.083Z" fill="#001D9F"/>
<path d="M192.728 268.708V300.685C192.36 301.164 191.955 301.679 191.55 302.194V270.218C191.955 269.703 192.323 269.187 192.728 268.708Z" fill="#001D9F"/>
<path d="M191.509 270.214V302.191L156.917 284.176V252.2L191.509 270.214Z" fill="#001D9F"/>
<path d="M467.625 272.132V304.109L316.291 179.077V147.101L467.625 272.132Z" fill="#001D9F"/>
<path d="M552.622 223.797V255.81L467.635 304.106V272.13L552.622 223.797Z" fill="#001D9F"/>
<path d="M323.031 254.816V286.829L288.808 341.866V309.89L323.031 254.816Z" fill="#001D9F"/>
<path d="M287.551 346.286V314.31C287.551 312.873 287.956 311.4 288.804 309.926V341.902C287.956 343.376 287.551 344.812 287.551 346.286Z" fill="#001D9F"/>
<path d="M287.552 346.286V314.31C287.552 312.873 287.957 311.4 288.805 309.926V341.902C287.957 343.376 287.552 344.813 287.552 346.286Z" fill="black"/>
<path d="M288.797 309.89V341.867C288.65 342.124 288.54 342.382 288.429 342.603V310.627C288.54 310.369 288.65 310.148 288.797 309.89Z" fill="#001D9F"/>
<path d="M288.432 310.628V342.604C288.137 343.267 287.879 343.93 287.769 344.593V312.617C287.879 311.954 288.1 311.291 288.432 310.628Z" fill="#001D9F"/>
<path d="M287.736 312.617V344.594C287.626 345.146 287.552 345.699 287.552 346.288V314.312C287.552 313.723 287.626 313.17 287.736 312.617Z" fill="#001D9F"/>
<path d="M117.244 299.465V331.442L55.2071 366.733V334.72L117.244 299.465Z" fill="#001D9F"/>
<path d="M242.355 344.557V312.581C242.355 323.154 247.807 333.69 257.385 341.647V373.623C247.807 365.666 242.355 355.13 242.355 344.557Z" fill="#001D9F"/>
<path d="M242.35 344.557V312.581C242.35 323.154 247.803 333.69 257.381 341.647V373.623C247.803 365.666 242.35 355.13 242.35 344.557Z" fill="black"/>
<path d="M257.423 341.611V373.587C247.845 365.667 242.393 355.131 242.393 344.521V312.545C242.356 323.155 247.808 333.691 257.423 341.611Z" fill="#001D9F"/>
<path d="M48.4766 375.133V343.157C48.4766 340.173 50.7606 337.299 55.2182 334.721V366.697C50.7238 369.276 48.4766 372.149 48.4766 375.133Z" fill="#001D9F"/>
<path d="M48.4796 375.134V343.157C48.4796 340.173 50.7636 337.3 55.2211 334.721V366.697C50.7268 369.276 48.4796 372.15 48.4796 375.134Z" fill="black"/>
<path d="M55.2095 334.721V366.697C52.9623 367.987 51.2677 369.35 50.1626 370.75V338.774C51.2677 337.374 52.9623 336.011 55.2095 334.721Z" fill="#001D9F"/>
<path d="M50.1376 338.773V370.749C49.6955 371.301 49.3271 371.891 49.0692 372.48V340.504C49.3639 339.915 49.6955 339.362 50.1376 338.773Z" fill="#001D9F"/>
<path d="M49.0618 340.506V372.482C48.8408 372.924 48.6934 373.403 48.5829 373.845V341.869C48.6934 341.427 48.8408 340.948 49.0618 340.506Z" fill="#001D9F"/>
<path d="M48.5847 341.87V373.846C48.4742 374.251 48.4373 374.693 48.4373 375.135V343.159C48.4742 342.717 48.511 342.312 48.5847 341.87Z" fill="#001D9F"/>
<path d="M0.0638976 374.137V342.16C0.0638976 350.449 4.85294 358.811 14.5784 366.842V398.819C4.85294 390.788 0.0638976 382.462 0.0638976 374.137Z" fill="#001D9F"/>
<path d="M0.0638976 374.137V342.16C0.0638976 350.449 4.85294 358.811 14.5784 366.842V398.819C4.85294 390.788 0.0638976 382.462 0.0638976 374.137Z" fill="black"/>
<path d="M14.5784 366.842V398.819C4.85294 390.751 0.0638976 382.425 0.0638976 374.137V342.16C0.0638976 350.449 4.85294 358.811 14.5784 366.842Z" fill="#001D9F"/>
<path d="M293.301 371.265V403.242L257.42 373.623V341.61L293.301 371.265Z" fill="#001D9F"/>
<path d="M416.425 301.271V333.248L293.309 403.242V371.265L416.425 301.271Z" fill="#001D9F"/>
<path d="M29.9482 379.554V411.53L14.5863 398.857V366.844L29.9482 379.554Z" fill="#001D9F"/>
<path d="M168.757 381.175V413.151C165.921 410.794 162.605 409.799 158.442 409.799C157.227 409.799 155.937 409.873 154.574 410.057V378.081C155.937 377.933 157.227 377.823 158.442 377.823C162.605 377.823 165.921 378.817 168.757 381.175Z" fill="#001D9F"/>
<path d="M168.755 381.174V413.15C165.918 410.792 162.602 409.797 158.44 409.797C157.224 409.797 155.935 409.871 154.571 410.055V378.079C155.935 377.932 157.224 377.821 158.44 377.821C162.602 377.821 165.918 378.816 168.755 381.174Z" fill="black"/>
<path d="M168.755 381.174V413.15C165.918 410.792 162.602 409.797 158.44 409.797C157.224 409.797 155.935 409.871 154.571 410.055V378.079C155.935 377.932 157.224 377.821 158.44 377.821C162.602 377.821 165.918 378.816 168.755 381.174Z" fill="#001D9F"/>
<path d="M174.164 385.633V417.609L168.749 413.152V381.176L174.164 385.633Z" fill="#001D9F"/>
<path d="M154.572 378.042L154.571 410.055L71.4263 421.144V389.167L154.572 378.042Z" fill="#001D9F"/>
<path d="M71.42 389.168V421.144C66.9993 421.77 63.0207 422.102 59.3737 422.102C46.7011 422.102 38.1913 418.344 29.9394 411.566V379.59C38.1913 386.405 46.7011 390.126 59.3737 390.126C62.9839 390.089 66.9993 389.794 71.42 389.168Z" fill="#001D9F"/>
<path d="M71.4263 389.167V421.144C67.0057 421.77 63.0273 422.102 59.3802 422.102C46.7076 422.102 38.1978 418.344 29.9459 411.566V379.59C38.1978 386.405 46.7076 390.126 59.3802 390.126C62.9904 390.089 67.0057 389.794 71.4263 389.167Z" fill="black"/>
<path d="M71.4263 389.167V421.144C67.0057 421.77 63.0273 422.102 59.3802 422.102C46.7076 422.102 38.1978 418.344 29.9459 411.566V379.59C38.1978 386.405 46.7076 390.126 59.3802 390.126C62.9904 390.089 67.0057 389.794 71.4263 389.167Z" fill="#001D9F"/>
<path d="M178.483 392.633V424.609C178.483 422.362 177.083 420.004 174.173 417.61V385.633C177.083 388.028 178.483 390.349 178.483 392.633Z" fill="#001D9F"/>
<path d="M178.485 392.635V424.611C178.485 422.364 177.085 420.006 174.175 417.611V385.635C177.085 388.03 178.485 390.351 178.485 392.635Z" fill="black"/>
<path d="M178.485 392.635V424.611C178.485 422.364 177.085 420.006 174.175 417.611V385.635C177.085 388.03 178.485 390.351 178.485 392.635Z" fill="#001D9F"/>
<path d="M226.85 393.775V425.751C226.85 437.503 217.235 449.181 198.521 459.827V427.851C217.235 417.205 226.85 405.527 226.85 393.775Z" fill="#001D9F"/>
<path d="M226.854 393.775V425.751C226.854 437.503 217.239 449.181 198.525 459.827V427.851C217.239 417.205 226.854 405.527 226.854 393.775Z" fill="black"/>
<path d="M226.857 393.775V425.751C226.857 427.335 226.673 428.919 226.341 430.503V398.527C226.673 396.943 226.857 395.359 226.857 393.775Z" fill="#001D9F"/>
<path d="M226.346 398.527V430.504C225.941 432.272 225.352 434.04 224.541 435.808V403.832C225.352 402.064 225.941 400.296 226.346 398.527Z" fill="#001D9F"/>
<path d="M224.532 403.794V435.771C223.464 438.018 222.064 440.265 220.296 442.512V410.536C222.064 408.326 223.464 406.078 224.532 403.794Z" fill="#001D9F"/>
<path d="M220.302 410.536V442.512C215.55 448.48 208.292 454.3 198.567 459.826V427.85C208.292 422.324 215.55 416.503 220.302 410.536Z" fill="#001D9F"/>
<path d="M198.513 427.851V459.827L133.492 496.813V464.8L198.513 427.851Z" fill="#001D9F"/>
<path d="M133.503 464.797V496.81L103.258 471.797V439.784L133.503 464.797Z" fill="#001D9F"/>
<path d="M463.207 97.6983V129.675C457.57 125.033 450.939 122.675 444.382 122.675C439.851 122.675 435.393 123.817 431.341 126.138V94.1249C435.393 91.804 439.851 90.662 444.382 90.662C450.939 90.6989 457.57 93.0566 463.207 97.6983Z" fill="#0055D5"/>
<path d="M463.209 97.6974V129.674C457.573 125.032 450.942 122.674 444.385 122.674C439.853 122.674 435.396 123.816 431.344 126.137V94.124C435.396 91.8032 439.853 90.6611 444.385 90.6611C450.942 90.698 457.573 93.0557 463.209 97.6974Z" fill="black"/>
<path d="M463.209 97.6974V129.674C457.573 125.032 450.942 122.674 444.385 122.674C439.853 122.674 435.396 123.816 431.344 126.137V94.124C435.396 91.8032 439.853 90.6611 444.385 90.6611C450.942 90.698 457.573 93.0557 463.209 97.6974Z" fill="#0055D5"/>
<path d="M431.345 94.1258V126.139L380.802 154.873V122.86L431.345 94.1258Z" fill="#0055D5"/>
<path d="M523.101 147.21V179.187L463.201 129.675V97.6987L523.101 147.21Z" fill="#0055D5"/>
<path d="M530.099 158.776V190.752C530.099 187.031 527.815 183.053 523.136 179.185V147.208C527.815 151.076 530.099 155.055 530.099 158.776Z" fill="#0055D5"/>
<path d="M530.096 158.776V190.753C530.096 187.032 527.812 183.053 523.133 179.185V147.209C527.812 151.077 530.096 155.056 530.096 158.776Z" fill="black"/>
<path d="M530.096 158.776V190.753C530.096 187.032 527.812 183.053 523.133 179.185V147.209C527.812 151.077 530.096 155.056 530.096 158.776Z" fill="#0055D5"/>
<path d="M576 160.692V192.669C576 205.341 568.19 217.461 552.607 226.339V194.326C568.19 185.485 576 173.328 576 160.692Z" fill="#0055D5"/>
<path d="M576.003 160.692V192.668C576.003 205.341 568.194 217.461 552.611 226.339V194.326C568.194 185.484 576.003 173.327 576.003 160.692Z" fill="black"/>
<path d="M576.005 160.692V192.668C576.005 194.878 575.784 197.089 575.305 199.262V167.286C575.784 165.076 576.005 162.902 576.005 160.692Z" fill="#0055D5"/>
<path d="M575.299 167.25V199.226C574.784 201.473 574.047 203.721 573.015 205.894V173.918C574.047 171.744 574.784 169.534 575.299 167.25Z" fill="#0055D5"/>
<path d="M573.024 173.917V205.893C571.846 208.435 570.298 210.903 568.383 213.297V181.321C570.298 178.964 571.846 176.459 573.024 173.917Z" fill="#0055D5"/>
<path d="M568.378 181.32V213.296C564.547 218.085 559.315 222.506 552.611 226.3V194.324C559.315 190.53 564.583 186.109 568.378 181.32Z" fill="#0055D5"/>
<path d="M269.093 202.65V234.627C265.851 231.937 262.167 230.611 258.594 230.611C256.199 230.611 253.842 231.201 251.705 232.416V200.44C253.842 199.224 256.199 198.635 258.594 198.635C262.204 198.635 265.888 199.961 269.093 202.65Z" fill="#0055D5"/>
<path d="M269.097 202.65V234.626C265.855 231.937 262.171 230.611 258.598 230.611C256.203 230.611 253.845 231.2 251.709 232.416V200.439C253.845 199.224 256.203 198.634 258.598 198.634C262.208 198.634 265.892 199.961 269.097 202.65Z" fill="black"/>
<path d="M269.097 202.65V234.626C265.855 231.937 262.171 230.611 258.598 230.611C256.203 230.611 253.845 231.2 251.709 232.416V200.439C253.845 199.224 256.203 198.634 258.598 198.634C262.208 198.634 265.892 199.961 269.097 202.65Z" fill="#0055D5"/>
<path d="M276.474 208.695V240.708L269.106 234.63V202.653L276.474 208.695Z" fill="#0055D5"/>
<path d="M279.165 213.152V245.128C279.165 243.618 278.318 242.218 276.476 240.67V208.694C278.318 210.241 279.165 211.641 279.165 213.152Z" fill="#0055D5"/>
<path d="M279.163 213.151V245.127C279.163 243.617 278.316 242.217 276.474 240.67V208.693C278.316 210.241 279.163 211.64 279.163 213.151Z" fill="black"/>
<path d="M279.163 213.151V245.127C279.163 243.617 278.316 242.217 276.474 240.67V208.693C278.316 210.241 279.163 211.64 279.163 213.151Z" fill="#0055D5"/>
<path d="M251.754 200.441V232.417L209.242 256.583V224.607L251.754 200.441Z" fill="#0055D5"/>
<path d="M326.469 213.96V245.937C326.469 249.731 325.4 253.599 323.043 257.357V225.381C325.363 221.623 326.469 217.755 326.469 213.96Z" fill="#0055D5"/>
<path d="M326.468 213.959V245.935C326.468 249.729 325.4 253.597 323.042 257.355V225.379C325.363 221.621 326.468 217.753 326.468 213.959Z" fill="black"/>
<path d="M326.471 213.959V245.935C326.471 247.372 326.323 248.808 325.992 250.245V218.269C326.286 216.832 326.471 215.395 326.471 213.959Z" fill="#0055D5"/>
<path d="M325.984 218.268V250.244C325.653 251.755 325.137 253.265 324.437 254.739V222.762C325.137 221.252 325.653 219.779 325.984 218.268Z" fill="#0055D5"/>
<path d="M324.442 222.762V254.738C324.036 255.623 323.558 256.47 323.042 257.317V225.341C323.558 224.494 324.036 223.646 324.442 222.762Z" fill="#0055D5"/>
<path d="M209.233 224.609V256.585C202.345 260.49 198.624 263.548 191.514 272.721V240.745C198.624 231.572 202.345 228.514 209.233 224.609Z" fill="#0055D5"/>
<path d="M209.227 224.608V256.585C202.338 260.49 198.618 263.547 191.508 272.72V240.744C198.618 231.571 202.338 228.513 209.227 224.608Z" fill="black"/>
<path d="M209.232 224.608V256.585C202.749 260.269 199.065 263.179 192.728 271.21V239.233C199.065 231.203 202.749 228.292 209.232 224.608Z" fill="#0055D5"/>
<path d="M192.729 239.232V271.208C192.36 271.687 191.955 272.203 191.55 272.719V240.742C191.955 240.227 192.323 239.711 192.729 239.232Z" fill="#0055D5"/>
<path d="M191.509 240.742V272.718L156.917 254.704V222.728L191.509 240.742Z" fill="#0055D5"/>
<path d="M467.625 242.661V274.637L316.291 149.606V117.629L467.625 242.661Z" fill="#0055D5"/>
<path d="M552.622 194.325V226.338L467.635 274.634V242.658L552.622 194.325Z" fill="#0055D5"/>
<path d="M323.031 225.343V257.356L288.808 312.393V280.417L323.031 225.343Z" fill="#0055D5"/>
<path d="M287.551 316.815V284.839C287.551 283.402 287.956 281.929 288.804 280.455V312.431C287.956 313.905 287.551 315.342 287.551 316.815Z" fill="#0055D5"/>
<path d="M287.552 316.815V284.839C287.552 283.402 287.957 281.929 288.805 280.455V312.431C287.957 313.905 287.552 315.342 287.552 316.815Z" fill="black"/>
<path d="M288.797 280.419V312.395C288.65 312.653 288.54 312.911 288.429 313.132V281.155C288.54 280.898 288.65 280.676 288.797 280.419Z" fill="#0055D5"/>
<path d="M288.432 281.156V313.132C288.137 313.795 287.879 314.458 287.769 315.122V283.145C287.879 282.482 288.1 281.819 288.432 281.156Z" fill="#0055D5"/>
<path d="M287.736 283.146V315.122C287.626 315.675 287.552 316.227 287.552 316.817V284.84C287.552 284.251 287.626 283.698 287.736 283.146Z" fill="#0055D5"/>
<path d="M117.244 269.993V301.969L55.2071 337.261V305.248L117.244 269.993Z" fill="#0055D5"/>
<path d="M242.355 315.086V283.11C242.355 293.682 247.807 304.218 257.385 312.176V344.152C247.807 336.195 242.355 325.659 242.355 315.086Z" fill="#0055D5"/>
<path d="M242.35 315.086V283.11C242.35 293.683 247.803 304.219 257.381 312.176V344.152C247.803 336.195 242.35 325.659 242.35 315.086Z" fill="black"/>
<path d="M257.423 312.139V344.115C247.845 336.195 242.393 325.659 242.393 315.049V283.11C242.356 293.682 247.808 304.218 257.423 312.139Z" fill="#0055D5"/>
<path d="M48.4766 345.661V313.685C48.4766 310.701 50.7606 307.828 55.2182 305.249V337.225C50.7238 339.804 48.4766 342.677 48.4766 345.661Z" fill="#0055D5"/>
<path d="M48.4796 345.661V313.685C48.4796 310.701 50.7636 307.828 55.2211 305.249V337.225C50.7268 339.804 48.4796 342.677 48.4796 345.661Z" fill="black"/>
<path d="M55.2095 305.249V337.225C52.9623 338.515 51.2677 339.878 50.1626 341.277V309.301C51.2677 307.901 52.9623 306.538 55.2095 305.249Z" fill="#0055D5"/>
<path d="M50.1376 309.3V341.276C49.6955 341.829 49.3271 342.418 49.0692 343.008V311.032C49.3639 310.442 49.6955 309.89 50.1376 309.3Z" fill="#0055D5"/>
<path d="M49.0618 311.033V343.01C48.8408 343.452 48.6934 343.931 48.5829 344.373V312.396C48.6934 311.954 48.8408 311.475 49.0618 311.033Z" fill="#0055D5"/>
<path d="M48.5847 312.397V344.374C48.4742 344.779 48.4373 345.221 48.4373 345.663V313.687C48.4742 313.245 48.511 312.84 48.5847 312.397Z" fill="#0055D5"/>
<path d="M0.0638976 344.665V312.689C0.0638976 320.977 4.85294 329.34 14.5784 337.371V369.347C4.85294 361.316 0.0638976 352.99 0.0638976 344.665Z" fill="#0055D5"/>
<path d="M0.0638976 344.665V312.689C0.0638976 320.977 4.85294 329.34 14.5784 337.371V369.347C4.85294 361.316 0.0638976 352.99 0.0638976 344.665Z" fill="black"/>
<path d="M14.5784 337.371V369.347C4.85294 361.279 0.0638976 352.954 0.0638976 344.665V312.689C0.0638976 320.977 4.85294 329.34 14.5784 337.371Z" fill="#0055D5"/>
<path d="M293.301 341.794V373.77L257.42 344.151V312.138L293.301 341.794Z" fill="#0055D5"/>
<path d="M416.425 271.799V303.775L293.309 373.769V341.793L416.425 271.799Z" fill="#0055D5"/>
<path d="M29.9482 350.081V382.057L14.5863 369.385V337.372L29.9482 350.081Z" fill="#0055D5"/>
<path d="M168.757 351.704V383.68C165.921 381.322 162.605 380.327 158.442 380.327C157.227 380.327 155.937 380.401 154.574 380.585V348.609C155.937 348.462 157.227 348.351 158.442 348.351C162.605 348.351 165.921 349.346 168.757 351.704Z" fill="#0055D5"/>
<path d="M168.755 351.703V383.679C165.918 381.321 162.602 380.327 158.44 380.327C157.224 380.327 155.935 380.4 154.571 380.584V348.608C155.935 348.461 157.224 348.35 158.44 348.35C162.602 348.35 165.918 349.345 168.755 351.703Z" fill="black"/>
<path d="M168.755 351.703V383.679C165.918 381.321 162.602 380.327 158.44 380.327C157.224 380.327 155.935 380.4 154.571 380.584V348.608C155.935 348.461 157.224 348.35 158.44 348.35C162.602 348.35 165.918 349.345 168.755 351.703Z" fill="#0055D5"/>
<path d="M174.164 356.162V388.138L168.749 383.68V351.704L174.164 356.162Z" fill="#0055D5"/>
<path d="M154.572 348.571L154.571 380.584L71.4263 391.673V359.697L154.572 348.571Z" fill="#0055D5"/>
<path d="M71.42 359.695V391.672C66.9993 392.298 63.0207 392.629 59.3737 392.629C46.7011 392.629 38.1913 388.872 29.9394 382.093V350.117C38.1913 356.932 46.7011 360.653 59.3737 360.653C62.9839 360.616 66.9993 360.322 71.42 359.695Z" fill="#0055D5"/>
<path d="M71.4266 359.695V391.671C67.0059 392.297 63.0273 392.629 59.3802 392.629C46.7076 392.629 38.1978 388.871 29.9459 382.093V350.117C38.1978 356.932 46.7076 360.652 59.3802 360.652C62.9904 360.616 67.0059 360.321 71.4266 359.695Z" fill="black"/>
<path d="M71.4266 359.695V391.671C67.0059 392.297 63.0273 392.629 59.3802 392.629C46.7076 392.629 38.1978 388.871 29.9459 382.093V350.117C38.1978 356.932 46.7076 360.652 59.3802 360.652C62.9904 360.616 67.0059 360.321 71.4266 359.695Z" fill="#0055D5"/>
<path d="M178.483 363.16V395.136C178.483 392.889 177.083 390.532 174.173 388.137V356.161C177.083 358.555 178.483 360.876 178.483 363.16Z" fill="#0055D5"/>
<path d="M178.485 363.16V395.136C178.485 392.889 177.085 390.531 174.175 388.136V356.16C177.085 358.555 178.485 360.876 178.485 363.16Z" fill="black"/>
<path d="M178.485 363.16V395.136C178.485 392.889 177.085 390.531 174.175 388.136V356.16C177.085 358.555 178.485 360.876 178.485 363.16Z" fill="#0055D5"/>
<path d="M226.85 364.302V396.279C226.85 408.03 217.235 419.708 198.521 430.355V398.378C217.235 387.732 226.85 376.054 226.85 364.302Z" fill="#0055D5"/>
<path d="M226.854 364.301V396.277C226.854 408.029 217.239 419.707 198.525 430.353V398.377C217.239 387.731 226.854 376.053 226.854 364.301Z" fill="black"/>
<path d="M226.857 364.301V396.277C226.857 397.861 226.673 399.445 226.341 401.029V369.053C226.673 367.469 226.857 365.885 226.857 364.301Z" fill="#0055D5"/>
<path d="M226.346 369.053V401.03C225.941 402.798 225.352 404.566 224.541 406.334V374.358C225.352 372.59 225.941 370.822 226.346 369.053Z" fill="#0055D5"/>
<path d="M224.532 374.32V406.297C223.464 408.544 222.064 410.791 220.296 413.038V381.062C222.064 378.852 223.464 376.604 224.532 374.32Z" fill="#0055D5"/>
<path d="M220.302 381.061V413.038C215.55 419.006 208.292 424.826 198.567 430.352V398.376C208.292 392.85 215.55 387.029 220.302 381.061Z" fill="#0055D5"/>
<path d="M198.513 398.379V430.355L133.492 467.342V435.329L198.513 398.379Z" fill="#0055D5"/>
<path d="M133.503 435.326V467.339L103.258 442.325V410.312L133.503 435.326Z" fill="#0055D5"/>
<path d="M463.207 68.2284V100.205C457.57 95.5629 450.939 93.2052 444.382 93.2052C439.851 93.2052 435.393 94.3472 431.341 96.6681V64.655C435.393 62.3342 439.851 61.1922 444.382 61.1922C450.939 61.229 457.57 63.5867 463.207 68.2284Z" fill="#00B3FE"/>
<path d="M463.209 68.2286V100.205C457.573 95.5631 450.942 93.2054 444.385 93.2054C439.853 93.2054 435.396 94.3474 431.344 96.6683V64.6552C435.396 62.3344 439.853 61.1924 444.385 61.1924C450.942 61.2292 457.573 63.5869 463.209 68.2286Z" fill="black"/>
<path d="M463.209 68.2286V100.205C457.573 95.5631 450.942 93.2054 444.385 93.2054C439.853 93.2054 435.396 94.3474 431.344 96.6683V64.6552C435.396 62.3344 439.853 61.1924 444.385 61.1924C450.942 61.2292 457.573 63.5869 463.209 68.2286Z" fill="#00B3FE"/>
<path d="M431.345 64.6559V96.669L380.802 125.403V93.3903L431.345 64.6559Z" fill="#00B3FE"/>
<path d="M523.101 117.74V149.716L463.201 100.204V68.2279L523.101 117.74Z" fill="#00B3FE"/>
<path d="M530.099 129.305V161.281C530.099 157.561 527.815 153.582 523.136 149.714V117.738C527.815 121.606 530.099 125.584 530.099 129.305Z" fill="#00B3FE"/>
<path d="M530.096 129.305V161.281C530.096 157.56 527.812 153.582 523.133 149.714V117.737C527.812 121.605 530.096 125.584 530.096 129.305Z" fill="black"/>
<path d="M530.096 129.305V161.281C530.096 157.56 527.812 153.582 523.133 149.714V117.737C527.812 121.605 530.096 125.584 530.096 129.305Z" fill="#00B3FE"/>
<path d="M576 131.222V163.198C576 175.87 568.19 187.99 552.607 196.869V164.856C568.19 156.014 576 143.857 576 131.222Z" fill="#00B3FE"/>
<path d="M576.003 131.221V163.198C576.003 175.87 568.194 187.99 552.611 196.869V164.855C568.194 156.014 576.003 143.857 576.003 131.221Z" fill="black"/>
<path d="M576.005 131.221V163.198C576.005 165.408 575.784 167.618 575.305 169.792V137.816C575.784 135.605 576.005 133.432 576.005 131.221Z" fill="#00B3FE"/>
<path d="M575.299 137.78V169.756C574.784 172.003 574.047 174.25 573.015 176.424V144.448C574.047 142.274 574.784 140.064 575.299 137.78Z" fill="#00B3FE"/>
<path d="M573.024 144.446V176.423C571.846 178.965 570.298 181.433 568.383 183.827V151.851C570.298 149.493 571.846 146.988 573.024 144.446Z" fill="#00B3FE"/>
<path d="M568.378 151.85V183.826C564.547 188.615 559.315 193.036 552.611 196.83V164.854C559.315 161.059 564.583 156.639 568.378 151.85Z" fill="#00B3FE"/>
<path d="M269.093 173.18V205.157C265.851 202.467 262.167 201.141 258.594 201.141C256.199 201.141 253.842 201.731 251.705 202.946V170.97C253.842 169.754 256.199 169.165 258.594 169.165C262.204 169.165 265.888 170.491 269.093 173.18Z" fill="#00B3FE"/>
<path d="M269.097 173.18V205.157C265.855 202.467 262.171 201.141 258.598 201.141C256.203 201.141 253.845 201.73 251.709 202.946V170.97C253.845 169.754 256.203 169.165 258.598 169.165C262.208 169.165 265.892 170.491 269.097 173.18Z" fill="black"/>
<path d="M269.097 173.18V205.157C265.855 202.467 262.171 201.141 258.598 201.141C256.203 201.141 253.845 201.73 251.709 202.946V170.97C253.845 169.754 256.203 169.165 258.598 169.165C262.208 169.165 265.892 170.491 269.097 173.18Z" fill="#00B3FE"/>
<path d="M276.474 179.225V211.238L269.106 205.16V173.183L276.474 179.225Z" fill="#00B3FE"/>
<path d="M279.165 183.682V215.658C279.165 214.148 278.318 212.748 276.476 211.201V179.224C278.318 180.772 279.165 182.171 279.165 183.682Z" fill="#00B3FE"/>
<path d="M279.163 183.682V215.658C279.163 214.148 278.316 212.748 276.474 211.201L276.474 179.225C278.316 180.772 279.163 182.172 279.163 183.682Z" fill="black"/>
<path d="M279.163 183.682V215.658C279.163 214.148 278.316 212.748 276.474 211.201L276.474 179.225C278.316 180.772 279.163 182.172 279.163 183.682Z" fill="#00B3FE"/>
<path d="M251.754 170.971V202.947L209.242 227.114V195.137L251.754 170.971Z" fill="#00B3FE"/>
<path d="M326.469 184.491V216.467C326.469 220.261 325.4 224.129 323.043 227.887V195.911C325.363 192.153 326.469 188.285 326.469 184.491Z" fill="#00B3FE"/>
<path d="M326.468 184.492V216.468C326.468 220.262 325.4 224.131 323.042 227.888V195.912C325.363 192.154 326.468 188.286 326.468 184.492Z" fill="black"/>
<path d="M326.471 184.492V216.468C326.471 217.905 326.323 219.342 325.992 220.778V188.802C326.286 187.365 326.471 185.929 326.471 184.492Z" fill="#00B3FE"/>
<path d="M325.984 188.801V220.778C325.653 222.288 325.137 223.798 324.437 225.272V193.296C325.137 191.785 325.653 190.312 325.984 188.801Z" fill="#00B3FE"/>
<path d="M324.442 193.295V225.272C324.036 226.156 323.558 227.003 323.042 227.85V195.874C323.558 195.027 324.036 194.18 324.442 193.295Z" fill="#00B3FE"/>
<path d="M209.233 195.139V227.115C202.345 231.02 198.624 234.078 191.514 243.251V211.275C198.624 202.102 202.345 199.044 209.233 195.139Z" fill="#00B3FE"/>
<path d="M209.227 195.141V227.117C202.338 231.022 198.618 234.08 191.508 243.253V211.276C198.618 202.103 202.338 199.046 209.227 195.141Z" fill="black"/>
<path d="M209.232 195.141V227.117C202.749 230.801 199.065 233.711 192.728 241.742V209.766C199.065 201.735 202.749 198.825 209.232 195.141Z" fill="#00B3FE"/>
<path d="M192.728 209.766V241.742C192.36 242.221 191.955 242.736 191.55 243.252V211.276C191.955 210.76 192.323 210.245 192.728 209.766Z" fill="#00B3FE"/>
<path d="M191.509 211.272V243.248L156.917 225.234V193.258L191.509 211.272Z" fill="#00B3FE"/>
<path d="M467.625 213.191V245.167L316.291 120.136V88.1594L467.625 213.191Z" fill="#00B3FE"/>
<path d="M552.622 164.855V196.868L467.635 245.164V213.187L552.622 164.855Z" fill="#00B3FE"/>
<path d="M323.031 195.873V227.886L288.808 282.924V250.947L323.031 195.873Z" fill="#00B3FE"/>
<path d="M287.551 287.344V255.368C287.551 253.932 287.956 252.458 288.804 250.984V282.961C287.956 284.434 287.551 285.871 287.551 287.344Z" fill="#00B3FE"/>
<path d="M287.552 287.344V255.368C287.552 253.931 287.957 252.458 288.805 250.984V282.961C287.957 284.434 287.552 285.871 287.552 287.344Z" fill="black"/>
<path d="M288.797 250.948V282.925C288.65 283.183 288.54 283.44 288.429 283.661V251.685C288.54 251.427 288.65 251.206 288.797 250.948Z" fill="#00B3FE"/>
<path d="M288.432 251.686V283.662C288.137 284.325 287.879 284.988 287.769 285.651V253.675C287.879 253.012 288.1 252.349 288.432 251.686Z" fill="#00B3FE"/>
<path d="M287.736 253.676V285.652C287.626 286.204 287.552 286.757 287.552 287.346V255.37C287.552 254.781 287.626 254.228 287.736 253.676Z" fill="#00B3FE"/>
<path d="M117.244 240.522V272.498L55.2071 307.79V275.777L117.244 240.522Z" fill="#00B3FE"/>
<path d="M242.355 285.615V253.639C242.355 264.212 247.807 274.747 257.385 282.705V314.681C247.807 306.724 242.355 296.188 242.355 285.615Z" fill="#00B3FE"/>
<path d="M242.35 285.614V253.638C242.35 264.211 247.803 274.747 257.381 282.704V314.68C247.803 306.723 242.35 296.187 242.35 285.614Z" fill="black"/>
<path d="M257.423 282.667V314.643C247.845 306.723 242.393 296.187 242.393 285.577V253.638C242.356 264.211 247.808 274.747 257.423 282.667Z" fill="#00B3FE"/>
<path d="M48.4766 316.191V284.215C48.4766 281.231 50.7606 278.358 55.2182 275.779V307.755C50.7238 310.334 48.4766 313.208 48.4766 316.191Z" fill="#00B3FE"/>
<path d="M48.4796 316.192V284.216C48.4796 281.232 50.7636 278.358 55.2211 275.779V307.756C50.7268 310.334 48.4796 313.208 48.4796 316.192Z" fill="black"/>
<path d="M55.2095 275.779V307.756C52.9623 309.045 51.2677 310.408 50.1626 311.808V279.832C51.2677 278.432 52.9623 277.069 55.2095 275.779Z" fill="#00B3FE"/>
<path d="M50.1376 279.831V311.807C49.6955 312.36 49.3271 312.949 49.0692 313.538V281.562C49.3639 280.973 49.6955 280.42 50.1376 279.831Z" fill="#00B3FE"/>
<path d="M49.0618 281.564V313.54C48.8408 313.982 48.6934 314.461 48.5829 314.903V282.927C48.6934 282.485 48.8408 282.006 49.0618 281.564Z" fill="#00B3FE"/>
<path d="M48.5847 282.928V314.904C48.4742 315.309 48.4373 315.751 48.4373 316.194V284.217C48.4742 283.775 48.511 283.37 48.5847 282.928Z" fill="#00B3FE"/>
<path d="M0.0638976 315.194V283.218C0.0638976 291.507 4.85294 299.869 14.5784 307.9V339.876C4.85294 331.845 0.0638976 323.52 0.0638976 315.194Z" fill="#00B3FE"/>
<path d="M0.0638976 315.194V283.218C0.0638976 291.507 4.85294 299.869 14.5784 307.9V339.876C4.85294 331.845 0.0638976 323.52 0.0638976 315.194Z" fill="black"/>
<path d="M14.5784 307.9V339.876C4.85294 331.808 0.0638976 323.483 0.0638976 315.194V283.218C0.0638976 291.507 4.85294 299.869 14.5784 307.9Z" fill="#00B3FE"/>
<path d="M293.301 312.324V344.3L257.42 314.682V282.668L293.301 312.324Z" fill="#00B3FE"/>
<path d="M416.425 242.328V274.304L293.309 344.298V312.322L416.425 242.328Z" fill="#00B3FE"/>
<path d="M29.9482 320.61V352.586L14.5863 339.914V307.901L29.9482 320.61Z" fill="#00B3FE"/>
<path d="M168.757 322.233V354.209C165.921 351.851 162.605 350.857 158.442 350.857C157.227 350.857 155.937 350.93 154.574 351.115V319.138C155.937 318.991 157.227 318.88 158.442 318.88C162.605 318.88 165.921 319.875 168.757 322.233Z" fill="#00B3FE"/>
<path d="M168.755 322.231V354.207C165.918 351.85 162.602 350.855 158.44 350.855C157.224 350.855 155.935 350.929 154.571 351.113V319.137C155.935 318.989 157.224 318.879 158.44 318.879C162.602 318.879 165.918 319.873 168.755 322.231Z" fill="black"/>
<path d="M168.755 322.231V354.207C165.918 351.85 162.602 350.855 158.44 350.855C157.224 350.855 155.935 350.929 154.571 351.113V319.137C155.935 318.989 157.224 318.879 158.44 318.879C162.602 318.879 165.918 319.873 168.755 322.231Z" fill="#00B3FE"/>
<path d="M174.164 326.691V358.667L168.749 354.209V322.233L174.164 326.691Z" fill="#00B3FE"/>
<path d="M154.572 319.1L154.571 351.113L71.4263 362.202V330.226L154.572 319.1Z" fill="#00B3FE"/>
<path d="M71.42 330.225V362.202C66.9993 362.828 63.0207 363.16 59.3737 363.16C46.7011 363.16 38.1913 359.402 29.9394 352.624V320.647C38.1913 327.463 46.7011 331.183 59.3737 331.183C62.9839 331.146 66.9993 330.852 71.42 330.225Z" fill="#00B3FE"/>
<path d="M71.4263 330.226V362.202C67.0057 362.828 63.0273 363.159 59.3802 363.159C46.7076 363.159 38.1978 359.402 29.9459 352.623V320.647C38.1978 327.462 46.7076 331.183 59.3802 331.183C62.9904 331.146 67.0057 330.852 71.4263 330.226Z" fill="black"/>
<path d="M71.4263 330.226V362.202C67.0057 362.828 63.0273 363.159 59.3802 363.159C46.7076 363.159 38.1978 359.402 29.9459 352.623V320.647C38.1978 327.462 46.7076 331.183 59.3802 331.183C62.9904 331.146 67.0057 330.852 71.4263 330.226Z" fill="#00B3FE"/>
<path d="M178.483 333.691V365.667C178.483 363.42 177.083 361.063 174.173 358.668V326.692C177.083 329.086 178.483 331.407 178.483 333.691Z" fill="#00B3FE"/>
<path d="M178.485 333.692V365.668C178.485 363.421 177.085 361.063 174.175 358.669V326.693C177.085 329.087 178.485 331.408 178.485 333.692Z" fill="black"/>
<path d="M178.485 333.692V365.668C178.485 363.421 177.085 361.063 174.175 358.669V326.693C177.085 329.087 178.485 331.408 178.485 333.692Z" fill="#00B3FE"/>
<path d="M226.85 334.833V366.809C226.85 378.56 217.235 390.238 198.521 400.885V368.909C217.235 358.262 226.85 346.584 226.85 334.833Z" fill="#00B3FE"/>
<path d="M226.854 334.833V366.81C226.854 378.561 217.239 390.239 198.525 400.886V368.909C217.239 358.263 226.854 346.585 226.854 334.833Z" fill="black"/>
<path d="M226.857 334.833V366.81C226.857 368.394 226.673 369.978 226.341 371.562V339.586C226.673 338.002 226.857 336.417 226.857 334.833Z" fill="#00B3FE"/>
<path d="M226.346 339.586V371.562C225.941 373.33 225.352 375.099 224.541 376.867V344.891C225.352 343.122 225.941 341.354 226.346 339.586Z" fill="#00B3FE"/>
<path d="M224.532 344.853V376.829C223.464 379.076 222.064 381.323 220.296 383.571V351.594C222.064 349.384 223.464 347.137 224.532 344.853Z" fill="#00B3FE"/>
<path d="M220.302 351.594V383.57C215.55 389.538 208.292 395.359 198.567 400.885V368.908C208.292 363.382 215.55 357.562 220.302 351.594Z" fill="#00B3FE"/>
<path d="M198.513 368.909V400.885L133.492 437.872V405.859L198.513 368.909Z" fill="#00B3FE"/>
<path d="M133.503 405.855V437.868L103.258 412.854V380.841L133.503 405.855Z" fill="#00B3FE"/>
<path d="M463.207 38.7558V70.7321C457.57 66.0904 450.939 63.7327 444.382 63.7327C439.851 63.7327 435.393 64.8747 431.341 67.1955V35.1825C435.393 32.8616 439.851 31.7196 444.382 31.7196C450.939 31.7564 457.57 34.1141 463.207 38.7558Z" fill="#7AE7FF"/>
<path d="M463.209 38.7556V70.7318C457.573 66.0901 450.942 63.7324 444.385 63.7324C439.853 63.7324 435.396 64.8744 431.344 67.1953V35.1822C435.396 32.8613 439.853 31.7193 444.385 31.7193C450.942 31.7562 457.573 34.1138 463.209 38.7556Z" fill="black"/>
<path d="M463.209 38.7556V70.7318C457.573 66.0901 450.942 63.7324 444.385 63.7324C439.853 63.7324 435.396 64.8744 431.344 67.1953V35.1822C435.396 32.8613 439.853 31.7193 444.385 31.7193C450.942 31.7562 457.573 34.1138 463.209 38.7556Z" fill="#7AE7FF"/>
<path d="M431.345 35.1834V67.1964L380.802 95.9308V63.9178L431.345 35.1834Z" fill="#7AE7FF"/>
<path d="M523.101 88.2678V120.244L463.201 70.7325V38.7563L523.101 88.2678Z" fill="#7AE7FF"/>
<path d="M530.099 99.8333V131.81C530.099 128.089 527.815 124.11 523.136 120.242V88.2659C527.815 92.134 530.099 96.1126 530.099 99.8333Z" fill="#7AE7FF"/>
<path d="M530.096 99.8339V131.81C530.096 128.089 527.812 124.111 523.133 120.243V88.2664C527.812 92.1345 530.096 96.1131 530.096 99.8339Z" fill="black"/>
<path d="M530.096 99.8339V131.81C530.096 128.089 527.812 124.111 523.133 120.243V88.2664C527.812 92.1345 530.096 96.1131 530.096 99.8339Z" fill="#7AE7FF"/>
<path d="M576 101.749V133.725C576 146.398 568.19 158.518 552.607 167.396V135.383C568.19 126.542 576 114.385 576 101.749Z" fill="#7AE7FF"/>
<path d="M576.003 101.748V133.725C576.003 146.397 568.194 158.517 552.611 167.395V135.382C568.194 126.541 576.003 114.384 576.003 101.748Z" fill="black"/>
<path d="M576.005 101.748V133.725C576.005 135.935 575.784 138.145 575.305 140.319V108.343C575.784 106.132 576.005 103.959 576.005 101.748Z" fill="#7AE7FF"/>
<path d="M575.299 108.307V140.283C574.784 142.53 574.047 144.777 573.015 146.951V114.975C574.047 112.801 574.784 110.591 575.299 108.307Z" fill="#7AE7FF"/>
<path d="M573.024 114.973V146.95C571.846 149.491 570.298 151.96 568.383 154.354V122.378C570.298 120.02 571.846 117.515 573.024 114.973Z" fill="#7AE7FF"/>
<path d="M568.378 122.377V154.353C564.547 159.142 559.315 163.563 552.611 167.357V135.381C559.315 131.586 564.583 127.166 568.378 122.377Z" fill="#7AE7FF"/>
<path d="M269.093 143.708V175.684C265.851 172.995 262.167 171.669 258.594 171.669C256.199 171.669 253.842 172.258 251.705 173.474V141.498C253.842 140.282 256.199 139.692 258.594 139.692C262.204 139.692 265.888 141.019 269.093 143.708Z" fill="#7AE7FF"/>
<path d="M269.097 143.708V175.684C265.855 172.995 262.171 171.669 258.598 171.669C256.203 171.669 253.845 172.258 251.709 173.474V141.498C253.845 140.282 256.203 139.693 258.598 139.693C262.208 139.693 265.892 141.019 269.097 143.708Z" fill="black"/>
<path d="M269.097 143.708V175.684C265.855 172.995 262.171 171.669 258.598 171.669C256.203 171.669 253.845 172.258 251.709 173.474V141.498C253.845 140.282 256.203 139.693 258.598 139.693C262.208 139.693 265.892 141.019 269.097 143.708Z" fill="#7AE7FF"/>
<path d="M276.474 149.752V181.765L269.106 175.687V143.711L276.474 149.752Z" fill="#7AE7FF"/>
<path d="M279.165 154.209V186.186C279.165 184.675 278.318 183.275 276.476 181.728V149.752C278.318 151.299 279.165 152.699 279.165 154.209Z" fill="#7AE7FF"/>
<path d="M279.163 154.209V186.185C279.163 184.675 278.316 183.275 276.474 181.728L276.474 149.752C278.316 151.3 279.163 152.699 279.163 154.209Z" fill="black"/>
<path d="M279.163 154.209V186.185C279.163 184.675 278.316 183.275 276.474 181.728L276.474 149.752C278.316 151.3 279.163 152.699 279.163 154.209Z" fill="#7AE7FF"/>
<path d="M251.754 141.498V173.475L209.242 197.641V165.665L251.754 141.498Z" fill="#7AE7FF"/>
<path d="M326.469 155.018V186.994C326.469 190.789 325.4 194.657 323.043 198.414V166.438C325.363 162.681 326.469 158.812 326.469 155.018Z" fill="#7AE7FF"/>
<path d="M326.468 155.019V186.995C326.468 190.789 325.4 194.658 323.042 198.415V166.439C325.363 162.681 326.468 158.813 326.468 155.019Z" fill="black"/>
<path d="M326.471 155.019V186.995C326.471 188.432 326.323 189.868 325.992 191.305V159.329C326.286 157.892 326.471 156.455 326.471 155.019Z" fill="#7AE7FF"/>
<path d="M325.984 159.328V191.305C325.653 192.815 325.137 194.325 324.437 195.799V163.823C325.137 162.312 325.653 160.839 325.984 159.328Z" fill="#7AE7FF"/>
<path d="M324.442 163.822V195.799C324.036 196.683 323.558 197.53 323.042 198.377V166.401C323.558 165.554 324.036 164.707 324.442 163.822Z" fill="#7AE7FF"/>
<path d="M209.233 165.668V197.644C202.345 201.549 198.624 204.606 191.514 213.779V181.803C198.624 172.63 202.345 169.572 209.233 165.668Z" fill="#7AE7FF"/>
<path d="M209.227 165.666V197.642C202.338 201.547 198.618 204.605 191.508 213.778V181.801C198.618 172.628 202.338 169.571 209.227 165.666Z" fill="black"/>
<path d="M209.232 165.666V197.642C202.749 201.326 199.065 204.236 192.728 212.267V180.291C199.065 172.26 202.749 169.35 209.232 165.666Z" fill="#7AE7FF"/>
<path d="M192.729 180.289V212.266C192.36 212.745 191.955 213.26 191.55 213.776V181.8C191.955 181.284 192.323 180.768 192.729 180.289Z" fill="#7AE7FF"/>
<path d="M191.509 181.799V213.776L156.917 195.761V163.785L191.509 181.799Z" fill="#7AE7FF"/>
<path d="M467.625 183.718V215.695L316.291 90.6631V58.6868L467.625 183.718Z" fill="#7AE7FF"/>
<path d="M552.622 135.383V167.396L467.635 215.692V183.716L552.622 135.383Z" fill="#7AE7FF"/>
<path d="M323.031 166.401V198.415L288.808 253.452V221.476L323.031 166.401Z" fill="#7AE7FF"/>
<path d="M287.551 257.873V225.897C287.551 224.46 287.956 222.986 288.804 221.513V253.489C287.956 254.962 287.551 256.399 287.551 257.873Z" fill="#7AE7FF"/>
<path d="M287.552 257.873V225.897C287.552 224.461 287.957 222.987 288.805 221.513V253.49C287.957 254.963 287.552 256.4 287.552 257.873Z" fill="black"/>
<path d="M288.797 221.477V253.453C288.65 253.711 288.54 253.969 288.429 254.19V222.214C288.54 221.956 288.65 221.735 288.797 221.477Z" fill="#7AE7FF"/>
<path d="M288.432 222.214V254.19C288.137 254.854 287.879 255.517 287.769 256.18V224.204C287.879 223.54 288.1 222.877 288.432 222.214Z" fill="#7AE7FF"/>
<path d="M287.736 224.204V256.18C287.626 256.733 287.552 257.285 287.552 257.875V225.899C287.552 225.309 287.626 224.757 287.736 224.204Z" fill="#7AE7FF"/>
<path d="M117.244 211.05V243.027L55.2071 278.318V246.305L117.244 211.05Z" fill="#7AE7FF"/>
<path d="M242.355 256.143V224.167C242.355 234.74 247.807 245.276 257.385 253.233V285.209C247.807 277.252 242.355 266.716 242.355 256.143Z" fill="#7AE7FF"/>
<path d="M242.35 256.144V224.168C242.35 234.741 247.803 245.277 257.381 253.234V285.21C247.803 277.253 242.35 266.717 242.35 256.144Z" fill="black"/>
<path d="M257.423 253.197V285.173C247.845 277.253 242.393 266.717 242.393 256.107V224.168C242.356 234.741 247.808 245.277 257.423 253.197Z" fill="#7AE7FF"/>
<path d="M48.4766 286.719V254.743C48.4766 251.759 50.7606 248.885 55.2182 246.307V278.283C50.7238 280.862 48.4766 283.735 48.4766 286.719Z" fill="#7AE7FF"/>
<path d="M48.4796 286.719V254.742C48.4796 251.759 50.7636 248.885 55.2211 246.306V278.283C50.7268 280.861 48.4796 283.735 48.4796 286.719Z" fill="black"/>
<path d="M55.2095 246.306V278.283C52.9623 279.572 51.2677 280.935 50.1626 282.335V250.359C51.2677 248.959 52.9623 247.596 55.2095 246.306Z" fill="#7AE7FF"/>
<path d="M50.1376 250.358V282.334C49.6955 282.886 49.3271 283.476 49.0692 284.065V252.089C49.3639 251.5 49.6955 250.947 50.1376 250.358Z" fill="#7AE7FF"/>
<path d="M49.0618 252.091V284.067C48.8408 284.509 48.6934 284.988 48.5829 285.43V253.454C48.6934 253.012 48.8408 252.533 49.0618 252.091Z" fill="#7AE7FF"/>
<path d="M48.5847 253.455V285.431C48.4742 285.836 48.4373 286.278 48.4373 286.72V254.744C48.4742 254.302 48.511 253.897 48.5847 253.455Z" fill="#7AE7FF"/>
<path d="M0.0638976 285.722V253.746C0.0638976 262.035 4.85294 270.397 14.5784 278.428V310.404C4.85294 302.374 0.0638976 294.048 0.0638976 285.722Z" fill="#7AE7FF"/>
<path d="M0.0638976 285.722V253.746C0.0638976 262.035 4.85294 270.397 14.5784 278.428V310.404C4.85294 302.374 0.0638976 294.048 0.0638976 285.722Z" fill="black"/>
<path d="M14.5784 278.428V310.404C4.85294 302.337 0.0638976 294.011 0.0638976 285.722V253.746C0.0638976 262.035 4.85294 270.397 14.5784 278.428Z" fill="#7AE7FF"/>
<path d="M293.301 282.851V314.828L257.42 285.209V253.196L293.301 282.851Z" fill="#7AE7FF"/>
<path d="M416.425 212.856V244.833L293.309 314.827V282.85L416.425 212.856Z" fill="#7AE7FF"/>
<path d="M29.9482 291.139V323.115L14.5863 310.442V278.429L29.9482 291.139Z" fill="#7AE7FF"/>
<path d="M168.757 292.761V324.737C165.921 322.38 162.605 321.385 158.442 321.385C157.227 321.385 155.937 321.459 154.574 321.643V289.667C155.937 289.519 157.227 289.409 158.442 289.409C162.605 289.409 165.921 290.403 168.757 292.761Z" fill="#7AE7FF"/>
<path d="M168.755 292.763V324.739C165.918 322.381 162.602 321.387 158.44 321.387C157.224 321.387 155.935 321.46 154.571 321.645V289.668C155.935 289.521 157.224 289.41 158.44 289.41C162.602 289.41 165.918 290.405 168.755 292.763Z" fill="black"/>
<path d="M168.755 292.763V324.739C165.918 322.381 162.602 321.387 158.44 321.387C157.224 321.387 155.935 321.46 154.571 321.645V289.668C155.935 289.521 157.224 289.41 158.44 289.41C162.602 289.41 165.918 290.405 168.755 292.763Z" fill="#7AE7FF"/>
<path d="M174.164 297.22V329.196L168.749 324.739V292.762L174.164 297.22Z" fill="#7AE7FF"/>
<path d="M154.572 289.629V321.642L71.4263 332.73V300.754L154.572 289.629Z" fill="#7AE7FF"/>
<path d="M71.42 300.753V332.729C66.9993 333.355 63.0207 333.687 59.3737 333.687C46.7011 333.687 38.1913 329.929 29.9394 323.151V291.175C38.1913 297.99 46.7011 301.711 59.3737 301.711C62.9839 301.674 66.9993 301.379 71.42 300.753Z" fill="#7AE7FF"/>
<path d="M71.4266 300.752V332.728C67.0059 333.355 63.0273 333.686 59.3802 333.686C46.7076 333.686 38.1978 329.929 29.9459 323.15V291.174C38.1978 297.989 46.7076 301.71 59.3802 301.71C62.9904 301.673 67.0059 301.378 71.4266 300.752Z" fill="black"/>
<path d="M71.4266 300.752V332.728C67.0059 333.355 63.0273 333.686 59.3802 333.686C46.7076 333.686 38.1978 329.929 29.9459 323.15V291.174C38.1978 297.989 46.7076 301.71 59.3802 301.71C62.9904 301.673 67.0059 301.378 71.4266 300.752Z" fill="#7AE7FF"/>
<path d="M178.483 304.219V336.195C178.483 333.948 177.083 331.59 174.173 329.195V297.219C177.083 299.614 178.483 301.935 178.483 304.219Z" fill="#7AE7FF"/>
<path d="M178.485 304.218V336.194C178.485 333.947 177.085 331.589 174.175 329.195V297.218C177.085 299.613 178.485 301.934 178.485 304.218Z" fill="black"/>
<path d="M178.485 304.218V336.194C178.485 333.947 177.085 331.589 174.175 329.195V297.218C177.085 299.613 178.485 301.934 178.485 304.218Z" fill="#7AE7FF"/>
<path d="M226.85 305.36V337.336C226.85 349.088 217.235 360.766 198.521 371.412V339.436C217.235 328.79 226.85 317.112 226.85 305.36Z" fill="#7AE7FF"/>
<path d="M226.854 305.358V337.335C226.854 349.086 217.239 360.764 198.525 371.411V339.434C217.239 328.788 226.854 317.11 226.854 305.358Z" fill="black"/>
<path d="M226.857 305.358V337.335C226.857 338.919 226.673 340.503 226.341 342.087V310.111C226.673 308.527 226.857 306.942 226.857 305.358Z" fill="#7AE7FF"/>
<path d="M226.346 310.111V342.087C225.941 343.855 225.352 345.624 224.541 347.392V315.416C225.352 313.647 225.941 311.879 226.346 310.111Z" fill="#7AE7FF"/>
<path d="M224.532 315.378V347.354C223.464 349.601 222.064 351.848 220.296 354.096V322.119C222.064 319.909 223.464 317.662 224.532 315.378Z" fill="#7AE7FF"/>
<path d="M220.302 322.119V354.095C215.55 360.063 208.292 365.884 198.567 371.41V339.433C208.292 333.907 215.55 328.087 220.302 322.119Z" fill="#7AE7FF"/>
<path d="M198.513 339.437V371.413L133.492 408.399V376.386L198.513 339.437Z" fill="#7AE7FF"/>
<path d="M133.503 376.383V408.396L103.258 383.383V351.369L133.503 376.383Z" fill="#7AE7FF"/>
<path d="M557.561 68.6678C583.717 90.2923 582.022 118.695 552.625 135.42L467.6 183.753L316.266 58.6845L401.253 10.3518C413.521 3.38919 427.814 0 442.145 0C462.185 0 482.373 6.59418 497.624 19.1931L557.561 68.6678ZM522.38 110.406C532.253 104.807 532.842 96.2971 523.154 88.2662L463.253 38.7546C457.617 34.1129 450.986 31.7552 444.429 31.7552C439.898 31.7552 435.44 32.8972 431.388 35.2181L380.845 63.9525L471.874 139.141L522.38 110.406Z" fill="#F3FEFF"/>
<path d="M255.568 107.495C272.44 107.495 289.644 113.205 302.5 123.815L314.841 134.019C325.893 143.119 330.019 155.239 323.057 166.438L288.833 221.475C286.365 225.896 287.544 230.022 292.333 233.964L297.49 238.237L386.162 187.841L416.443 212.855L293.291 282.849L257.409 253.194C242.932 241.221 237.885 223.28 246.8 208.25L278.15 157.265C279.844 154.502 279.476 152.292 276.455 149.787L269.087 143.708C265.846 141.019 262.162 139.693 258.588 139.693C256.194 139.693 253.836 140.282 251.699 141.498L209.187 165.664C202.298 169.569 198.578 172.627 191.468 181.8L156.839 163.785C163.102 153.286 168.812 146.397 178.906 140.65L222.818 115.71C232.654 110.148 244.074 107.495 255.568 107.495Z" fill="#F3FEFF"/>
<path d="M87.2067 186.22L117.23 211.05L55.1936 246.305C47.1627 250.873 46.2418 256.509 52.7254 261.887L56.8146 265.277C59.8354 267.782 62.6719 268.924 66.8347 268.924C68.3451 268.924 70.0029 268.776 71.9185 268.482L154.364 257.467C158.822 256.767 162.837 256.435 166.521 256.435C179.046 256.435 187.63 260.303 195.845 267.045L212.275 280.638C235.815 300.089 230.4 321.272 198.497 339.397L133.476 376.346L103.195 351.332L171.421 312.541C179.488 307.973 180.851 302.668 174.11 297.179L168.695 292.722C165.858 290.364 162.542 289.369 158.38 289.369C157.164 289.369 155.875 289.443 154.512 289.627L71.366 300.716C66.9453 301.342 62.9667 301.674 59.3196 301.674C46.647 301.674 38.1372 297.916 29.8853 291.138L14.5234 278.428C-9.01668 258.977 -3.60136 237.795 28.3012 219.67L87.2067 186.22Z" fill="#F3FEFF"/>
</svg>
