<?xml version="1.0" standalone="no"?>
<!DOCTYPE svg PUBLIC "-//W3C//DTD SVG 20010904//EN"
 "http://www.w3.org/TR/2001/REC-SVG-20010904/DTD/svg10.dtd">
<svg version="1.0" xmlns="http://www.w3.org/2000/svg"
 width="310.000000pt" height="163.000000pt" viewBox="0 0 310.000000 163.000000"
 preserveAspectRatio="xMidYMid meet">

<g transform="translate(0.000000,163.000000) scale(0.100000,-0.100000)"
fill="#000000" stroke="none">
<path d="M0 815 l0 -815 565 0 c358 0 565 4 565 10 0 6 5 10 11 10 5 0 7 -4 4
-10 -4 -6 328 -10 974 -10 l981 0 0 815 0 815 -1550 0 -1550 0 0 -815z m890
801 c0 -3 -4 -8 -10 -11 -5 -3 -10 -1 -10 4 0 6 5 11 10 11 6 0 10 -2 10 -4z
m1980 -11 c0 -8 -7 -15 -15 -15 -8 0 -15 7 -15 15 0 8 7 15 15 15 8 0 15 -7
15 -15z m-2020 -11 c0 -8 -5 -12 -10 -9 -6 4 -8 11 -5 16 9 14 15 11 15 -7z
m520 -4 c0 -5 -4 -10 -10 -10 -5 0 -10 5 -10 10 0 6 5 10 10 10 6 0 10 -4 10
-10z m635 -30 c3 -5 1 -10 -4 -10 -6 0 -11 5 -11 10 0 6 2 10 4 10 3 0 8 -4
11 -10z m215 -4 c0 -11 -19 -15 -25 -6 -3 5 1 10 9 10 9 0 16 -2 16 -4z m500
-21 c0 -8 -4 -15 -9 -15 -13 0 -22 16 -14 24 11 11 23 6 23 -9z m-150 -5 c0
-5 -7 -10 -15 -10 -8 0 -15 5 -15 10 0 6 7 10 15 10 8 0 15 -4 15 -10z m-1373
-12 c-2 -7 -10 -12 -16 -10 -6 1 -11 -2 -11 -8 0 -5 7 -10 15 -10 8 0 15 -4
15 -10 0 -14 -11 -12 -34 5 -20 15 -20 15 0 30 24 18 37 19 31 3z m-237 -55
c0 -7 -4 -13 -10 -13 -5 0 -10 5 -10 10 0 6 -7 10 -15 10 -8 0 -15 5 -15 10 0
6 -7 10 -15 10 -15 0 -20 12 -9 23 9 8 74 -36 74 -50z m270 37 c0 -5 -7 -10
-15 -10 -8 0 -15 5 -15 10 0 6 7 10 15 10 8 0 15 -4 15 -10z m-316 -35 c16
-12 17 -18 8 -27 -9 -9 -12 -8 -12 5 0 9 -5 16 -11 15 -6 -2 -14 3 -16 10 -6
16 7 15 31 -3z m-38 -32 c-4 -38 -25 -41 -24 -4 1 18 6 31 14 31 8 0 12 -10
10 -27z m1599 17 c3 -5 -1 -10 -10 -10 -9 0 -13 5 -10 10 3 6 8 10 10 10 2 0
7 -4 10 -10z m-1575 -20 c0 -5 -4 -10 -10 -10 -5 0 -10 5 -10 10 0 6 5 10 10
10 6 0 10 -4 10 -10z m900 0 c0 -5 -4 -10 -10 -10 -5 0 -10 5 -10 10 0 6 5 10
10 10 6 0 10 -4 10 -10z m30 -20 c0 -5 -4 -10 -10 -10 -5 0 -10 5 -10 10 0 6
5 10 10 10 6 0 10 -4 10 -10z m-1560 -50 c0 -5 -4 -10 -10 -10 -5 0 -10 5 -10
10 0 6 5 10 10 10 6 0 10 -4 10 -10z m1195 -10 c3 -5 -1 -10 -9 -10 -9 0 -16
5 -16 10 0 6 4 10 9 10 6 0 13 -4 16 -10z m155 -10 c0 -5 -4 -10 -10 -10 -5 0
-10 5 -10 10 0 6 5 10 10 10 6 0 10 -4 10 -10z m227 -26 c-9 -9 -28 6 -21 18
4 6 10 6 17 -1 6 -6 8 -13 4 -17z m293 16 c0 -5 -4 -10 -10 -10 -5 0 -10 5
-10 10 0 6 5 10 10 10 6 0 10 -4 10 -10z m-490 -10 c0 -5 -7 -10 -16 -10 -8 0
-12 5 -9 10 3 6 10 10 16 10 5 0 9 -4 9 -10z m1250 0 c0 -5 -4 -10 -10 -10 -5
0 -10 5 -10 10 0 6 5 10 10 10 6 0 10 -4 10 -10z m-2730 -4 c0 -3 -4 -8 -10
-11 -5 -3 -10 -1 -10 4 0 6 5 11 10 11 6 0 10 -2 10 -4z m180 -6 c0 -5 -4 -10
-10 -10 -5 0 -10 5 -10 10 0 6 5 10 10 10 6 0 10 -4 10 -10z m1324 -21 c-3 -5
-10 -7 -15 -3 -5 3 -7 10 -3 15 3 5 10 7 15 3 5 -3 7 -10 3 -15z m-1294 -9 c0
-11 -4 -20 -10 -20 -5 0 -10 9 -10 20 0 11 5 20 10 20 6 0 10 -9 10 -20z
m1320 0 c0 -5 -5 -10 -11 -10 -5 0 -7 5 -4 10 3 6 8 10 11 10 2 0 4 -4 4 -10z
m1220 -10 c0 -5 -4 -10 -9 -10 -6 0 -13 5 -16 10 -3 6 1 10 9 10 9 0 16 -4 16
-10z m-1190 -10 c0 -5 -4 -10 -10 -10 -5 0 -10 5 -10 10 0 6 5 10 10 10 6 0
10 -4 10 -10z m-980 -30 c0 -5 -4 -10 -9 -10 -6 0 -13 5 -16 10 -3 6 1 10 9
10 9 0 16 -4 16 -10z m1040 -90 c0 -5 -4 -10 -10 -10 -5 0 -10 5 -10 10 0 6 5
10 10 10 6 0 10 -4 10 -10z m-549 -23 c-13 -13 -26 -3 -16 12 3 6 11 8 17 5 6
-4 6 -10 -1 -17z m74 -27 c3 -5 -1 -10 -9 -10 -9 0 -16 5 -16 10 0 6 4 10 9
10 6 0 13 -4 16 -10z m-268 -22 c-3 -8 -6 -5 -6 6 -1 11 2 17 5 13 3 -3 4 -12
1 -19z m678 -18 c-9 -15 -45 -32 -45 -22 0 5 10 14 23 20 29 14 29 14 22 2z
m540 -30 c3 -5 2 -10 -4 -10 -5 0 -13 5 -16 10 -3 6 -2 10 4 10 5 0 13 -4 16
-10z m-915 -20 c-24 -15 -36 -11 -14 4 10 8 21 12 24 10 2 -3 -2 -9 -10 -14z
m460 0 c0 -5 -4 -10 -10 -10 -5 0 -10 5 -10 10 0 6 5 10 10 10 6 0 10 -4 10
-10z m-70 -10 c0 -5 3 -9 8 -7 4 1 19 -9 32 -22 l25 -24 -33 19 c-39 22 -60
44 -43 44 6 0 11 -4 11 -10z m196 -12 c5 -7 2 -9 -8 -6 -18 8 -81 -40 -72 -54
4 -6 3 -9 -2 -6 -5 3 -17 8 -28 12 -14 5 -8 12 35 35 63 34 66 35 75 19z
m-271 -22 c54 -25 101 -72 111 -112 24 -94 -76 -192 -212 -210 -145 -18 -293
76 -280 179 7 58 43 104 110 137 51 26 70 30 140 30 64 0 92 -5 131 -24z
m-1235 -60 c0 -3 -4 -8 -10 -11 -5 -3 -10 -1 -10 4 0 6 5 11 10 11 6 0 10 -2
10 -4z m1480 -6 c4 0 10 -7 14 -15 8 -21 -8 -19 -35 6 -19 16 -20 19 -6 15 10
-3 22 -6 27 -6z m-1130 -24 c0 -3 -4 -8 -10 -11 -5 -3 -10 -1 -10 4 0 6 5 11
10 11 6 0 10 -2 10 -4z m205 -5 c3 -5 0 -13 -6 -17 -7 -4 -9 -3 -5 4 3 6 -3
12 -16 15 -23 4 -23 4 -1 6 12 0 24 -3 28 -8z m-715 -11 c0 -5 -5 -10 -11 -10
-5 0 -7 5 -4 10 3 6 8 10 11 10 2 0 4 -4 4 -10z m870 6 c0 -2 -12 -12 -27 -21
l-28 -18 19 21 c17 20 36 29 36 18z m-1005 -16 c3 -5 1 -10 -4 -10 -6 0 -11 5
-11 10 0 6 2 10 4 10 3 0 8 -4 11 -10z m1875 -21 c-23 -19 -23 -22 -7 -31 15
-8 16 -12 5 -26 -11 -14 -10 -15 5 -9 11 4 16 3 12 -3 -3 -6 1 -13 9 -16 9 -3
16 -11 16 -16 0 -6 -6 -8 -14 -5 -9 4 -12 -2 -10 -19 1 -13 -2 -22 -7 -18 -5
3 -12 -2 -15 -11 -8 -20 -73 -90 -84 -90 -5 0 -12 -3 -16 -8 -4 -4 -3 -7 3 -7
5 0 10 -7 10 -15 0 -8 -4 -12 -9 -9 -14 9 -60 -5 -53 -16 3 -6 1 -10 -5 -10
-6 0 -22 -12 -37 -26 -14 -14 -32 -23 -40 -20 -8 3 -11 1 -8 -4 3 -6 0 -10 -7
-10 -7 -1 -28 -14 -47 -30 -19 -16 -38 -27 -43 -24 -4 3 -11 -1 -14 -10 -3 -8
-12 -12 -20 -9 -8 3 -14 1 -14 -4 0 -5 -18 -19 -40 -31 -31 -16 -46 -19 -65
-12 -14 5 -25 7 -25 3 0 -3 -8 1 -17 9 -10 9 -28 19 -40 22 -20 7 -22 3 -26
-46 l-3 -53 -2 63 c-2 46 -6 62 -16 62 -8 0 -22 10 -30 22 -9 12 -16 17 -16
10 0 -6 -5 -11 -12 -10 -7 2 -15 -12 -19 -32 -6 -31 -7 -28 -8 19 -1 48 -3 53
-14 37 -8 -11 -20 -16 -28 -13 -10 4 -9 6 4 6 23 1 22 18 -3 31 -11 6 -18 15
-15 21 9 13 -6 11 -35 -6 -38 -22 -44 -18 -13 10 15 13 22 25 15 25 -23 0 -82
51 -82 70 0 12 -10 21 -30 25 -28 6 -34 16 -33 53 1 6 -4 12 -9 12 -6 0 -8 9
-5 21 5 19 2 21 -32 17 -22 -2 -43 2 -50 9 -9 10 -3 13 34 13 34 0 45 4 45 15
0 37 34 24 147 -57 64 -45 127 -90 139 -98 13 -8 61 -43 108 -78 l85 -63 93
69 c51 37 153 110 226 161 88 62 132 99 132 111 0 11 10 26 22 34 32 23 37 19
8 -5z m-970 -33 c0 -2 -12 -11 -27 -20 l-28 -17 24 20 c23 21 31 25 31 17z
m-480 -28 c0 -16 -3 -19 -11 -11 -6 6 -8 16 -5 22 11 17 16 13 16 -11z m1507
-14 c-3 -3 -12 -4 -19 -1 -8 3 -5 6 6 6 11 1 17 -2 13 -5z m383 -234 c0 -5 -7
-10 -16 -10 -8 0 -12 5 -9 10 3 6 10 10 16 10 5 0 9 -4 9 -10z m-2400 -25 c9
5 11 4 6 -3 -11 -18 -36 -14 -36 6 0 13 2 14 9 3 5 -8 14 -10 21 -6z m960 -5
c0 -5 -4 -10 -10 -10 -5 0 -10 5 -10 10 0 6 5 10 10 10 6 0 10 -4 10 -10z
m1575 -170 c3 -5 1 -10 -4 -10 -6 0 -11 5 -11 10 0 6 2 10 4 10 3 0 8 -4 11
-10z m-1555 -10 c0 -5 -4 -10 -10 -10 -5 0 -10 5 -10 10 0 6 5 10 10 10 6 0
10 -4 10 -10z m-793 -91 c-3 -33 -8 -63 -12 -67 -4 -4 -5 11 -2 33 4 22 7 52
7 68 0 15 3 27 6 27 4 0 4 -27 1 -61z m1293 36 c0 -8 -4 -15 -10 -15 -5 0 -10
7 -10 15 0 8 5 15 10 15 6 0 10 -7 10 -15z m-1230 -15 c0 -5 -4 -10 -10 -10
-5 0 -10 5 -10 10 0 6 5 10 10 10 6 0 10 -4 10 -10z m560 -10 c0 -5 -4 -10
-10 -10 -5 0 -10 5 -10 10 0 6 5 10 10 10 6 0 10 -4 10 -10z m-750 -10 c0 -5
-4 -10 -10 -10 -5 0 -10 5 -10 10 0 6 5 10 10 10 6 0 10 -4 10 -10z m570 0 c0
-5 -5 -10 -11 -10 -5 0 -7 5 -4 10 3 6 8 10 11 10 2 0 4 -4 4 -10z m2150 -10
c0 -5 -4 -10 -10 -10 -5 0 -10 5 -10 10 0 6 5 10 10 10 6 0 10 -4 10 -10z m40
-20 c0 -5 -4 -10 -9 -10 -6 0 -13 5 -16 10 -3 6 1 10 9 10 9 0 16 -4 16 -10z
m-2030 -20 c0 -5 -4 -10 -10 -10 -5 0 -10 5 -10 10 0 6 5 10 10 10 6 0 10 -4
10 -10z m1995 0 c3 -5 -1 -10 -10 -10 -9 0 -13 5 -10 10 3 6 8 10 10 10 2 0 7
-4 10 -10z m65 0 c0 -5 -4 -10 -10 -10 -5 0 -10 5 -10 10 0 6 5 10 10 10 6 0
10 -4 10 -10z m-90 -31 c0 -5 -4 -9 -10 -9 -5 0 -10 7 -10 16 0 8 5 12 10 9 6
-3 10 -10 10 -16z m56 -6 c-10 -10 -19 5 -10 18 6 11 8 11 12 0 2 -7 1 -15 -2
-18z m-26 -13 c0 -5 -4 -10 -10 -10 -5 0 -10 5 -10 10 0 6 5 10 10 10 6 0 10
-4 10 -10z m-2270 -20 c0 -5 -4 -10 -10 -10 -5 0 -10 5 -10 10 0 6 5 10 10 10
6 0 10 -4 10 -10z m360 0 c0 -5 -4 -10 -10 -10 -5 0 -10 5 -10 10 0 6 5 10 10
10 6 0 10 -4 10 -10z m1880 0 c0 -5 -4 -10 -10 -10 -5 0 -10 5 -10 10 0 6 5
10 10 10 6 0 10 -4 10 -10z m-2230 -54 c0 -3 -4 -8 -10 -11 -5 -3 -10 -1 -10
4 0 6 5 11 10 11 6 0 10 -2 10 -4z"/>
<path d="M1440 956 c0 -2 8 -10 17 -17 9 -8 14 -9 10 -2 -4 6 -1 14 5 16 7 3
3 6 -9 6 -13 1 -23 -1 -23 -3z"/>
<path d="M1580 956 c0 -2 9 -6 20 -9 11 -3 20 -1 20 4 0 5 -9 9 -20 9 -11 0
-20 -2 -20 -4z"/>
<path d="M1470 912 c0 -6 -8 -13 -17 -15 -16 -4 -16 -5 -1 -6 18 -1 34 16 24
26 -3 4 -6 1 -6 -5z"/>
<path d="M1690 913 c0 -5 12 -13 26 -20 26 -12 26 -12 9 7 -18 20 -35 26 -35
13z"/>
<path d="M1358 903 c7 -3 16 -2 19 1 4 3 -2 6 -13 5 -11 0 -14 -3 -6 -6z"/>
<path d="M1495 898 c-4 -11 -18 -18 -34 -18 -22 -1 -24 -2 -8 -11 12 -7 17
-23 17 -59 0 -36 -5 -52 -17 -59 -15 -9 -14 -10 10 -11 17 0 27 -5 27 -15 0
-8 5 -15 10 -15 6 0 10 7 10 15 0 21 28 19 33 -2 4 -17 5 -17 6 0 1 11 9 17
25 17 13 0 34 9 47 20 l24 20 -22 19 c-15 13 -19 21 -11 29 17 17 2 39 -32 45
-17 4 -29 11 -25 16 3 5 1 12 -5 16 -5 3 -10 -1 -10 -9 0 -22 -28 -20 -33 2
-4 16 -4 16 -12 0z m83 -43 c13 -13 -11 -35 -38 -35 -26 0 -30 4 -30 26 0 24
3 26 32 20 17 -3 34 -8 36 -11z m5 -57 c24 -18 8 -38 -36 -45 -36 -5 -37 -5
-37 26 0 27 3 31 28 31 16 0 36 -6 45 -12z"/>
<path d="M1621 894 c0 -11 3 -14 6 -6 3 7 2 16 -1 19 -3 4 -6 -2 -5 -13z"/>
<path d="M1318 853 c7 -3 16 -2 19 1 4 3 -2 6 -13 5 -11 0 -14 -3 -6 -6z"/>
<path d="M1394 849 c-8 -14 14 -19 25 -6 8 10 7 14 -5 14 -8 0 -17 -4 -20 -8z"/>
<path d="M1685 849 c-4 -6 -5 -12 -2 -15 2 -3 7 2 10 11 7 17 1 20 -8 4z"/>
<path d="M1732 830 c0 -14 2 -19 5 -12 2 6 2 18 0 25 -3 6 -5 1 -5 -13z"/>
<path d="M1753 815 c0 -22 2 -30 4 -17 2 12 2 30 0 40 -3 9 -5 -1 -4 -23z"/>
<path d="M1302 800 c0 -19 2 -27 5 -17 2 9 2 25 0 35 -3 9 -5 1 -5 -18z"/>
<path d="M1320 801 c0 -17 4 -32 8 -35 4 -2 6 11 4 30 -5 42 -12 45 -12 5z"/>
<path d="M1377 809 c7 -7 15 -10 18 -7 3 3 -2 9 -12 12 -14 6 -15 5 -6 -5z"/>
<path d="M1370 779 c0 -5 5 -7 10 -4 6 3 10 8 10 11 0 2 -4 4 -10 4 -5 0 -10
-5 -10 -11z"/>
<path d="M1431 774 c0 -11 3 -14 6 -6 3 7 2 16 -1 19 -3 4 -6 -2 -5 -13z"/>
<path d="M1712 750 c-9 -16 -8 -16 14 -6 26 12 31 23 10 23 -7 0 -18 -8 -24
-17z"/>
<path d="M1635 751 c-3 -5 -1 -12 5 -16 5 -3 10 1 10 9 0 18 -6 21 -15 7z"/>
<path d="M1606 715 c4 -8 10 -12 15 -9 11 6 2 24 -11 24 -5 0 -7 -7 -4 -15z"/>
<path d="M1350 711 c0 -6 5 -13 10 -16 6 -3 10 1 10 9 0 9 -4 16 -10 16 -5 0
-10 -4 -10 -9z"/>
<path d="M1680 716 c0 -2 7 -7 16 -10 8 -3 12 -2 9 4 -6 10 -25 14 -25 6z"/>
<path d="M1595 670 c-3 -5 3 -10 15 -10 12 0 18 5 15 10 -3 6 -10 10 -15 10
-5 0 -12 -4 -15 -10z"/>
<path d="M1450 660 c20 -13 40 -13 40 0 0 6 -12 10 -27 10 -22 0 -25 -2 -13
-10z"/>
<path d="M1085 639 c-4 -6 -4 -13 -1 -16 3 -4 6 -1 6 6 0 7 5 9 12 5 7 -4 8
-3 4 4 -9 15 -13 15 -21 1z"/>
</g>
</svg>
